<?xml version="1.0" encoding="UTF-8"?>
<!DOCTYPE svg PUBLIC "-//W3C//DTD SVG 1.1//EN" "http://www.w3.org/Graphics/SVG/1.1/DTD/svg11.dtd">
<svg xmlns="http://www.w3.org/2000/svg" width="1060" height="2540" fill="black" stroke="#808080" stroke-width="1">
<text x="0" y="30" text-anchor="start" stroke="#a52a2a">Linux 6.12.94+deb13-cloud-amd64 (madrona) 	09/12/26 	_x86_64_	(16 CPU)
</text>
<g id="g12-0" transform="translate(0,60)">
<rect x="0" y="0" height="300" width="1050" fill="#000000"/>
<text x="0" y="20" style="fill: #ffff00; stroke: none">Network interfaces statistics (1) [lo]
<tspan x="795" y="25" style="fill: #ffff00; stroke: none; font-size: 12px">(Min, Max values)</tspan>
</text>
<polyline points="70,50 70,250 790,250" style="fill: #000000; stroke: #ffffff; stroke-width: 2"/>
<text x="795" y="50" style="fill: #00cc00; stroke: none; font-size: 12px">rxpck/s (5444.43, 9744.53)</text>
<text x="795" y="65" style="fill: #ff00bf; stroke: none; font-size: 12px">txpck/s (5444.43, 9744.53)</text>
<g transform="translate(70,250)">
<text x="0" y="0" style="fill: #ffffff; stroke: none; font-size: 12px; text-anchor: end">0.</text>
<polyline points="0,3000.00 720,3000.00" style="vector-effect: non-scaling-stroke; stroke: #202020" transform="scale(1,-0.020524)"/>
<text x="0" y="-61" style="fill: #ffffff; stroke: none; font-size: 12px; text-anchor: end">3000.</text>
<polyline points="0,6000.00 720,6000.00" style="vector-effect: non-scaling-stroke; stroke: #202020" transform="scale(1,-0.020524)"/>
<text x="0" y="-123" style="fill: #ffffff; stroke: none; font-size: 12px; text-anchor: end">6000.</text>
<polyline points="0,9000.00 720,9000.00" style="vector-effect: non-scaling-stroke; stroke: #202020" transform="scale(1,-0.020524)"/>
<text x="0" y="-184" style="fill: #ffffff; stroke: none; font-size: 12px; text-anchor: end">9000.</text>
<polyline points="0,0 0,-200" style="vector-effect: non-scaling-stroke; stroke: #202020" transform="scale(0.196721,1)"/>
<text x="0" y="10" style="fill: #ffffff; stroke: none; font-size: 12px; text-anchor: start" transform="rotate(45,0,0)">04:03:24</text>
<polyline points="366,0 366,-200" style="vector-effect: non-scaling-stroke; stroke: #202020" transform="scale(0.196721,1)"/>
<text x="72" y="10" style="fill: #ffffff; stroke: none; font-size: 12px; text-anchor: start" transform="rotate(45,72,0)">04:09:30</text>
<polyline points="732,0 732,-200" style="vector-effect: non-scaling-stroke; stroke: #202020" transform="scale(0.196721,1)"/>
<text x="144" y="10" style="fill: #ffffff; stroke: none; font-size: 12px; text-anchor: start" transform="rotate(45,144,0)">04:15:36</text>
<polyline points="1098,0 1098,-200" style="vector-effect: non-scaling-stroke; stroke: #202020" transform="scale(0.196721,1)"/>
<text x="216" y="10" style="fill: #ffffff; stroke: none; font-size: 12px; text-anchor: start" transform="rotate(45,216,0)">04:21:42</text>
<polyline points="1464,0 1464,-200" style="vector-effect: non-scaling-stroke; stroke: #202020" transform="scale(0.196721,1)"/>
<text x="288" y="10" style="fill: #ffffff; stroke: none; font-size: 12px; text-anchor: start" transform="rotate(45,288,0)">04:27:48</text>
<polyline points="1830,0 1830,-200" style="vector-effect: non-scaling-stroke; stroke: #202020" transform="scale(0.196721,1)"/>
<text x="360" y="10" style="fill: #ffffff; stroke: none; font-size: 12px; text-anchor: start" transform="rotate(45,360,0)">04:33:54</text>
<polyline points="2196,0 2196,-200" style="vector-effect: non-scaling-stroke; stroke: #202020" transform="scale(0.196721,1)"/>
<text x="432" y="10" style="fill: #ffffff; stroke: none; font-size: 12px; text-anchor: start" transform="rotate(45,432,0)">04:40:00</text>
<polyline points="2562,0 2562,-200" style="vector-effect: non-scaling-stroke; stroke: #202020" transform="scale(0.196721,1)"/>
<text x="504" y="10" style="fill: #ffffff; stroke: none; font-size: 12px; text-anchor: start" transform="rotate(45,504,0)">04:46:06</text>
<polyline points="2928,0 2928,-200" style="vector-effect: non-scaling-stroke; stroke: #202020" transform="scale(0.196721,1)"/>
<text x="576" y="10" style="fill: #ffffff; stroke: none; font-size: 12px; text-anchor: start" transform="rotate(45,576,0)">04:52:12</text>
<polyline points="3294,0 3294,-200" style="vector-effect: non-scaling-stroke; stroke: #202020" transform="scale(0.196721,1)"/>
<text x="648" y="10" style="fill: #ffffff; stroke: none; font-size: 12px; text-anchor: start" transform="rotate(45,648,0)">04:58:18</text>
<polyline points="3660,0 3660,-200" style="vector-effect: non-scaling-stroke; stroke: #202020" transform="scale(0.196721,1)"/>
<text x="720" y="10" style="fill: #ffffff; stroke: none; font-size: 12px; text-anchor: start" transform="rotate(45,720,0)">05:04:24</text>
<text x="-10" y="30" style="fill: #ffff00; stroke: none; font-size: 12px; text-anchor: end">UTC</text>
<path d=" M60,5444.43 L120,5934.92 L180,8740.70 L240,6092.80 L300,8973.48 L360,6554.35 L420,9291.40 L480,6158.58 L540,8620.93 L600,6431.67 L660,8589.67 L720,6957.65 L780,8240.40 L840,7506.80 L900,7653.43 L960,8217.30 L1020,6917.12 L1080,9262.35 L1140,7032.65 L1200,9590.12 L1260,5542.67 L1320,9350.72 L1380,6409.62 L1440,9498.45 L1500,6212.58 L1560,9606.60 L1620,6923.73 L1680,8241.27 L1740,7724.28 L1800,7233.75 L1860,8466.73 L1920,7602.08 L1980,8901.98 L2040,6835.32 L2100,9744.53 L2160,6113.57 L2220,9519.00 L2280,6658.15 L2340,8325.18 L2400,6933.70 L2460,8858.15 L2520,7375.72 L2580,8628.55 L2640,7584.03 L2700,7334.73 L2760,8477.22 L2820,7155.93 L2880,9397.87 L2940,5782.54 L3000,9270.18 L3060,6450.95 L3120,9447.02 L3180,6154.33 L3240,9608.70 L3300,6257.02 L3360,9354.12 L3420,6675.03 L3480,8084.08 L3540,6830.58 L3600,9016.40 L3660,7274.17" style="vector-effect: non-scaling-stroke; stroke: #00cc00; stroke-width: 1; fill-opacity: 0" transform="scale(0.196721,-0.020524)"/>
<path d=" M60,5444.43 L120,5934.92 L180,8740.70 L240,6092.80 L300,8973.48 L360,6554.35 L420,9291.40 L480,6158.58 L540,8620.93 L600,6431.67 L660,8589.67 L720,6957.65 L780,8240.40 L840,7506.80 L900,7653.43 L960,8217.30 L1020,6917.12 L1080,9262.35 L1140,7032.65 L1200,9590.12 L1260,5542.67 L1320,9350.72 L1380,6409.62 L1440,9498.45 L1500,6212.58 L1560,9606.60 L1620,6923.73 L1680,8241.27 L1740,7724.28 L1800,7233.75 L1860,8466.73 L1920,7602.08 L1980,8901.98 L2040,6835.32 L2100,9744.53 L2160,6113.57 L2220,9519.00 L2280,6658.15 L2340,8325.18 L2400,6933.70 L2460,8858.15 L2520,7375.72 L2580,8628.55 L2640,7584.03 L2700,7334.73 L2760,8477.22 L2820,7155.93 L2880,9397.87 L2940,5782.54 L3000,9270.18 L3060,6450.95 L3120,9447.02 L3180,6154.33 L3240,9608.70 L3300,6257.02 L3360,9354.12 L3420,6675.03 L3480,8084.08 L3540,6830.58 L3600,9016.40 L3660,7274.17" style="vector-effect: non-scaling-stroke; stroke: #ff00bf; stroke-width: 1; fill-opacity: 0" transform="scale(0.196721,-0.020524)"/>
</g>
<rect x="0" y="310" height="300" width="1050" fill="#000000"/>
<text x="0" y="330" style="fill: #ffff00; stroke: none">Network interfaces statistics (2) [lo]
<tspan x="795" y="335" style="fill: #ffff00; stroke: none; font-size: 12px">(Min, Max values)</tspan>
</text>
<polyline points="70,360 70,560 790,560" style="fill: #000000; stroke: #ffffff; stroke-width: 2"/>
<text x="795" y="360" style="fill: #00ffff; stroke: none; font-size: 12px">rxkB/s (2617.44, 4757.76)</text>
<text x="795" y="375" style="fill: #ff0000; stroke: none; font-size: 12px">txkB/s (2617.44, 4757.76)</text>
<g transform="translate(70,560)">
<text x="0" y="0" style="fill: #ffffff; stroke: none; font-size: 12px; text-anchor: end">0.</text>
<polyline points="0,1000.00 720,1000.00" style="vector-effect: non-scaling-stroke; stroke: #202020" transform="scale(1,-0.042037)"/>
<text x="0" y="-42" style="fill: #ffffff; stroke: none; font-size: 12px; text-anchor: end">1000.</text>
<polyline points="0,2000.00 720,2000.00" style="vector-effect: non-scaling-stroke; stroke: #202020" transform="scale(1,-0.042037)"/>
<text x="0" y="-84" style="fill: #ffffff; stroke: none; font-size: 12px; text-anchor: end">2000.</text>
<polyline points="0,3000.00 720,3000.00" style="vector-effect: non-scaling-stroke; stroke: #202020" transform="scale(1,-0.042037)"/>
<text x="0" y="-126" style="fill: #ffffff; stroke: none; font-size: 12px; text-anchor: end">3000.</text>
<polyline points="0,4000.00 720,4000.00" style="vector-effect: non-scaling-stroke; stroke: #202020" transform="scale(1,-0.042037)"/>
<text x="0" y="-168" style="fill: #ffffff; stroke: none; font-size: 12px; text-anchor: end">4000.</text>
<polyline points="0,0 0,-200" style="vector-effect: non-scaling-stroke; stroke: #202020" transform="scale(0.196721,1)"/>
<text x="0" y="10" style="fill: #ffffff; stroke: none; font-size: 12px; text-anchor: start" transform="rotate(45,0,0)">04:03:24</text>
<polyline points="366,0 366,-200" style="vector-effect: non-scaling-stroke; stroke: #202020" transform="scale(0.196721,1)"/>
<text x="72" y="10" style="fill: #ffffff; stroke: none; font-size: 12px; text-anchor: start" transform="rotate(45,72,0)">04:09:30</text>
<polyline points="732,0 732,-200" style="vector-effect: non-scaling-stroke; stroke: #202020" transform="scale(0.196721,1)"/>
<text x="144" y="10" style="fill: #ffffff; stroke: none; font-size: 12px; text-anchor: start" transform="rotate(45,144,0)">04:15:36</text>
<polyline points="1098,0 1098,-200" style="vector-effect: non-scaling-stroke; stroke: #202020" transform="scale(0.196721,1)"/>
<text x="216" y="10" style="fill: #ffffff; stroke: none; font-size: 12px; text-anchor: start" transform="rotate(45,216,0)">04:21:42</text>
<polyline points="1464,0 1464,-200" style="vector-effect: non-scaling-stroke; stroke: #202020" transform="scale(0.196721,1)"/>
<text x="288" y="10" style="fill: #ffffff; stroke: none; font-size: 12px; text-anchor: start" transform="rotate(45,288,0)">04:27:48</text>
<polyline points="1830,0 1830,-200" style="vector-effect: non-scaling-stroke; stroke: #202020" transform="scale(0.196721,1)"/>
<text x="360" y="10" style="fill: #ffffff; stroke: none; font-size: 12px; text-anchor: start" transform="rotate(45,360,0)">04:33:54</text>
<polyline points="2196,0 2196,-200" style="vector-effect: non-scaling-stroke; stroke: #202020" transform="scale(0.196721,1)"/>
<text x="432" y="10" style="fill: #ffffff; stroke: none; font-size: 12px; text-anchor: start" transform="rotate(45,432,0)">04:40:00</text>
<polyline points="2562,0 2562,-200" style="vector-effect: non-scaling-stroke; stroke: #202020" transform="scale(0.196721,1)"/>
<text x="504" y="10" style="fill: #ffffff; stroke: none; font-size: 12px; text-anchor: start" transform="rotate(45,504,0)">04:46:06</text>
<polyline points="2928,0 2928,-200" style="vector-effect: non-scaling-stroke; stroke: #202020" transform="scale(0.196721,1)"/>
<text x="576" y="10" style="fill: #ffffff; stroke: none; font-size: 12px; text-anchor: start" transform="rotate(45,576,0)">04:52:12</text>
<polyline points="3294,0 3294,-200" style="vector-effect: non-scaling-stroke; stroke: #202020" transform="scale(0.196721,1)"/>
<text x="648" y="10" style="fill: #ffffff; stroke: none; font-size: 12px; text-anchor: start" transform="rotate(45,648,0)">04:58:18</text>
<polyline points="3660,0 3660,-200" style="vector-effect: non-scaling-stroke; stroke: #202020" transform="scale(0.196721,1)"/>
<text x="720" y="10" style="fill: #ffffff; stroke: none; font-size: 12px; text-anchor: start" transform="rotate(45,720,0)">05:04:24</text>
<text x="-10" y="30" style="fill: #ffff00; stroke: none; font-size: 12px; text-anchor: end">UTC</text>
<path d=" M60,2702.94 L120,2998.23 L180,4392.18 L240,2958.09 L300,4455.52 L360,3172.06 L420,4558.82 L480,2993.75 L540,4236.48 L600,3099.16 L660,4305.97 L720,3375.68 L780,4022.29 L840,3685.24 L900,3716.60 L960,4027.78 L1020,3348.33 L1080,4566.21 L1140,3316.19 L1200,4743.80 L1260,2617.44 L1320,4586.49 L1380,3139.70 L1440,4618.66 L1500,2982.57 L1560,4667.00 L1620,3358.30 L1680,3959.73 L1740,3777.84 L1800,3506.69 L1860,4127.93 L1920,3684.54 L1980,4432.40 L2040,3291.11 L2100,4757.76 L2160,2921.57 L2220,4651.97 L2280,3221.15 L2340,4078.98 L2400,3303.48 L2460,4368.41 L2520,3555.56 L2580,4272.30 L2640,3670.08 L2700,3546.70 L2760,4135.74 L2820,3496.48 L2880,4557.56 L2940,2797.27 L3000,4555.94 L3060,3146.68 L3120,4649.30 L3180,2984.55 L3240,4706.60 L3300,2982.66 L3360,4531.66 L3420,3240.12 L3480,3979.42 L3540,3301.72 L3600,4431.92 L3660,3575.44" style="vector-effect: non-scaling-stroke; stroke: #00ffff; stroke-width: 1; fill-opacity: 0" transform="scale(0.196721,-0.042037)"/>
<path d=" M60,2702.94 L120,2998.23 L180,4392.18 L240,2958.09 L300,4455.52 L360,3172.06 L420,4558.82 L480,2993.75 L540,4236.48 L600,3099.16 L660,4305.97 L720,3375.68 L780,4022.29 L840,3685.24 L900,3716.60 L960,4027.78 L1020,3348.33 L1080,4566.21 L1140,3316.19 L1200,4743.80 L1260,2617.44 L1320,4586.49 L1380,3139.70 L1440,4618.66 L1500,2982.57 L1560,4667.00 L1620,3358.30 L1680,3959.73 L1740,3777.84 L1800,3506.69 L1860,4127.93 L1920,3684.54 L1980,4432.40 L2040,3291.11 L2100,4757.76 L2160,2921.57 L2220,4651.97 L2280,3221.15 L2340,4078.98 L2400,3303.48 L2460,4368.41 L2520,3555.56 L2580,4272.30 L2640,3670.08 L2700,3546.70 L2760,4135.74 L2820,3496.48 L2880,4557.56 L2940,2797.27 L3000,4555.94 L3060,3146.68 L3120,4649.30 L3180,2984.55 L3240,4706.60 L3300,2982.66 L3360,4531.66 L3420,3240.12 L3480,3979.42 L3540,3301.72 L3600,4431.92 L3660,3575.44" style="vector-effect: non-scaling-stroke; stroke: #ff0000; stroke-width: 1; fill-opacity: 0" transform="scale(0.196721,-0.042037)"/>
</g>
<rect x="0" y="620" height="300" width="1050" fill="#000000"/>
<text x="0" y="640" style="fill: #ffff00; stroke: none">Network interfaces statistics (3) [lo]
<tspan x="795" y="645" style="fill: #ffff00; stroke: none; font-size: 12px">(Min, Max values)</tspan>
</text>
<polyline points="70,670 70,870 790,870" style="fill: #000000; stroke: #ffffff; stroke-width: 2"/>
<text x="795" y="670" style="fill: #e85f00; stroke: none; font-size: 12px">rxcmp/s (0.00, 0.00)</text>
<text x="795" y="685" style="fill: #0000ff; stroke: none; font-size: 12px">txcmp/s (0.00, 0.00)</text>
<text x="795" y="700" style="fill: #006020; stroke: none; font-size: 12px">rxmcst/s (0.00, 0.00)</text>
<g transform="translate(70,870)">
<text x="0" y="0" style="fill: #ffffff; stroke: none; font-size: 12px; text-anchor: end">0.00.</text>
<polyline points="0,0.33 720,0.33" style="vector-effect: non-scaling-stroke; stroke: #202020" transform="scale(1,-200.000000)"/>
<text x="0" y="-66" style="fill: #ffffff; stroke: none; font-size: 12px; text-anchor: end">0.33.</text>
<polyline points="0,0.67 720,0.67" style="vector-effect: non-scaling-stroke; stroke: #202020" transform="scale(1,-200.000000)"/>
<text x="0" y="-134" style="fill: #ffffff; stroke: none; font-size: 12px; text-anchor: end">0.67.</text>
<polyline points="0,1.00 720,1.00" style="vector-effect: non-scaling-stroke; stroke: #202020" transform="scale(1,-200.000000)"/>
<text x="0" y="-200" style="fill: #ffffff; stroke: none; font-size: 12px; text-anchor: end">1.00.</text>
<polyline points="0,0 0,-200" style="vector-effect: non-scaling-stroke; stroke: #202020" transform="scale(0.196721,1)"/>
<text x="0" y="10" style="fill: #ffffff; stroke: none; font-size: 12px; text-anchor: start" transform="rotate(45,0,0)">04:03:24</text>
<polyline points="366,0 366,-200" style="vector-effect: non-scaling-stroke; stroke: #202020" transform="scale(0.196721,1)"/>
<text x="72" y="10" style="fill: #ffffff; stroke: none; font-size: 12px; text-anchor: start" transform="rotate(45,72,0)">04:09:30</text>
<polyline points="732,0 732,-200" style="vector-effect: non-scaling-stroke; stroke: #202020" transform="scale(0.196721,1)"/>
<text x="144" y="10" style="fill: #ffffff; stroke: none; font-size: 12px; text-anchor: start" transform="rotate(45,144,0)">04:15:36</text>
<polyline points="1098,0 1098,-200" style="vector-effect: non-scaling-stroke; stroke: #202020" transform="scale(0.196721,1)"/>
<text x="216" y="10" style="fill: #ffffff; stroke: none; font-size: 12px; text-anchor: start" transform="rotate(45,216,0)">04:21:42</text>
<polyline points="1464,0 1464,-200" style="vector-effect: non-scaling-stroke; stroke: #202020" transform="scale(0.196721,1)"/>
<text x="288" y="10" style="fill: #ffffff; stroke: none; font-size: 12px; text-anchor: start" transform="rotate(45,288,0)">04:27:48</text>
<polyline points="1830,0 1830,-200" style="vector-effect: non-scaling-stroke; stroke: #202020" transform="scale(0.196721,1)"/>
<text x="360" y="10" style="fill: #ffffff; stroke: none; font-size: 12px; text-anchor: start" transform="rotate(45,360,0)">04:33:54</text>
<polyline points="2196,0 2196,-200" style="vector-effect: non-scaling-stroke; stroke: #202020" transform="scale(0.196721,1)"/>
<text x="432" y="10" style="fill: #ffffff; stroke: none; font-size: 12px; text-anchor: start" transform="rotate(45,432,0)">04:40:00</text>
<polyline points="2562,0 2562,-200" style="vector-effect: non-scaling-stroke; stroke: #202020" transform="scale(0.196721,1)"/>
<text x="504" y="10" style="fill: #ffffff; stroke: none; font-size: 12px; text-anchor: start" transform="rotate(45,504,0)">04:46:06</text>
<polyline points="2928,0 2928,-200" style="vector-effect: non-scaling-stroke; stroke: #202020" transform="scale(0.196721,1)"/>
<text x="576" y="10" style="fill: #ffffff; stroke: none; font-size: 12px; text-anchor: start" transform="rotate(45,576,0)">04:52:12</text>
<polyline points="3294,0 3294,-200" style="vector-effect: non-scaling-stroke; stroke: #202020" transform="scale(0.196721,1)"/>
<text x="648" y="10" style="fill: #ffffff; stroke: none; font-size: 12px; text-anchor: start" transform="rotate(45,648,0)">04:58:18</text>
<polyline points="3660,0 3660,-200" style="vector-effect: non-scaling-stroke; stroke: #202020" transform="scale(0.196721,1)"/>
<text x="720" y="10" style="fill: #ffffff; stroke: none; font-size: 12px; text-anchor: start" transform="rotate(45,720,0)">05:04:24</text>
<text x="-10" y="30" style="fill: #ffff00; stroke: none; font-size: 12px; text-anchor: end">UTC</text>
<path d=" M60,0.00 L120,0.00 L180,0.00 L240,0.00 L300,0.00 L360,0.00 L420,0.00 L480,0.00 L540,0.00 L600,0.00 L660,0.00 L720,0.00 L780,0.00 L840,0.00 L900,0.00 L960,0.00 L1020,0.00 L1080,0.00 L1140,0.00 L1200,0.00 L1260,0.00 L1320,0.00 L1380,0.00 L1440,0.00 L1500,0.00 L1560,0.00 L1620,0.00 L1680,0.00 L1740,0.00 L1800,0.00 L1860,0.00 L1920,0.00 L1980,0.00 L2040,0.00 L2100,0.00 L2160,0.00 L2220,0.00 L2280,0.00 L2340,0.00 L2400,0.00 L2460,0.00 L2520,0.00 L2580,0.00 L2640,0.00 L2700,0.00 L2760,0.00 L2820,0.00 L2880,0.00 L2940,0.00 L3000,0.00 L3060,0.00 L3120,0.00 L3180,0.00 L3240,0.00 L3300,0.00 L3360,0.00 L3420,0.00 L3480,0.00 L3540,0.00 L3600,0.00 L3660,0.00" style="vector-effect: non-scaling-stroke; stroke: #e85f00; stroke-width: 1; fill-opacity: 0" transform="scale(0.196721,-200.000000)"/>
<path d=" M60,0.00 L120,0.00 L180,0.00 L240,0.00 L300,0.00 L360,0.00 L420,0.00 L480,0.00 L540,0.00 L600,0.00 L660,0.00 L720,0.00 L780,0.00 L840,0.00 L900,0.00 L960,0.00 L1020,0.00 L1080,0.00 L1140,0.00 L1200,0.00 L1260,0.00 L1320,0.00 L1380,0.00 L1440,0.00 L1500,0.00 L1560,0.00 L1620,0.00 L1680,0.00 L1740,0.00 L1800,0.00 L1860,0.00 L1920,0.00 L1980,0.00 L2040,0.00 L2100,0.00 L2160,0.00 L2220,0.00 L2280,0.00 L2340,0.00 L2400,0.00 L2460,0.00 L2520,0.00 L2580,0.00 L2640,0.00 L2700,0.00 L2760,0.00 L2820,0.00 L2880,0.00 L2940,0.00 L3000,0.00 L3060,0.00 L3120,0.00 L3180,0.00 L3240,0.00 L3300,0.00 L3360,0.00 L3420,0.00 L3480,0.00 L3540,0.00 L3600,0.00 L3660,0.00" style="vector-effect: non-scaling-stroke; stroke: #0000ff; stroke-width: 1; fill-opacity: 0" transform="scale(0.196721,-200.000000)"/>
<path d=" M60,0.00 L120,0.00 L180,0.00 L240,0.00 L300,0.00 L360,0.00 L420,0.00 L480,0.00 L540,0.00 L600,0.00 L660,0.00 L720,0.00 L780,0.00 L840,0.00 L900,0.00 L960,0.00 L1020,0.00 L1080,0.00 L1140,0.00 L1200,0.00 L1260,0.00 L1320,0.00 L1380,0.00 L1440,0.00 L1500,0.00 L1560,0.00 L1620,0.00 L1680,0.00 L1740,0.00 L1800,0.00 L1860,0.00 L1920,0.00 L1980,0.00 L2040,0.00 L2100,0.00 L2160,0.00 L2220,0.00 L2280,0.00 L2340,0.00 L2400,0.00 L2460,0.00 L2520,0.00 L2580,0.00 L2640,0.00 L2700,0.00 L2760,0.00 L2820,0.00 L2880,0.00 L2940,0.00 L3000,0.00 L3060,0.00 L3120,0.00 L3180,0.00 L3240,0.00 L3300,0.00 L3360,0.00 L3420,0.00 L3480,0.00 L3540,0.00 L3600,0.00 L3660,0.00" style="vector-effect: non-scaling-stroke; stroke: #006020; stroke-width: 1; fill-opacity: 0" transform="scale(0.196721,-200.000000)"/>
</g>
<rect x="0" y="930" height="300" width="1050" fill="#000000"/>
<text x="0" y="950" style="fill: #ffff00; stroke: none">Network interfaces statistics (4) [lo]
<tspan x="795" y="955" style="fill: #ffff00; stroke: none; font-size: 12px">(Min, Max values)</tspan>
</text>
<polyline points="70,980 70,1180 790,1180" style="fill: #000000; stroke: #ffffff; stroke-width: 2"/>
<text x="795" y="980" style="fill: #7030a0; stroke: none; font-size: 12px">%ifutil (0.00, 0.00)</text>
<g transform="translate(70,1180)">
<text x="0" y="0" style="fill: #ffffff; stroke: none; font-size: 12px; text-anchor: end">0.</text>
<polyline points="0,25.00 720,25.00" style="vector-effect: non-scaling-stroke; stroke: #202020" transform="scale(1,-2.000000)"/>
<text x="0" y="-50" style="fill: #ffffff; stroke: none; font-size: 12px; text-anchor: end">25.</text>
<polyline points="0,50.00 720,50.00" style="vector-effect: non-scaling-stroke; stroke: #202020" transform="scale(1,-2.000000)"/>
<text x="0" y="-100" style="fill: #ffffff; stroke: none; font-size: 12px; text-anchor: end">50.</text>
<polyline points="0,75.00 720,75.00" style="vector-effect: non-scaling-stroke; stroke: #202020" transform="scale(1,-2.000000)"/>
<text x="0" y="-150" style="fill: #ffffff; stroke: none; font-size: 12px; text-anchor: end">75.</text>
<polyline points="0,100.00 720,100.00" style="vector-effect: non-scaling-stroke; stroke: #202020" transform="scale(1,-2.000000)"/>
<text x="0" y="-200" style="fill: #ffffff; stroke: none; font-size: 12px; text-anchor: end">100.</text>
<polyline points="0,0 0,-200" style="vector-effect: non-scaling-stroke; stroke: #202020" transform="scale(0.196721,1)"/>
<text x="0" y="10" style="fill: #ffffff; stroke: none; font-size: 12px; text-anchor: start" transform="rotate(45,0,0)">04:03:24</text>
<polyline points="366,0 366,-200" style="vector-effect: non-scaling-stroke; stroke: #202020" transform="scale(0.196721,1)"/>
<text x="72" y="10" style="fill: #ffffff; stroke: none; font-size: 12px; text-anchor: start" transform="rotate(45,72,0)">04:09:30</text>
<polyline points="732,0 732,-200" style="vector-effect: non-scaling-stroke; stroke: #202020" transform="scale(0.196721,1)"/>
<text x="144" y="10" style="fill: #ffffff; stroke: none; font-size: 12px; text-anchor: start" transform="rotate(45,144,0)">04:15:36</text>
<polyline points="1098,0 1098,-200" style="vector-effect: non-scaling-stroke; stroke: #202020" transform="scale(0.196721,1)"/>
<text x="216" y="10" style="fill: #ffffff; stroke: none; font-size: 12px; text-anchor: start" transform="rotate(45,216,0)">04:21:42</text>
<polyline points="1464,0 1464,-200" style="vector-effect: non-scaling-stroke; stroke: #202020" transform="scale(0.196721,1)"/>
<text x="288" y="10" style="fill: #ffffff; stroke: none; font-size: 12px; text-anchor: start" transform="rotate(45,288,0)">04:27:48</text>
<polyline points="1830,0 1830,-200" style="vector-effect: non-scaling-stroke; stroke: #202020" transform="scale(0.196721,1)"/>
<text x="360" y="10" style="fill: #ffffff; stroke: none; font-size: 12px; text-anchor: start" transform="rotate(45,360,0)">04:33:54</text>
<polyline points="2196,0 2196,-200" style="vector-effect: non-scaling-stroke; stroke: #202020" transform="scale(0.196721,1)"/>
<text x="432" y="10" style="fill: #ffffff; stroke: none; font-size: 12px; text-anchor: start" transform="rotate(45,432,0)">04:40:00</text>
<polyline points="2562,0 2562,-200" style="vector-effect: non-scaling-stroke; stroke: #202020" transform="scale(0.196721,1)"/>
<text x="504" y="10" style="fill: #ffffff; stroke: none; font-size: 12px; text-anchor: start" transform="rotate(45,504,0)">04:46:06</text>
<polyline points="2928,0 2928,-200" style="vector-effect: non-scaling-stroke; stroke: #202020" transform="scale(0.196721,1)"/>
<text x="576" y="10" style="fill: #ffffff; stroke: none; font-size: 12px; text-anchor: start" transform="rotate(45,576,0)">04:52:12</text>
<polyline points="3294,0 3294,-200" style="vector-effect: non-scaling-stroke; stroke: #202020" transform="scale(0.196721,1)"/>
<text x="648" y="10" style="fill: #ffffff; stroke: none; font-size: 12px; text-anchor: start" transform="rotate(45,648,0)">04:58:18</text>
<polyline points="3660,0 3660,-200" style="vector-effect: non-scaling-stroke; stroke: #202020" transform="scale(0.196721,1)"/>
<text x="720" y="10" style="fill: #ffffff; stroke: none; font-size: 12px; text-anchor: start" transform="rotate(45,720,0)">05:04:24</text>
<text x="-10" y="30" style="fill: #ffff00; stroke: none; font-size: 12px; text-anchor: end">UTC</text>
</g>
</g>
<g id="g12-1" transform="translate(0,1300)">
<rect x="0" y="0" height="300" width="1050" fill="#000000"/>
<text x="0" y="20" style="fill: #ffff00; stroke: none">Network interfaces statistics (1) [ens5]
<tspan x="795" y="25" style="fill: #ffff00; stroke: none; font-size: 12px">(Min, Max values)</tspan>
</text>
<polyline points="70,50 70,250 790,250" style="fill: #000000; stroke: #ffffff; stroke-width: 2"/>
<text x="795" y="50" style="fill: #00cc00; stroke: none; font-size: 12px">rxpck/s (0.22, 16.97)</text>
<text x="795" y="65" style="fill: #ff00bf; stroke: none; font-size: 12px">txpck/s (0.22, 37.10)</text>
<g transform="translate(70,250)">
<text x="0" y="0" style="fill: #ffffff; stroke: none; font-size: 12px; text-anchor: end">0.</text>
<polyline points="0,10.00 720,10.00" style="vector-effect: non-scaling-stroke; stroke: #202020" transform="scale(1,-5.390836)"/>
<text x="0" y="-53" style="fill: #ffffff; stroke: none; font-size: 12px; text-anchor: end">10.</text>
<polyline points="0,20.00 720,20.00" style="vector-effect: non-scaling-stroke; stroke: #202020" transform="scale(1,-5.390836)"/>
<text x="0" y="-107" style="fill: #ffffff; stroke: none; font-size: 12px; text-anchor: end">20.</text>
<polyline points="0,30.00 720,30.00" style="vector-effect: non-scaling-stroke; stroke: #202020" transform="scale(1,-5.390836)"/>
<text x="0" y="-161" style="fill: #ffffff; stroke: none; font-size: 12px; text-anchor: end">30.</text>
<polyline points="0,0 0,-200" style="vector-effect: non-scaling-stroke; stroke: #202020" transform="scale(0.196721,1)"/>
<text x="0" y="10" style="fill: #ffffff; stroke: none; font-size: 12px; text-anchor: start" transform="rotate(45,0,0)">04:03:24</text>
<polyline points="366,0 366,-200" style="vector-effect: non-scaling-stroke; stroke: #202020" transform="scale(0.196721,1)"/>
<text x="72" y="10" style="fill: #ffffff; stroke: none; font-size: 12px; text-anchor: start" transform="rotate(45,72,0)">04:09:30</text>
<polyline points="732,0 732,-200" style="vector-effect: non-scaling-stroke; stroke: #202020" transform="scale(0.196721,1)"/>
<text x="144" y="10" style="fill: #ffffff; stroke: none; font-size: 12px; text-anchor: start" transform="rotate(45,144,0)">04:15:36</text>
<polyline points="1098,0 1098,-200" style="vector-effect: non-scaling-stroke; stroke: #202020" transform="scale(0.196721,1)"/>
<text x="216" y="10" style="fill: #ffffff; stroke: none; font-size: 12px; text-anchor: start" transform="rotate(45,216,0)">04:21:42</text>
<polyline points="1464,0 1464,-200" style="vector-effect: non-scaling-stroke; stroke: #202020" transform="scale(0.196721,1)"/>
<text x="288" y="10" style="fill: #ffffff; stroke: none; font-size: 12px; text-anchor: start" transform="rotate(45,288,0)">04:27:48</text>
<polyline points="1830,0 1830,-200" style="vector-effect: non-scaling-stroke; stroke: #202020" transform="scale(0.196721,1)"/>
<text x="360" y="10" style="fill: #ffffff; stroke: none; font-size: 12px; text-anchor: start" transform="rotate(45,360,0)">04:33:54</text>
<polyline points="2196,0 2196,-200" style="vector-effect: non-scaling-stroke; stroke: #202020" transform="scale(0.196721,1)"/>
<text x="432" y="10" style="fill: #ffffff; stroke: none; font-size: 12px; text-anchor: start" transform="rotate(45,432,0)">04:40:00</text>
<polyline points="2562,0 2562,-200" style="vector-effect: non-scaling-stroke; stroke: #202020" transform="scale(0.196721,1)"/>
<text x="504" y="10" style="fill: #ffffff; stroke: none; font-size: 12px; text-anchor: start" transform="rotate(45,504,0)">04:46:06</text>
<polyline points="2928,0 2928,-200" style="vector-effect: non-scaling-stroke; stroke: #202020" transform="scale(0.196721,1)"/>
<text x="576" y="10" style="fill: #ffffff; stroke: none; font-size: 12px; text-anchor: start" transform="rotate(45,576,0)">04:52:12</text>
<polyline points="3294,0 3294,-200" style="vector-effect: non-scaling-stroke; stroke: #202020" transform="scale(0.196721,1)"/>
<text x="648" y="10" style="fill: #ffffff; stroke: none; font-size: 12px; text-anchor: start" transform="rotate(45,648,0)">04:58:18</text>
<polyline points="3660,0 3660,-200" style="vector-effect: non-scaling-stroke; stroke: #202020" transform="scale(0.196721,1)"/>
<text x="720" y="10" style="fill: #ffffff; stroke: none; font-size: 12px; text-anchor: start" transform="rotate(45,720,0)">05:04:24</text>
<text x="-10" y="30" style="fill: #ffff00; stroke: none; font-size: 12px; text-anchor: end">UTC</text>
<path d=" M60,6.10 L120,13.80 L180,16.97 L240,3.68 L300,1.83 L360,1.37 L420,3.10 L480,2.62 L540,1.33 L600,1.30 L660,1.28 L720,1.30 L780,2.07 L840,0.90 L900,0.38 L960,0.80 L1020,0.37 L1080,1.12 L1140,0.37 L1200,0.32 L1260,0.33 L1320,0.23 L1380,1.10 L1440,0.67 L1500,0.37 L1560,0.32 L1620,0.32 L1680,1.10 L1740,0.38 L1800,5.00 L1860,2.57 L1920,2.13 L1980,2.30 L2040,1.62 L2100,1.28 L2160,1.22 L2220,1.22 L2280,1.62 L2340,0.28 L2400,0.22 L2460,0.22 L2520,0.25 L2580,1.05 L2640,0.58 L2700,0.28 L2760,0.68 L2820,0.87 L2880,1.12 L2940,0.28 L3000,0.27 L3060,0.43 L3120,0.22 L3180,1.00 L3240,0.57 L3300,0.28 L3360,0.27 L3420,0.23 L3480,1.03 L3540,0.30 L3600,4.52 L3660,2.35" style="vector-effect: non-scaling-stroke; stroke: #00cc00; stroke-width: 1; fill-opacity: 0" transform="scale(0.196721,-5.390836)"/>
<path d=" M60,10.42 L120,14.43 L180,37.10 L240,3.95 L300,1.87 L360,1.38 L420,8.77 L480,2.75 L540,1.35 L600,1.32 L660,1.30 L720,1.33 L780,2.12 L840,0.92 L900,0.38 L960,0.82 L1020,0.37 L1080,1.15 L1140,0.38 L1200,0.33 L1260,0.37 L1320,0.25 L1380,1.20 L1440,0.68 L1500,0.37 L1560,0.33 L1620,0.33 L1680,1.22 L1740,0.40 L1800,17.37 L1860,2.58 L1920,2.13 L1980,2.38 L2040,1.68 L2100,1.30 L2160,1.23 L2220,1.23 L2280,1.80 L2340,0.35 L2400,0.23 L2460,0.23 L2520,0.28 L2580,1.18 L2640,0.60 L2700,0.28 L2760,0.73 L2820,0.87 L2880,1.12 L2940,0.30 L3000,0.28 L3060,0.45 L3120,0.22 L3180,1.03 L3240,0.58 L3300,0.27 L3360,0.27 L3420,0.23 L3480,1.07 L3540,0.30 L3600,17.35 L3660,2.42" style="vector-effect: non-scaling-stroke; stroke: #ff00bf; stroke-width: 1; fill-opacity: 0" transform="scale(0.196721,-5.390836)"/>
</g>
<rect x="0" y="310" height="300" width="1050" fill="#000000"/>
<text x="0" y="330" style="fill: #ffff00; stroke: none">Network interfaces statistics (2) [ens5]
<tspan x="795" y="335" style="fill: #ffff00; stroke: none; font-size: 12px">(Min, Max values)</tspan>
</text>
<polyline points="70,360 70,560 790,560" style="fill: #000000; stroke: #ffffff; stroke-width: 2"/>
<text x="795" y="360" style="fill: #00ffff; stroke: none; font-size: 12px">rxkB/s (0.02, 2.29)</text>
<text x="795" y="375" style="fill: #ff0000; stroke: none; font-size: 12px">txkB/s (0.03, 38.43)</text>
<g transform="translate(70,560)">
<text x="0" y="0" style="fill: #ffffff; stroke: none; font-size: 12px; text-anchor: end">0.</text>
<polyline points="0,10.00 720,10.00" style="vector-effect: non-scaling-stroke; stroke: #202020" transform="scale(1,-5.204458)"/>
<text x="0" y="-52" style="fill: #ffffff; stroke: none; font-size: 12px; text-anchor: end">10.</text>
<polyline points="0,20.00 720,20.00" style="vector-effect: non-scaling-stroke; stroke: #202020" transform="scale(1,-5.204458)"/>
<text x="0" y="-104" style="fill: #ffffff; stroke: none; font-size: 12px; text-anchor: end">20.</text>
<polyline points="0,30.00 720,30.00" style="vector-effect: non-scaling-stroke; stroke: #202020" transform="scale(1,-5.204458)"/>
<text x="0" y="-156" style="fill: #ffffff; stroke: none; font-size: 12px; text-anchor: end">30.</text>
<polyline points="0,0 0,-200" style="vector-effect: non-scaling-stroke; stroke: #202020" transform="scale(0.196721,1)"/>
<text x="0" y="10" style="fill: #ffffff; stroke: none; font-size: 12px; text-anchor: start" transform="rotate(45,0,0)">04:03:24</text>
<polyline points="366,0 366,-200" style="vector-effect: non-scaling-stroke; stroke: #202020" transform="scale(0.196721,1)"/>
<text x="72" y="10" style="fill: #ffffff; stroke: none; font-size: 12px; text-anchor: start" transform="rotate(45,72,0)">04:09:30</text>
<polyline points="732,0 732,-200" style="vector-effect: non-scaling-stroke; stroke: #202020" transform="scale(0.196721,1)"/>
<text x="144" y="10" style="fill: #ffffff; stroke: none; font-size: 12px; text-anchor: start" transform="rotate(45,144,0)">04:15:36</text>
<polyline points="1098,0 1098,-200" style="vector-effect: non-scaling-stroke; stroke: #202020" transform="scale(0.196721,1)"/>
<text x="216" y="10" style="fill: #ffffff; stroke: none; font-size: 12px; text-anchor: start" transform="rotate(45,216,0)">04:21:42</text>
<polyline points="1464,0 1464,-200" style="vector-effect: non-scaling-stroke; stroke: #202020" transform="scale(0.196721,1)"/>
<text x="288" y="10" style="fill: #ffffff; stroke: none; font-size: 12px; text-anchor: start" transform="rotate(45,288,0)">04:27:48</text>
<polyline points="1830,0 1830,-200" style="vector-effect: non-scaling-stroke; stroke: #202020" transform="scale(0.196721,1)"/>
<text x="360" y="10" style="fill: #ffffff; stroke: none; font-size: 12px; text-anchor: start" transform="rotate(45,360,0)">04:33:54</text>
<polyline points="2196,0 2196,-200" style="vector-effect: non-scaling-stroke; stroke: #202020" transform="scale(0.196721,1)"/>
<text x="432" y="10" style="fill: #ffffff; stroke: none; font-size: 12px; text-anchor: start" transform="rotate(45,432,0)">04:40:00</text>
<polyline points="2562,0 2562,-200" style="vector-effect: non-scaling-stroke; stroke: #202020" transform="scale(0.196721,1)"/>
<text x="504" y="10" style="fill: #ffffff; stroke: none; font-size: 12px; text-anchor: start" transform="rotate(45,504,0)">04:46:06</text>
<polyline points="2928,0 2928,-200" style="vector-effect: non-scaling-stroke; stroke: #202020" transform="scale(0.196721,1)"/>
<text x="576" y="10" style="fill: #ffffff; stroke: none; font-size: 12px; text-anchor: start" transform="rotate(45,576,0)">04:52:12</text>
<polyline points="3294,0 3294,-200" style="vector-effect: non-scaling-stroke; stroke: #202020" transform="scale(0.196721,1)"/>
<text x="648" y="10" style="fill: #ffffff; stroke: none; font-size: 12px; text-anchor: start" transform="rotate(45,648,0)">04:58:18</text>
<polyline points="3660,0 3660,-200" style="vector-effect: non-scaling-stroke; stroke: #202020" transform="scale(0.196721,1)"/>
<text x="720" y="10" style="fill: #ffffff; stroke: none; font-size: 12px; text-anchor: start" transform="rotate(45,720,0)">05:04:24</text>
<text x="-10" y="30" style="fill: #ffff00; stroke: none; font-size: 12px; text-anchor: end">UTC</text>
<path d=" M60,1.01 L120,2.04 L180,2.29 L240,0.46 L300,0.14 L360,0.11 L420,0.33 L480,0.30 L540,0.10 L600,0.10 L660,0.10 L720,0.10 L780,0.28 L840,0.19 L900,0.06 L960,0.21 L1020,0.05 L1080,0.23 L1140,0.06 L1200,0.05 L1260,0.05 L1320,0.04 L1380,0.23 L1440,0.17 L1500,0.05 L1560,0.05 L1620,0.05 L1680,0.23 L1740,0.06 L1800,0.91 L1860,0.25 L1920,0.14 L1980,0.32 L2040,0.21 L2100,0.08 L2160,0.08 L2220,0.08 L2280,0.23 L2340,0.03 L2400,0.03 L2460,0.02 L2520,0.03 L2580,0.20 L2640,0.15 L2700,0.03 L2760,0.19 L2820,0.27 L2880,0.21 L2940,0.03 L3000,0.03 L3060,0.08 L3120,0.02 L3180,0.20 L3240,0.15 L3300,0.03 L3360,0.03 L3420,0.03 L3480,0.20 L3540,0.03 L3600,0.86 L3660,0.21" style="vector-effect: non-scaling-stroke; stroke: #00ffff; stroke-width: 1; fill-opacity: 0" transform="scale(0.196721,-5.204458)"/>
<path d=" M60,8.79 L120,3.74 L180,38.43 L240,1.32 L300,0.29 L360,0.15 L420,9.57 L480,0.33 L540,0.15 L600,0.15 L660,0.15 L720,0.15 L780,0.29 L840,0.19 L900,0.09 L960,0.18 L1020,0.09 L1080,0.23 L1140,0.09 L1200,0.08 L1260,0.09 L1320,0.06 L1380,0.23 L1440,0.17 L1500,0.09 L1560,0.08 L1620,0.08 L1680,0.23 L1740,0.09 L1800,21.83 L1860,0.37 L1920,0.20 L1980,0.31 L2040,0.21 L2100,0.10 L2160,0.10 L2220,0.10 L2280,0.23 L2340,0.04 L2400,0.04 L2460,0.04 L2520,0.04 L2580,0.19 L2640,0.12 L2700,0.04 L2760,0.14 L2820,0.21 L2880,0.18 L2940,0.04 L3000,0.04 L3060,0.12 L3120,0.03 L3180,0.18 L3240,0.12 L3300,0.04 L3360,0.04 L3420,0.04 L3480,0.18 L3540,0.04 L3600,21.80 L3660,0.32" style="vector-effect: non-scaling-stroke; stroke: #ff0000; stroke-width: 1; fill-opacity: 0" transform="scale(0.196721,-5.204458)"/>
</g>
<rect x="0" y="620" height="300" width="1050" fill="#000000"/>
<text x="0" y="640" style="fill: #ffff00; stroke: none">Network interfaces statistics (3) [ens5]
<tspan x="795" y="645" style="fill: #ffff00; stroke: none; font-size: 12px">(Min, Max values)</tspan>
</text>
<polyline points="70,670 70,870 790,870" style="fill: #000000; stroke: #ffffff; stroke-width: 2"/>
<text x="795" y="670" style="fill: #e85f00; stroke: none; font-size: 12px">rxcmp/s (0.00, 0.00)</text>
<text x="795" y="685" style="fill: #0000ff; stroke: none; font-size: 12px">txcmp/s (0.00, 0.00)</text>
<text x="795" y="700" style="fill: #006020; stroke: none; font-size: 12px">rxmcst/s (0.00, 0.00)</text>
<g transform="translate(70,870)">
<text x="0" y="0" style="fill: #ffffff; stroke: none; font-size: 12px; text-anchor: end">0.00.</text>
<polyline points="0,0.33 720,0.33" style="vector-effect: non-scaling-stroke; stroke: #202020" transform="scale(1,-200.000000)"/>
<text x="0" y="-66" style="fill: #ffffff; stroke: none; font-size: 12px; text-anchor: end">0.33.</text>
<polyline points="0,0.67 720,0.67" style="vector-effect: non-scaling-stroke; stroke: #202020" transform="scale(1,-200.000000)"/>
<text x="0" y="-134" style="fill: #ffffff; stroke: none; font-size: 12px; text-anchor: end">0.67.</text>
<polyline points="0,1.00 720,1.00" style="vector-effect: non-scaling-stroke; stroke: #202020" transform="scale(1,-200.000000)"/>
<text x="0" y="-200" style="fill: #ffffff; stroke: none; font-size: 12px; text-anchor: end">1.00.</text>
<polyline points="0,0 0,-200" style="vector-effect: non-scaling-stroke; stroke: #202020" transform="scale(0.196721,1)"/>
<text x="0" y="10" style="fill: #ffffff; stroke: none; font-size: 12px; text-anchor: start" transform="rotate(45,0,0)">04:03:24</text>
<polyline points="366,0 366,-200" style="vector-effect: non-scaling-stroke; stroke: #202020" transform="scale(0.196721,1)"/>
<text x="72" y="10" style="fill: #ffffff; stroke: none; font-size: 12px; text-anchor: start" transform="rotate(45,72,0)">04:09:30</text>
<polyline points="732,0 732,-200" style="vector-effect: non-scaling-stroke; stroke: #202020" transform="scale(0.196721,1)"/>
<text x="144" y="10" style="fill: #ffffff; stroke: none; font-size: 12px; text-anchor: start" transform="rotate(45,144,0)">04:15:36</text>
<polyline points="1098,0 1098,-200" style="vector-effect: non-scaling-stroke; stroke: #202020" transform="scale(0.196721,1)"/>
<text x="216" y="10" style="fill: #ffffff; stroke: none; font-size: 12px; text-anchor: start" transform="rotate(45,216,0)">04:21:42</text>
<polyline points="1464,0 1464,-200" style="vector-effect: non-scaling-stroke; stroke: #202020" transform="scale(0.196721,1)"/>
<text x="288" y="10" style="fill: #ffffff; stroke: none; font-size: 12px; text-anchor: start" transform="rotate(45,288,0)">04:27:48</text>
<polyline points="1830,0 1830,-200" style="vector-effect: non-scaling-stroke; stroke: #202020" transform="scale(0.196721,1)"/>
<text x="360" y="10" style="fill: #ffffff; stroke: none; font-size: 12px; text-anchor: start" transform="rotate(45,360,0)">04:33:54</text>
<polyline points="2196,0 2196,-200" style="vector-effect: non-scaling-stroke; stroke: #202020" transform="scale(0.196721,1)"/>
<text x="432" y="10" style="fill: #ffffff; stroke: none; font-size: 12px; text-anchor: start" transform="rotate(45,432,0)">04:40:00</text>
<polyline points="2562,0 2562,-200" style="vector-effect: non-scaling-stroke; stroke: #202020" transform="scale(0.196721,1)"/>
<text x="504" y="10" style="fill: #ffffff; stroke: none; font-size: 12px; text-anchor: start" transform="rotate(45,504,0)">04:46:06</text>
<polyline points="2928,0 2928,-200" style="vector-effect: non-scaling-stroke; stroke: #202020" transform="scale(0.196721,1)"/>
<text x="576" y="10" style="fill: #ffffff; stroke: none; font-size: 12px; text-anchor: start" transform="rotate(45,576,0)">04:52:12</text>
<polyline points="3294,0 3294,-200" style="vector-effect: non-scaling-stroke; stroke: #202020" transform="scale(0.196721,1)"/>
<text x="648" y="10" style="fill: #ffffff; stroke: none; font-size: 12px; text-anchor: start" transform="rotate(45,648,0)">04:58:18</text>
<polyline points="3660,0 3660,-200" style="vector-effect: non-scaling-stroke; stroke: #202020" transform="scale(0.196721,1)"/>
<text x="720" y="10" style="fill: #ffffff; stroke: none; font-size: 12px; text-anchor: start" transform="rotate(45,720,0)">05:04:24</text>
<text x="-10" y="30" style="fill: #ffff00; stroke: none; font-size: 12px; text-anchor: end">UTC</text>
<path d=" M60,0.00 L120,0.00 L180,0.00 L240,0.00 L300,0.00 L360,0.00 L420,0.00 L480,0.00 L540,0.00 L600,0.00 L660,0.00 L720,0.00 L780,0.00 L840,0.00 L900,0.00 L960,0.00 L1020,0.00 L1080,0.00 L1140,0.00 L1200,0.00 L1260,0.00 L1320,0.00 L1380,0.00 L1440,0.00 L1500,0.00 L1560,0.00 L1620,0.00 L1680,0.00 L1740,0.00 L1800,0.00 L1860,0.00 L1920,0.00 L1980,0.00 L2040,0.00 L2100,0.00 L2160,0.00 L2220,0.00 L2280,0.00 L2340,0.00 L2400,0.00 L2460,0.00 L2520,0.00 L2580,0.00 L2640,0.00 L2700,0.00 L2760,0.00 L2820,0.00 L2880,0.00 L2940,0.00 L3000,0.00 L3060,0.00 L3120,0.00 L3180,0.00 L3240,0.00 L3300,0.00 L3360,0.00 L3420,0.00 L3480,0.00 L3540,0.00 L3600,0.00 L3660,0.00" style="vector-effect: non-scaling-stroke; stroke: #e85f00; stroke-width: 1; fill-opacity: 0" transform="scale(0.196721,-200.000000)"/>
<path d=" M60,0.00 L120,0.00 L180,0.00 L240,0.00 L300,0.00 L360,0.00 L420,0.00 L480,0.00 L540,0.00 L600,0.00 L660,0.00 L720,0.00 L780,0.00 L840,0.00 L900,0.00 L960,0.00 L1020,0.00 L1080,0.00 L1140,0.00 L1200,0.00 L1260,0.00 L1320,0.00 L1380,0.00 L1440,0.00 L1500,0.00 L1560,0.00 L1620,0.00 L1680,0.00 L1740,0.00 L1800,0.00 L1860,0.00 L1920,0.00 L1980,0.00 L2040,0.00 L2100,0.00 L2160,0.00 L2220,0.00 L2280,0.00 L2340,0.00 L2400,0.00 L2460,0.00 L2520,0.00 L2580,0.00 L2640,0.00 L2700,0.00 L2760,0.00 L2820,0.00 L2880,0.00 L2940,0.00 L3000,0.00 L3060,0.00 L3120,0.00 L3180,0.00 L3240,0.00 L3300,0.00 L3360,0.00 L3420,0.00 L3480,0.00 L3540,0.00 L3600,0.00 L3660,0.00" style="vector-effect: non-scaling-stroke; stroke: #0000ff; stroke-width: 1; fill-opacity: 0" transform="scale(0.196721,-200.000000)"/>
<path d=" M60,0.00 L120,0.00 L180,0.00 L240,0.00 L300,0.00 L360,0.00 L420,0.00 L480,0.00 L540,0.00 L600,0.00 L660,0.00 L720,0.00 L780,0.00 L840,0.00 L900,0.00 L960,0.00 L1020,0.00 L1080,0.00 L1140,0.00 L1200,0.00 L1260,0.00 L1320,0.00 L1380,0.00 L1440,0.00 L1500,0.00 L1560,0.00 L1620,0.00 L1680,0.00 L1740,0.00 L1800,0.00 L1860,0.00 L1920,0.00 L1980,0.00 L2040,0.00 L2100,0.00 L2160,0.00 L2220,0.00 L2280,0.00 L2340,0.00 L2400,0.00 L2460,0.00 L2520,0.00 L2580,0.00 L2640,0.00 L2700,0.00 L2760,0.00 L2820,0.00 L2880,0.00 L2940,0.00 L3000,0.00 L3060,0.00 L3120,0.00 L3180,0.00 L3240,0.00 L3300,0.00 L3360,0.00 L3420,0.00 L3480,0.00 L3540,0.00 L3600,0.00 L3660,0.00" style="vector-effect: non-scaling-stroke; stroke: #006020; stroke-width: 1; fill-opacity: 0" transform="scale(0.196721,-200.000000)"/>
</g>
<rect x="0" y="930" height="300" width="1050" fill="#000000"/>
<text x="0" y="950" style="fill: #ffff00; stroke: none">Network interfaces statistics (4) [ens5]
<tspan x="795" y="955" style="fill: #ffff00; stroke: none; font-size: 12px">(Min, Max values)</tspan>
</text>
<polyline points="70,980 70,1180 790,1180" style="fill: #000000; stroke: #ffffff; stroke-width: 2"/>
<text x="795" y="980" style="fill: #7030a0; stroke: none; font-size: 12px">%ifutil (0.00, 0.00)</text>
<g transform="translate(70,1180)">
<text x="0" y="0" style="fill: #ffffff; stroke: none; font-size: 12px; text-anchor: end">0.</text>
<polyline points="0,25.00 720,25.00" style="vector-effect: non-scaling-stroke; stroke: #202020" transform="scale(1,-2.000000)"/>
<text x="0" y="-50" style="fill: #ffffff; stroke: none; font-size: 12px; text-anchor: end">25.</text>
<polyline points="0,50.00 720,50.00" style="vector-effect: non-scaling-stroke; stroke: #202020" transform="scale(1,-2.000000)"/>
<text x="0" y="-100" style="fill: #ffffff; stroke: none; font-size: 12px; text-anchor: end">50.</text>
<polyline points="0,75.00 720,75.00" style="vector-effect: non-scaling-stroke; stroke: #202020" transform="scale(1,-2.000000)"/>
<text x="0" y="-150" style="fill: #ffffff; stroke: none; font-size: 12px; text-anchor: end">75.</text>
<polyline points="0,100.00 720,100.00" style="vector-effect: non-scaling-stroke; stroke: #202020" transform="scale(1,-2.000000)"/>
<text x="0" y="-200" style="fill: #ffffff; stroke: none; font-size: 12px; text-anchor: end">100.</text>
<polyline points="0,0 0,-200" style="vector-effect: non-scaling-stroke; stroke: #202020" transform="scale(0.196721,1)"/>
<text x="0" y="10" style="fill: #ffffff; stroke: none; font-size: 12px; text-anchor: start" transform="rotate(45,0,0)">04:03:24</text>
<polyline points="366,0 366,-200" style="vector-effect: non-scaling-stroke; stroke: #202020" transform="scale(0.196721,1)"/>
<text x="72" y="10" style="fill: #ffffff; stroke: none; font-size: 12px; text-anchor: start" transform="rotate(45,72,0)">04:09:30</text>
<polyline points="732,0 732,-200" style="vector-effect: non-scaling-stroke; stroke: #202020" transform="scale(0.196721,1)"/>
<text x="144" y="10" style="fill: #ffffff; stroke: none; font-size: 12px; text-anchor: start" transform="rotate(45,144,0)">04:15:36</text>
<polyline points="1098,0 1098,-200" style="vector-effect: non-scaling-stroke; stroke: #202020" transform="scale(0.196721,1)"/>
<text x="216" y="10" style="fill: #ffffff; stroke: none; font-size: 12px; text-anchor: start" transform="rotate(45,216,0)">04:21:42</text>
<polyline points="1464,0 1464,-200" style="vector-effect: non-scaling-stroke; stroke: #202020" transform="scale(0.196721,1)"/>
<text x="288" y="10" style="fill: #ffffff; stroke: none; font-size: 12px; text-anchor: start" transform="rotate(45,288,0)">04:27:48</text>
<polyline points="1830,0 1830,-200" style="vector-effect: non-scaling-stroke; stroke: #202020" transform="scale(0.196721,1)"/>
<text x="360" y="10" style="fill: #ffffff; stroke: none; font-size: 12px; text-anchor: start" transform="rotate(45,360,0)">04:33:54</text>
<polyline points="2196,0 2196,-200" style="vector-effect: non-scaling-stroke; stroke: #202020" transform="scale(0.196721,1)"/>
<text x="432" y="10" style="fill: #ffffff; stroke: none; font-size: 12px; text-anchor: start" transform="rotate(45,432,0)">04:40:00</text>
<polyline points="2562,0 2562,-200" style="vector-effect: non-scaling-stroke; stroke: #202020" transform="scale(0.196721,1)"/>
<text x="504" y="10" style="fill: #ffffff; stroke: none; font-size: 12px; text-anchor: start" transform="rotate(45,504,0)">04:46:06</text>
<polyline points="2928,0 2928,-200" style="vector-effect: non-scaling-stroke; stroke: #202020" transform="scale(0.196721,1)"/>
<text x="576" y="10" style="fill: #ffffff; stroke: none; font-size: 12px; text-anchor: start" transform="rotate(45,576,0)">04:52:12</text>
<polyline points="3294,0 3294,-200" style="vector-effect: non-scaling-stroke; stroke: #202020" transform="scale(0.196721,1)"/>
<text x="648" y="10" style="fill: #ffffff; stroke: none; font-size: 12px; text-anchor: start" transform="rotate(45,648,0)">04:58:18</text>
<polyline points="3660,0 3660,-200" style="vector-effect: non-scaling-stroke; stroke: #202020" transform="scale(0.196721,1)"/>
<text x="720" y="10" style="fill: #ffffff; stroke: none; font-size: 12px; text-anchor: start" transform="rotate(45,720,0)">05:04:24</text>
<text x="-10" y="30" style="fill: #ffff00; stroke: none; font-size: 12px; text-anchor: end">UTC</text>
</g>
</g>
<!-- Actual canvas height: 2540 -->
</svg>
