<?xml version="1.0" encoding="UTF-8"?>
<!DOCTYPE svg PUBLIC "-//W3C//DTD SVG 1.1//EN" "http://www.w3.org/Graphics/SVG/1.1/DTD/svg11.dtd">
<svg xmlns="http://www.w3.org/2000/svg" width="1060" height="2540" fill="black" stroke="#808080" stroke-width="1">
<text x="0" y="30" text-anchor="start" stroke="#a52a2a">Linux 6.12.94+deb13-cloud-amd64 (madrona) 	09/10/26 	_x86_64_	(16 CPU)
</text>
<g id="g12-0" transform="translate(0,60)">
<rect x="0" y="0" height="300" width="1050" fill="#000000"/>
<text x="0" y="20" style="fill: #ffff00; stroke: none">Network interfaces statistics (1) [lo]
<tspan x="795" y="25" style="fill: #ffff00; stroke: none; font-size: 12px">(Min, Max values)</tspan>
</text>
<polyline points="70,50 70,250 790,250" style="fill: #000000; stroke: #ffffff; stroke-width: 2"/>
<text x="795" y="50" style="fill: #00cc00; stroke: none; font-size: 12px">rxpck/s (5813.73, 11033.53)</text>
<text x="795" y="65" style="fill: #ff00bf; stroke: none; font-size: 12px">txpck/s (5813.73, 11033.53)</text>
<g transform="translate(70,250)">
<text x="0" y="0" style="fill: #ffffff; stroke: none; font-size: 12px; text-anchor: end">0.</text>
<polyline points="0,3000.00 720,3000.00" style="vector-effect: non-scaling-stroke; stroke: #202020" transform="scale(1,-0.018127)"/>
<text x="0" y="-54" style="fill: #ffffff; stroke: none; font-size: 12px; text-anchor: end">3000.</text>
<polyline points="0,6000.00 720,6000.00" style="vector-effect: non-scaling-stroke; stroke: #202020" transform="scale(1,-0.018127)"/>
<text x="0" y="-108" style="fill: #ffffff; stroke: none; font-size: 12px; text-anchor: end">6000.</text>
<polyline points="0,9000.00 720,9000.00" style="vector-effect: non-scaling-stroke; stroke: #202020" transform="scale(1,-0.018127)"/>
<text x="0" y="-163" style="fill: #ffffff; stroke: none; font-size: 12px; text-anchor: end">9000.</text>
<polyline points="0,0 0,-200" style="vector-effect: non-scaling-stroke; stroke: #202020" transform="scale(0.196721,1)"/>
<text x="0" y="10" style="fill: #ffffff; stroke: none; font-size: 12px; text-anchor: start" transform="rotate(45,0,0)">01:21:39</text>
<polyline points="366,0 366,-200" style="vector-effect: non-scaling-stroke; stroke: #202020" transform="scale(0.196721,1)"/>
<text x="72" y="10" style="fill: #ffffff; stroke: none; font-size: 12px; text-anchor: start" transform="rotate(45,72,0)">01:27:45</text>
<polyline points="732,0 732,-200" style="vector-effect: non-scaling-stroke; stroke: #202020" transform="scale(0.196721,1)"/>
<text x="144" y="10" style="fill: #ffffff; stroke: none; font-size: 12px; text-anchor: start" transform="rotate(45,144,0)">01:33:51</text>
<polyline points="1098,0 1098,-200" style="vector-effect: non-scaling-stroke; stroke: #202020" transform="scale(0.196721,1)"/>
<text x="216" y="10" style="fill: #ffffff; stroke: none; font-size: 12px; text-anchor: start" transform="rotate(45,216,0)">01:39:57</text>
<polyline points="1464,0 1464,-200" style="vector-effect: non-scaling-stroke; stroke: #202020" transform="scale(0.196721,1)"/>
<text x="288" y="10" style="fill: #ffffff; stroke: none; font-size: 12px; text-anchor: start" transform="rotate(45,288,0)">01:46:03</text>
<polyline points="1830,0 1830,-200" style="vector-effect: non-scaling-stroke; stroke: #202020" transform="scale(0.196721,1)"/>
<text x="360" y="10" style="fill: #ffffff; stroke: none; font-size: 12px; text-anchor: start" transform="rotate(45,360,0)">01:52:09</text>
<polyline points="2196,0 2196,-200" style="vector-effect: non-scaling-stroke; stroke: #202020" transform="scale(0.196721,1)"/>
<text x="432" y="10" style="fill: #ffffff; stroke: none; font-size: 12px; text-anchor: start" transform="rotate(45,432,0)">01:58:15</text>
<polyline points="2562,0 2562,-200" style="vector-effect: non-scaling-stroke; stroke: #202020" transform="scale(0.196721,1)"/>
<text x="504" y="10" style="fill: #ffffff; stroke: none; font-size: 12px; text-anchor: start" transform="rotate(45,504,0)">02:04:21</text>
<polyline points="2928,0 2928,-200" style="vector-effect: non-scaling-stroke; stroke: #202020" transform="scale(0.196721,1)"/>
<text x="576" y="10" style="fill: #ffffff; stroke: none; font-size: 12px; text-anchor: start" transform="rotate(45,576,0)">02:10:27</text>
<polyline points="3294,0 3294,-200" style="vector-effect: non-scaling-stroke; stroke: #202020" transform="scale(0.196721,1)"/>
<text x="648" y="10" style="fill: #ffffff; stroke: none; font-size: 12px; text-anchor: start" transform="rotate(45,648,0)">02:16:33</text>
<polyline points="3660,0 3660,-200" style="vector-effect: non-scaling-stroke; stroke: #202020" transform="scale(0.196721,1)"/>
<text x="720" y="10" style="fill: #ffffff; stroke: none; font-size: 12px; text-anchor: start" transform="rotate(45,720,0)">02:22:39</text>
<text x="-10" y="30" style="fill: #ffff00; stroke: none; font-size: 12px; text-anchor: end">UTC</text>
<path d=" M60,5813.73 L120,9990.65 L180,10134.46 L240,10301.42 L300,10338.45 L360,10586.68 L420,10516.72 L480,10350.35 L540,10723.93 L600,10429.30 L660,10680.55 L720,10478.52 L780,10695.98 L840,10293.57 L900,10773.83 L960,10995.15 L1020,10468.18 L1080,10880.05 L1140,10461.97 L1200,10582.63 L1260,10727.38 L1320,10746.72 L1380,10627.13 L1440,10799.28 L1500,10616.17 L1560,10776.12 L1620,10496.93 L1680,10933.05 L1740,10937.17 L1800,10636.38 L1860,10966.73 L1920,10525.82 L1980,11033.53 L2040,10845.93 L2100,10599.65 L2160,10854.40 L2220,10813.78 L2280,10950.22 L2340,10539.78 L2400,10803.03 L2460,10868.82 L2520,10692.97 L2580,10945.22 L2640,10557.12 L2700,10901.50 L2760,10670.65 L2820,10819.23 L2880,10737.95 L2940,10702.58 L3000,10910.27 L3060,10677.63 L3120,10931.32 L3180,10463.25 L3240,10954.60 L3300,10457.20 L3360,10767.17 L3420,10819.25 L3480,10539.88 L3540,10938.53 L3600,10881.37 L3660,10543.33" style="vector-effect: non-scaling-stroke; stroke: #00cc00; stroke-width: 1; fill-opacity: 0" transform="scale(0.196721,-0.018127)"/>
<path d=" M60,5813.73 L120,9990.65 L180,10134.46 L240,10301.42 L300,10338.45 L360,10586.68 L420,10516.72 L480,10350.35 L540,10723.93 L600,10429.30 L660,10680.55 L720,10478.52 L780,10695.98 L840,10293.57 L900,10773.83 L960,10995.15 L1020,10468.18 L1080,10880.05 L1140,10461.97 L1200,10582.63 L1260,10727.38 L1320,10746.72 L1380,10627.13 L1440,10799.28 L1500,10616.17 L1560,10776.12 L1620,10496.93 L1680,10933.05 L1740,10937.17 L1800,10636.38 L1860,10966.73 L1920,10525.82 L1980,11033.53 L2040,10845.93 L2100,10599.65 L2160,10854.40 L2220,10813.78 L2280,10950.22 L2340,10539.78 L2400,10803.03 L2460,10868.82 L2520,10692.97 L2580,10945.22 L2640,10557.12 L2700,10901.50 L2760,10670.65 L2820,10819.23 L2880,10737.95 L2940,10702.58 L3000,10910.27 L3060,10677.63 L3120,10931.32 L3180,10463.25 L3240,10954.60 L3300,10457.20 L3360,10767.17 L3420,10819.25 L3480,10539.88 L3540,10938.53 L3600,10881.37 L3660,10543.33" style="vector-effect: non-scaling-stroke; stroke: #ff00bf; stroke-width: 1; fill-opacity: 0" transform="scale(0.196721,-0.018127)"/>
</g>
<rect x="0" y="310" height="300" width="1050" fill="#000000"/>
<text x="0" y="330" style="fill: #ffff00; stroke: none">Network interfaces statistics (2) [lo]
<tspan x="795" y="335" style="fill: #ffff00; stroke: none; font-size: 12px">(Min, Max values)</tspan>
</text>
<polyline points="70,360 70,560 790,560" style="fill: #000000; stroke: #ffffff; stroke-width: 2"/>
<text x="795" y="360" style="fill: #00ffff; stroke: none; font-size: 12px">rxkB/s (2913.11, 5546.71)</text>
<text x="795" y="375" style="fill: #ff0000; stroke: none; font-size: 12px">txkB/s (2913.11, 5546.71)</text>
<g transform="translate(70,560)">
<text x="0" y="0" style="fill: #ffffff; stroke: none; font-size: 12px; text-anchor: end">0.</text>
<polyline points="0,1000.00 720,1000.00" style="vector-effect: non-scaling-stroke; stroke: #202020" transform="scale(1,-0.036057)"/>
<text x="0" y="-36" style="fill: #ffffff; stroke: none; font-size: 12px; text-anchor: end">1000.</text>
<polyline points="0,2000.00 720,2000.00" style="vector-effect: non-scaling-stroke; stroke: #202020" transform="scale(1,-0.036057)"/>
<text x="0" y="-72" style="fill: #ffffff; stroke: none; font-size: 12px; text-anchor: end">2000.</text>
<polyline points="0,3000.00 720,3000.00" style="vector-effect: non-scaling-stroke; stroke: #202020" transform="scale(1,-0.036057)"/>
<text x="0" y="-108" style="fill: #ffffff; stroke: none; font-size: 12px; text-anchor: end">3000.</text>
<polyline points="0,4000.00 720,4000.00" style="vector-effect: non-scaling-stroke; stroke: #202020" transform="scale(1,-0.036057)"/>
<text x="0" y="-144" style="fill: #ffffff; stroke: none; font-size: 12px; text-anchor: end">4000.</text>
<polyline points="0,5000.00 720,5000.00" style="vector-effect: non-scaling-stroke; stroke: #202020" transform="scale(1,-0.036057)"/>
<text x="0" y="-180" style="fill: #ffffff; stroke: none; font-size: 12px; text-anchor: end">5000.</text>
<polyline points="0,0 0,-200" style="vector-effect: non-scaling-stroke; stroke: #202020" transform="scale(0.196721,1)"/>
<text x="0" y="10" style="fill: #ffffff; stroke: none; font-size: 12px; text-anchor: start" transform="rotate(45,0,0)">01:21:39</text>
<polyline points="366,0 366,-200" style="vector-effect: non-scaling-stroke; stroke: #202020" transform="scale(0.196721,1)"/>
<text x="72" y="10" style="fill: #ffffff; stroke: none; font-size: 12px; text-anchor: start" transform="rotate(45,72,0)">01:27:45</text>
<polyline points="732,0 732,-200" style="vector-effect: non-scaling-stroke; stroke: #202020" transform="scale(0.196721,1)"/>
<text x="144" y="10" style="fill: #ffffff; stroke: none; font-size: 12px; text-anchor: start" transform="rotate(45,144,0)">01:33:51</text>
<polyline points="1098,0 1098,-200" style="vector-effect: non-scaling-stroke; stroke: #202020" transform="scale(0.196721,1)"/>
<text x="216" y="10" style="fill: #ffffff; stroke: none; font-size: 12px; text-anchor: start" transform="rotate(45,216,0)">01:39:57</text>
<polyline points="1464,0 1464,-200" style="vector-effect: non-scaling-stroke; stroke: #202020" transform="scale(0.196721,1)"/>
<text x="288" y="10" style="fill: #ffffff; stroke: none; font-size: 12px; text-anchor: start" transform="rotate(45,288,0)">01:46:03</text>
<polyline points="1830,0 1830,-200" style="vector-effect: non-scaling-stroke; stroke: #202020" transform="scale(0.196721,1)"/>
<text x="360" y="10" style="fill: #ffffff; stroke: none; font-size: 12px; text-anchor: start" transform="rotate(45,360,0)">01:52:09</text>
<polyline points="2196,0 2196,-200" style="vector-effect: non-scaling-stroke; stroke: #202020" transform="scale(0.196721,1)"/>
<text x="432" y="10" style="fill: #ffffff; stroke: none; font-size: 12px; text-anchor: start" transform="rotate(45,432,0)">01:58:15</text>
<polyline points="2562,0 2562,-200" style="vector-effect: non-scaling-stroke; stroke: #202020" transform="scale(0.196721,1)"/>
<text x="504" y="10" style="fill: #ffffff; stroke: none; font-size: 12px; text-anchor: start" transform="rotate(45,504,0)">02:04:21</text>
<polyline points="2928,0 2928,-200" style="vector-effect: non-scaling-stroke; stroke: #202020" transform="scale(0.196721,1)"/>
<text x="576" y="10" style="fill: #ffffff; stroke: none; font-size: 12px; text-anchor: start" transform="rotate(45,576,0)">02:10:27</text>
<polyline points="3294,0 3294,-200" style="vector-effect: non-scaling-stroke; stroke: #202020" transform="scale(0.196721,1)"/>
<text x="648" y="10" style="fill: #ffffff; stroke: none; font-size: 12px; text-anchor: start" transform="rotate(45,648,0)">02:16:33</text>
<polyline points="3660,0 3660,-200" style="vector-effect: non-scaling-stroke; stroke: #202020" transform="scale(0.196721,1)"/>
<text x="720" y="10" style="fill: #ffffff; stroke: none; font-size: 12px; text-anchor: start" transform="rotate(45,720,0)">02:22:39</text>
<text x="-10" y="30" style="fill: #ffff00; stroke: none; font-size: 12px; text-anchor: end">UTC</text>
<path d=" M60,2913.11 L120,5046.11 L180,5156.28 L240,5176.28 L300,5205.33 L360,5347.82 L420,5295.23 L480,5222.77 L540,5358.56 L600,5089.04 L660,5306.56 L720,5094.66 L780,5319.06 L840,5119.54 L900,5400.49 L960,5371.92 L1020,5201.51 L1080,5442.55 L1140,5189.42 L1200,5260.52 L1260,5344.35 L1320,5430.59 L1380,5243.09 L1440,5393.30 L1500,5278.66 L1560,5417.64 L1620,5182.10 L1680,5464.14 L1740,5458.45 L1800,5280.22 L1860,5451.86 L1920,5255.91 L1980,5488.74 L2040,5428.29 L2100,5290.38 L2160,5368.31 L2220,5336.60 L2280,5530.16 L2340,5292.88 L2400,5365.58 L2460,5546.71 L2520,5259.16 L2580,5386.65 L2640,5229.47 L2700,5341.84 L2760,5295.02 L2820,5417.77 L2880,5329.18 L2940,5298.95 L3000,5418.24 L3060,5339.68 L3120,5473.50 L3180,5223.88 L3240,5392.95 L3300,5117.22 L3360,5370.65 L3420,5374.55 L3480,5150.26 L3540,5440.94 L3600,5486.95 L3660,5232.76" style="vector-effect: non-scaling-stroke; stroke: #00ffff; stroke-width: 1; fill-opacity: 0" transform="scale(0.196721,-0.036057)"/>
<path d=" M60,2913.11 L120,5046.11 L180,5156.28 L240,5176.28 L300,5205.33 L360,5347.82 L420,5295.23 L480,5222.77 L540,5358.56 L600,5089.04 L660,5306.56 L720,5094.66 L780,5319.06 L840,5119.54 L900,5400.49 L960,5371.92 L1020,5201.51 L1080,5442.55 L1140,5189.42 L1200,5260.52 L1260,5344.35 L1320,5430.59 L1380,5243.09 L1440,5393.30 L1500,5278.66 L1560,5417.64 L1620,5182.10 L1680,5464.14 L1740,5458.45 L1800,5280.22 L1860,5451.86 L1920,5255.91 L1980,5488.74 L2040,5428.29 L2100,5290.38 L2160,5368.31 L2220,5336.60 L2280,5530.16 L2340,5292.88 L2400,5365.58 L2460,5546.71 L2520,5259.16 L2580,5386.65 L2640,5229.47 L2700,5341.84 L2760,5295.02 L2820,5417.77 L2880,5329.18 L2940,5298.95 L3000,5418.24 L3060,5339.68 L3120,5473.50 L3180,5223.88 L3240,5392.95 L3300,5117.22 L3360,5370.65 L3420,5374.55 L3480,5150.26 L3540,5440.94 L3600,5486.95 L3660,5232.76" style="vector-effect: non-scaling-stroke; stroke: #ff0000; stroke-width: 1; fill-opacity: 0" transform="scale(0.196721,-0.036057)"/>
</g>
<rect x="0" y="620" height="300" width="1050" fill="#000000"/>
<text x="0" y="640" style="fill: #ffff00; stroke: none">Network interfaces statistics (3) [lo]
<tspan x="795" y="645" style="fill: #ffff00; stroke: none; font-size: 12px">(Min, Max values)</tspan>
</text>
<polyline points="70,670 70,870 790,870" style="fill: #000000; stroke: #ffffff; stroke-width: 2"/>
<text x="795" y="670" style="fill: #e85f00; stroke: none; font-size: 12px">rxcmp/s (0.00, 0.00)</text>
<text x="795" y="685" style="fill: #0000ff; stroke: none; font-size: 12px">txcmp/s (0.00, 0.00)</text>
<text x="795" y="700" style="fill: #006020; stroke: none; font-size: 12px">rxmcst/s (0.00, 0.00)</text>
<g transform="translate(70,870)">
<text x="0" y="0" style="fill: #ffffff; stroke: none; font-size: 12px; text-anchor: end">0.00.</text>
<polyline points="0,0.33 720,0.33" style="vector-effect: non-scaling-stroke; stroke: #202020" transform="scale(1,-200.000000)"/>
<text x="0" y="-66" style="fill: #ffffff; stroke: none; font-size: 12px; text-anchor: end">0.33.</text>
<polyline points="0,0.67 720,0.67" style="vector-effect: non-scaling-stroke; stroke: #202020" transform="scale(1,-200.000000)"/>
<text x="0" y="-134" style="fill: #ffffff; stroke: none; font-size: 12px; text-anchor: end">0.67.</text>
<polyline points="0,1.00 720,1.00" style="vector-effect: non-scaling-stroke; stroke: #202020" transform="scale(1,-200.000000)"/>
<text x="0" y="-200" style="fill: #ffffff; stroke: none; font-size: 12px; text-anchor: end">1.00.</text>
<polyline points="0,0 0,-200" style="vector-effect: non-scaling-stroke; stroke: #202020" transform="scale(0.196721,1)"/>
<text x="0" y="10" style="fill: #ffffff; stroke: none; font-size: 12px; text-anchor: start" transform="rotate(45,0,0)">01:21:39</text>
<polyline points="366,0 366,-200" style="vector-effect: non-scaling-stroke; stroke: #202020" transform="scale(0.196721,1)"/>
<text x="72" y="10" style="fill: #ffffff; stroke: none; font-size: 12px; text-anchor: start" transform="rotate(45,72,0)">01:27:45</text>
<polyline points="732,0 732,-200" style="vector-effect: non-scaling-stroke; stroke: #202020" transform="scale(0.196721,1)"/>
<text x="144" y="10" style="fill: #ffffff; stroke: none; font-size: 12px; text-anchor: start" transform="rotate(45,144,0)">01:33:51</text>
<polyline points="1098,0 1098,-200" style="vector-effect: non-scaling-stroke; stroke: #202020" transform="scale(0.196721,1)"/>
<text x="216" y="10" style="fill: #ffffff; stroke: none; font-size: 12px; text-anchor: start" transform="rotate(45,216,0)">01:39:57</text>
<polyline points="1464,0 1464,-200" style="vector-effect: non-scaling-stroke; stroke: #202020" transform="scale(0.196721,1)"/>
<text x="288" y="10" style="fill: #ffffff; stroke: none; font-size: 12px; text-anchor: start" transform="rotate(45,288,0)">01:46:03</text>
<polyline points="1830,0 1830,-200" style="vector-effect: non-scaling-stroke; stroke: #202020" transform="scale(0.196721,1)"/>
<text x="360" y="10" style="fill: #ffffff; stroke: none; font-size: 12px; text-anchor: start" transform="rotate(45,360,0)">01:52:09</text>
<polyline points="2196,0 2196,-200" style="vector-effect: non-scaling-stroke; stroke: #202020" transform="scale(0.196721,1)"/>
<text x="432" y="10" style="fill: #ffffff; stroke: none; font-size: 12px; text-anchor: start" transform="rotate(45,432,0)">01:58:15</text>
<polyline points="2562,0 2562,-200" style="vector-effect: non-scaling-stroke; stroke: #202020" transform="scale(0.196721,1)"/>
<text x="504" y="10" style="fill: #ffffff; stroke: none; font-size: 12px; text-anchor: start" transform="rotate(45,504,0)">02:04:21</text>
<polyline points="2928,0 2928,-200" style="vector-effect: non-scaling-stroke; stroke: #202020" transform="scale(0.196721,1)"/>
<text x="576" y="10" style="fill: #ffffff; stroke: none; font-size: 12px; text-anchor: start" transform="rotate(45,576,0)">02:10:27</text>
<polyline points="3294,0 3294,-200" style="vector-effect: non-scaling-stroke; stroke: #202020" transform="scale(0.196721,1)"/>
<text x="648" y="10" style="fill: #ffffff; stroke: none; font-size: 12px; text-anchor: start" transform="rotate(45,648,0)">02:16:33</text>
<polyline points="3660,0 3660,-200" style="vector-effect: non-scaling-stroke; stroke: #202020" transform="scale(0.196721,1)"/>
<text x="720" y="10" style="fill: #ffffff; stroke: none; font-size: 12px; text-anchor: start" transform="rotate(45,720,0)">02:22:39</text>
<text x="-10" y="30" style="fill: #ffff00; stroke: none; font-size: 12px; text-anchor: end">UTC</text>
<path d=" M60,0.00 L120,0.00 L180,0.00 L240,0.00 L300,0.00 L360,0.00 L420,0.00 L480,0.00 L540,0.00 L600,0.00 L660,0.00 L720,0.00 L780,0.00 L840,0.00 L900,0.00 L960,0.00 L1020,0.00 L1080,0.00 L1140,0.00 L1200,0.00 L1260,0.00 L1320,0.00 L1380,0.00 L1440,0.00 L1500,0.00 L1560,0.00 L1620,0.00 L1680,0.00 L1740,0.00 L1800,0.00 L1860,0.00 L1920,0.00 L1980,0.00 L2040,0.00 L2100,0.00 L2160,0.00 L2220,0.00 L2280,0.00 L2340,0.00 L2400,0.00 L2460,0.00 L2520,0.00 L2580,0.00 L2640,0.00 L2700,0.00 L2760,0.00 L2820,0.00 L2880,0.00 L2940,0.00 L3000,0.00 L3060,0.00 L3120,0.00 L3180,0.00 L3240,0.00 L3300,0.00 L3360,0.00 L3420,0.00 L3480,0.00 L3540,0.00 L3600,0.00 L3660,0.00" style="vector-effect: non-scaling-stroke; stroke: #e85f00; stroke-width: 1; fill-opacity: 0" transform="scale(0.196721,-200.000000)"/>
<path d=" M60,0.00 L120,0.00 L180,0.00 L240,0.00 L300,0.00 L360,0.00 L420,0.00 L480,0.00 L540,0.00 L600,0.00 L660,0.00 L720,0.00 L780,0.00 L840,0.00 L900,0.00 L960,0.00 L1020,0.00 L1080,0.00 L1140,0.00 L1200,0.00 L1260,0.00 L1320,0.00 L1380,0.00 L1440,0.00 L1500,0.00 L1560,0.00 L1620,0.00 L1680,0.00 L1740,0.00 L1800,0.00 L1860,0.00 L1920,0.00 L1980,0.00 L2040,0.00 L2100,0.00 L2160,0.00 L2220,0.00 L2280,0.00 L2340,0.00 L2400,0.00 L2460,0.00 L2520,0.00 L2580,0.00 L2640,0.00 L2700,0.00 L2760,0.00 L2820,0.00 L2880,0.00 L2940,0.00 L3000,0.00 L3060,0.00 L3120,0.00 L3180,0.00 L3240,0.00 L3300,0.00 L3360,0.00 L3420,0.00 L3480,0.00 L3540,0.00 L3600,0.00 L3660,0.00" style="vector-effect: non-scaling-stroke; stroke: #0000ff; stroke-width: 1; fill-opacity: 0" transform="scale(0.196721,-200.000000)"/>
<path d=" M60,0.00 L120,0.00 L180,0.00 L240,0.00 L300,0.00 L360,0.00 L420,0.00 L480,0.00 L540,0.00 L600,0.00 L660,0.00 L720,0.00 L780,0.00 L840,0.00 L900,0.00 L960,0.00 L1020,0.00 L1080,0.00 L1140,0.00 L1200,0.00 L1260,0.00 L1320,0.00 L1380,0.00 L1440,0.00 L1500,0.00 L1560,0.00 L1620,0.00 L1680,0.00 L1740,0.00 L1800,0.00 L1860,0.00 L1920,0.00 L1980,0.00 L2040,0.00 L2100,0.00 L2160,0.00 L2220,0.00 L2280,0.00 L2340,0.00 L2400,0.00 L2460,0.00 L2520,0.00 L2580,0.00 L2640,0.00 L2700,0.00 L2760,0.00 L2820,0.00 L2880,0.00 L2940,0.00 L3000,0.00 L3060,0.00 L3120,0.00 L3180,0.00 L3240,0.00 L3300,0.00 L3360,0.00 L3420,0.00 L3480,0.00 L3540,0.00 L3600,0.00 L3660,0.00" style="vector-effect: non-scaling-stroke; stroke: #006020; stroke-width: 1; fill-opacity: 0" transform="scale(0.196721,-200.000000)"/>
</g>
<rect x="0" y="930" height="300" width="1050" fill="#000000"/>
<text x="0" y="950" style="fill: #ffff00; stroke: none">Network interfaces statistics (4) [lo]
<tspan x="795" y="955" style="fill: #ffff00; stroke: none; font-size: 12px">(Min, Max values)</tspan>
</text>
<polyline points="70,980 70,1180 790,1180" style="fill: #000000; stroke: #ffffff; stroke-width: 2"/>
<text x="795" y="980" style="fill: #7030a0; stroke: none; font-size: 12px">%ifutil (0.00, 0.00)</text>
<g transform="translate(70,1180)">
<text x="0" y="0" style="fill: #ffffff; stroke: none; font-size: 12px; text-anchor: end">0.</text>
<polyline points="0,25.00 720,25.00" style="vector-effect: non-scaling-stroke; stroke: #202020" transform="scale(1,-2.000000)"/>
<text x="0" y="-50" style="fill: #ffffff; stroke: none; font-size: 12px; text-anchor: end">25.</text>
<polyline points="0,50.00 720,50.00" style="vector-effect: non-scaling-stroke; stroke: #202020" transform="scale(1,-2.000000)"/>
<text x="0" y="-100" style="fill: #ffffff; stroke: none; font-size: 12px; text-anchor: end">50.</text>
<polyline points="0,75.00 720,75.00" style="vector-effect: non-scaling-stroke; stroke: #202020" transform="scale(1,-2.000000)"/>
<text x="0" y="-150" style="fill: #ffffff; stroke: none; font-size: 12px; text-anchor: end">75.</text>
<polyline points="0,100.00 720,100.00" style="vector-effect: non-scaling-stroke; stroke: #202020" transform="scale(1,-2.000000)"/>
<text x="0" y="-200" style="fill: #ffffff; stroke: none; font-size: 12px; text-anchor: end">100.</text>
<polyline points="0,0 0,-200" style="vector-effect: non-scaling-stroke; stroke: #202020" transform="scale(0.196721,1)"/>
<text x="0" y="10" style="fill: #ffffff; stroke: none; font-size: 12px; text-anchor: start" transform="rotate(45,0,0)">01:21:39</text>
<polyline points="366,0 366,-200" style="vector-effect: non-scaling-stroke; stroke: #202020" transform="scale(0.196721,1)"/>
<text x="72" y="10" style="fill: #ffffff; stroke: none; font-size: 12px; text-anchor: start" transform="rotate(45,72,0)">01:27:45</text>
<polyline points="732,0 732,-200" style="vector-effect: non-scaling-stroke; stroke: #202020" transform="scale(0.196721,1)"/>
<text x="144" y="10" style="fill: #ffffff; stroke: none; font-size: 12px; text-anchor: start" transform="rotate(45,144,0)">01:33:51</text>
<polyline points="1098,0 1098,-200" style="vector-effect: non-scaling-stroke; stroke: #202020" transform="scale(0.196721,1)"/>
<text x="216" y="10" style="fill: #ffffff; stroke: none; font-size: 12px; text-anchor: start" transform="rotate(45,216,0)">01:39:57</text>
<polyline points="1464,0 1464,-200" style="vector-effect: non-scaling-stroke; stroke: #202020" transform="scale(0.196721,1)"/>
<text x="288" y="10" style="fill: #ffffff; stroke: none; font-size: 12px; text-anchor: start" transform="rotate(45,288,0)">01:46:03</text>
<polyline points="1830,0 1830,-200" style="vector-effect: non-scaling-stroke; stroke: #202020" transform="scale(0.196721,1)"/>
<text x="360" y="10" style="fill: #ffffff; stroke: none; font-size: 12px; text-anchor: start" transform="rotate(45,360,0)">01:52:09</text>
<polyline points="2196,0 2196,-200" style="vector-effect: non-scaling-stroke; stroke: #202020" transform="scale(0.196721,1)"/>
<text x="432" y="10" style="fill: #ffffff; stroke: none; font-size: 12px; text-anchor: start" transform="rotate(45,432,0)">01:58:15</text>
<polyline points="2562,0 2562,-200" style="vector-effect: non-scaling-stroke; stroke: #202020" transform="scale(0.196721,1)"/>
<text x="504" y="10" style="fill: #ffffff; stroke: none; font-size: 12px; text-anchor: start" transform="rotate(45,504,0)">02:04:21</text>
<polyline points="2928,0 2928,-200" style="vector-effect: non-scaling-stroke; stroke: #202020" transform="scale(0.196721,1)"/>
<text x="576" y="10" style="fill: #ffffff; stroke: none; font-size: 12px; text-anchor: start" transform="rotate(45,576,0)">02:10:27</text>
<polyline points="3294,0 3294,-200" style="vector-effect: non-scaling-stroke; stroke: #202020" transform="scale(0.196721,1)"/>
<text x="648" y="10" style="fill: #ffffff; stroke: none; font-size: 12px; text-anchor: start" transform="rotate(45,648,0)">02:16:33</text>
<polyline points="3660,0 3660,-200" style="vector-effect: non-scaling-stroke; stroke: #202020" transform="scale(0.196721,1)"/>
<text x="720" y="10" style="fill: #ffffff; stroke: none; font-size: 12px; text-anchor: start" transform="rotate(45,720,0)">02:22:39</text>
<text x="-10" y="30" style="fill: #ffff00; stroke: none; font-size: 12px; text-anchor: end">UTC</text>
</g>
</g>
<g id="g12-1" transform="translate(0,1300)">
<rect x="0" y="0" height="300" width="1050" fill="#000000"/>
<text x="0" y="20" style="fill: #ffff00; stroke: none">Network interfaces statistics (1) [ens5]
<tspan x="795" y="25" style="fill: #ffff00; stroke: none; font-size: 12px">(Min, Max values)</tspan>
</text>
<polyline points="70,50 70,250 790,250" style="fill: #000000; stroke: #ffffff; stroke-width: 2"/>
<text x="795" y="50" style="fill: #00cc00; stroke: none; font-size: 12px">rxpck/s (0.30, 57.87)</text>
<text x="795" y="65" style="fill: #ff00bf; stroke: none; font-size: 12px">txpck/s (0.28, 28.67)</text>
<g transform="translate(70,250)">
<text x="0" y="0" style="fill: #ffffff; stroke: none; font-size: 12px; text-anchor: end">0.</text>
<polyline points="0,10.00 720,10.00" style="vector-effect: non-scaling-stroke; stroke: #202020" transform="scale(1,-3.456221)"/>
<text x="0" y="-34" style="fill: #ffffff; stroke: none; font-size: 12px; text-anchor: end">10.</text>
<polyline points="0,20.00 720,20.00" style="vector-effect: non-scaling-stroke; stroke: #202020" transform="scale(1,-3.456221)"/>
<text x="0" y="-69" style="fill: #ffffff; stroke: none; font-size: 12px; text-anchor: end">20.</text>
<polyline points="0,30.00 720,30.00" style="vector-effect: non-scaling-stroke; stroke: #202020" transform="scale(1,-3.456221)"/>
<text x="0" y="-103" style="fill: #ffffff; stroke: none; font-size: 12px; text-anchor: end">30.</text>
<polyline points="0,40.00 720,40.00" style="vector-effect: non-scaling-stroke; stroke: #202020" transform="scale(1,-3.456221)"/>
<text x="0" y="-138" style="fill: #ffffff; stroke: none; font-size: 12px; text-anchor: end">40.</text>
<polyline points="0,50.00 720,50.00" style="vector-effect: non-scaling-stroke; stroke: #202020" transform="scale(1,-3.456221)"/>
<text x="0" y="-172" style="fill: #ffffff; stroke: none; font-size: 12px; text-anchor: end">50.</text>
<polyline points="0,0 0,-200" style="vector-effect: non-scaling-stroke; stroke: #202020" transform="scale(0.196721,1)"/>
<text x="0" y="10" style="fill: #ffffff; stroke: none; font-size: 12px; text-anchor: start" transform="rotate(45,0,0)">01:21:39</text>
<polyline points="366,0 366,-200" style="vector-effect: non-scaling-stroke; stroke: #202020" transform="scale(0.196721,1)"/>
<text x="72" y="10" style="fill: #ffffff; stroke: none; font-size: 12px; text-anchor: start" transform="rotate(45,72,0)">01:27:45</text>
<polyline points="732,0 732,-200" style="vector-effect: non-scaling-stroke; stroke: #202020" transform="scale(0.196721,1)"/>
<text x="144" y="10" style="fill: #ffffff; stroke: none; font-size: 12px; text-anchor: start" transform="rotate(45,144,0)">01:33:51</text>
<polyline points="1098,0 1098,-200" style="vector-effect: non-scaling-stroke; stroke: #202020" transform="scale(0.196721,1)"/>
<text x="216" y="10" style="fill: #ffffff; stroke: none; font-size: 12px; text-anchor: start" transform="rotate(45,216,0)">01:39:57</text>
<polyline points="1464,0 1464,-200" style="vector-effect: non-scaling-stroke; stroke: #202020" transform="scale(0.196721,1)"/>
<text x="288" y="10" style="fill: #ffffff; stroke: none; font-size: 12px; text-anchor: start" transform="rotate(45,288,0)">01:46:03</text>
<polyline points="1830,0 1830,-200" style="vector-effect: non-scaling-stroke; stroke: #202020" transform="scale(0.196721,1)"/>
<text x="360" y="10" style="fill: #ffffff; stroke: none; font-size: 12px; text-anchor: start" transform="rotate(45,360,0)">01:52:09</text>
<polyline points="2196,0 2196,-200" style="vector-effect: non-scaling-stroke; stroke: #202020" transform="scale(0.196721,1)"/>
<text x="432" y="10" style="fill: #ffffff; stroke: none; font-size: 12px; text-anchor: start" transform="rotate(45,432,0)">01:58:15</text>
<polyline points="2562,0 2562,-200" style="vector-effect: non-scaling-stroke; stroke: #202020" transform="scale(0.196721,1)"/>
<text x="504" y="10" style="fill: #ffffff; stroke: none; font-size: 12px; text-anchor: start" transform="rotate(45,504,0)">02:04:21</text>
<polyline points="2928,0 2928,-200" style="vector-effect: non-scaling-stroke; stroke: #202020" transform="scale(0.196721,1)"/>
<text x="576" y="10" style="fill: #ffffff; stroke: none; font-size: 12px; text-anchor: start" transform="rotate(45,576,0)">02:10:27</text>
<polyline points="3294,0 3294,-200" style="vector-effect: non-scaling-stroke; stroke: #202020" transform="scale(0.196721,1)"/>
<text x="648" y="10" style="fill: #ffffff; stroke: none; font-size: 12px; text-anchor: start" transform="rotate(45,648,0)">02:16:33</text>
<polyline points="3660,0 3660,-200" style="vector-effect: non-scaling-stroke; stroke: #202020" transform="scale(0.196721,1)"/>
<text x="720" y="10" style="fill: #ffffff; stroke: none; font-size: 12px; text-anchor: start" transform="rotate(45,720,0)">02:22:39</text>
<text x="-10" y="30" style="fill: #ffff00; stroke: none; font-size: 12px; text-anchor: end">UTC</text>
<path d=" M60,1.30 L120,1.30 L180,0.77 L240,1.10 L300,0.38 L360,0.78 L420,0.35 L480,5.48 L540,3.20 L600,1.47 L660,2.30 L720,2.60 L780,57.87 L840,3.17 L900,1.45 L960,1.60 L1020,1.40 L1080,1.28 L1140,2.03 L1200,1.27 L1260,0.30 L1320,0.32 L1380,0.32 L1440,1.70 L1500,1.37 L1560,1.60 L1620,1.82 L1680,1.33 L1740,2.10 L1800,1.33 L1860,0.53 L1920,0.32 L1980,0.30 L2040,1.12 L2100,0.38 L2160,1.90 L2220,1.32 L2280,5.75 L2340,3.17 L2400,1.48 L2460,1.35 L2520,1.35 L2580,1.28 L2640,2.10 L2700,1.42 L2760,1.55 L2820,1.38 L2880,1.32 L2940,2.05 L3000,1.43 L3060,1.28 L3120,1.28 L3180,1.30 L3240,2.10 L3300,1.35 L3360,1.55 L3420,0.82 L3480,0.37 L3540,1.12 L3600,0.53 L3660,0.32" style="vector-effect: non-scaling-stroke; stroke: #00cc00; stroke-width: 1; fill-opacity: 0" transform="scale(0.196721,-3.456221)"/>
<path d=" M60,1.27 L120,1.27 L180,0.72 L240,1.08 L300,0.35 L360,0.78 L420,0.30 L480,27.73 L540,3.35 L600,1.50 L660,13.13 L720,2.77 L780,5.98 L840,3.22 L900,1.45 L960,1.62 L1020,1.43 L1080,1.32 L1140,2.12 L1200,1.38 L1260,0.37 L1320,0.33 L1380,0.33 L1440,1.83 L1500,1.38 L1560,1.63 L1620,1.88 L1680,1.33 L1740,2.18 L1800,1.35 L1860,0.68 L1920,0.35 L1980,0.32 L2040,1.15 L2100,0.40 L2160,2.03 L2220,1.32 L2280,28.67 L2340,3.22 L2400,1.47 L2460,1.37 L2520,1.42 L2580,1.30 L2640,2.17 L2700,1.47 L2760,1.58 L2820,1.38 L2880,1.33 L2940,2.17 L3000,1.47 L3060,1.30 L3120,1.30 L3180,1.32 L3240,2.18 L3300,1.37 L3360,1.57 L3420,0.83 L3480,0.37 L3540,1.20 L3600,0.55 L3660,0.28" style="vector-effect: non-scaling-stroke; stroke: #ff00bf; stroke-width: 1; fill-opacity: 0" transform="scale(0.196721,-3.456221)"/>
</g>
<rect x="0" y="310" height="300" width="1050" fill="#000000"/>
<text x="0" y="330" style="fill: #ffff00; stroke: none">Network interfaces statistics (2) [ens5]
<tspan x="795" y="335" style="fill: #ffff00; stroke: none; font-size: 12px">(Min, Max values)</tspan>
</text>
<polyline points="70,360 70,560 790,560" style="fill: #000000; stroke: #ffffff; stroke-width: 2"/>
<text x="795" y="360" style="fill: #00ffff; stroke: none; font-size: 12px">rxkB/s (0.05, 77.68)</text>
<text x="795" y="375" style="fill: #ff0000; stroke: none; font-size: 12px">txkB/s (0.08, 37.98)</text>
<g transform="translate(70,560)">
<text x="0" y="0" style="fill: #ffffff; stroke: none; font-size: 12px; text-anchor: end">0.</text>
<polyline points="0,20.00 720,20.00" style="vector-effect: non-scaling-stroke; stroke: #202020" transform="scale(1,-2.574680)"/>
<text x="0" y="-51" style="fill: #ffffff; stroke: none; font-size: 12px; text-anchor: end">20.</text>
<polyline points="0,40.00 720,40.00" style="vector-effect: non-scaling-stroke; stroke: #202020" transform="scale(1,-2.574680)"/>
<text x="0" y="-102" style="fill: #ffffff; stroke: none; font-size: 12px; text-anchor: end">40.</text>
<polyline points="0,60.00 720,60.00" style="vector-effect: non-scaling-stroke; stroke: #202020" transform="scale(1,-2.574680)"/>
<text x="0" y="-154" style="fill: #ffffff; stroke: none; font-size: 12px; text-anchor: end">60.</text>
<polyline points="0,0 0,-200" style="vector-effect: non-scaling-stroke; stroke: #202020" transform="scale(0.196721,1)"/>
<text x="0" y="10" style="fill: #ffffff; stroke: none; font-size: 12px; text-anchor: start" transform="rotate(45,0,0)">01:21:39</text>
<polyline points="366,0 366,-200" style="vector-effect: non-scaling-stroke; stroke: #202020" transform="scale(0.196721,1)"/>
<text x="72" y="10" style="fill: #ffffff; stroke: none; font-size: 12px; text-anchor: start" transform="rotate(45,72,0)">01:27:45</text>
<polyline points="732,0 732,-200" style="vector-effect: non-scaling-stroke; stroke: #202020" transform="scale(0.196721,1)"/>
<text x="144" y="10" style="fill: #ffffff; stroke: none; font-size: 12px; text-anchor: start" transform="rotate(45,144,0)">01:33:51</text>
<polyline points="1098,0 1098,-200" style="vector-effect: non-scaling-stroke; stroke: #202020" transform="scale(0.196721,1)"/>
<text x="216" y="10" style="fill: #ffffff; stroke: none; font-size: 12px; text-anchor: start" transform="rotate(45,216,0)">01:39:57</text>
<polyline points="1464,0 1464,-200" style="vector-effect: non-scaling-stroke; stroke: #202020" transform="scale(0.196721,1)"/>
<text x="288" y="10" style="fill: #ffffff; stroke: none; font-size: 12px; text-anchor: start" transform="rotate(45,288,0)">01:46:03</text>
<polyline points="1830,0 1830,-200" style="vector-effect: non-scaling-stroke; stroke: #202020" transform="scale(0.196721,1)"/>
<text x="360" y="10" style="fill: #ffffff; stroke: none; font-size: 12px; text-anchor: start" transform="rotate(45,360,0)">01:52:09</text>
<polyline points="2196,0 2196,-200" style="vector-effect: non-scaling-stroke; stroke: #202020" transform="scale(0.196721,1)"/>
<text x="432" y="10" style="fill: #ffffff; stroke: none; font-size: 12px; text-anchor: start" transform="rotate(45,432,0)">01:58:15</text>
<polyline points="2562,0 2562,-200" style="vector-effect: non-scaling-stroke; stroke: #202020" transform="scale(0.196721,1)"/>
<text x="504" y="10" style="fill: #ffffff; stroke: none; font-size: 12px; text-anchor: start" transform="rotate(45,504,0)">02:04:21</text>
<polyline points="2928,0 2928,-200" style="vector-effect: non-scaling-stroke; stroke: #202020" transform="scale(0.196721,1)"/>
<text x="576" y="10" style="fill: #ffffff; stroke: none; font-size: 12px; text-anchor: start" transform="rotate(45,576,0)">02:10:27</text>
<polyline points="3294,0 3294,-200" style="vector-effect: non-scaling-stroke; stroke: #202020" transform="scale(0.196721,1)"/>
<text x="648" y="10" style="fill: #ffffff; stroke: none; font-size: 12px; text-anchor: start" transform="rotate(45,648,0)">02:16:33</text>
<polyline points="3660,0 3660,-200" style="vector-effect: non-scaling-stroke; stroke: #202020" transform="scale(0.196721,1)"/>
<text x="720" y="10" style="fill: #ffffff; stroke: none; font-size: 12px; text-anchor: start" transform="rotate(45,720,0)">02:22:39</text>
<text x="-10" y="30" style="fill: #ffff00; stroke: none; font-size: 12px; text-anchor: end">UTC</text>
<path d=" M60,0.10 L120,0.10 L180,0.08 L240,0.23 L300,0.06 L360,0.21 L420,0.05 L480,0.93 L540,0.34 L600,0.12 L660,0.21 L720,0.25 L780,77.68 L840,0.35 L900,0.10 L960,0.22 L1020,0.11 L1080,0.10 L1140,0.27 L1200,0.10 L1260,0.05 L1320,0.05 L1380,0.05 L1440,0.30 L1500,0.11 L1560,0.23 L1620,0.27 L1680,0.10 L1740,0.28 L1800,0.10 L1860,0.06 L1920,0.05 L1980,0.05 L2040,0.23 L2100,0.06 L2160,0.31 L2220,0.10 L2280,0.90 L2340,0.34 L2400,0.12 L2460,0.10 L2520,0.10 L2580,0.10 L2640,0.28 L2700,0.12 L2760,0.22 L2820,0.11 L2880,0.11 L2940,0.28 L3000,0.12 L3060,0.10 L3120,0.10 L3180,0.10 L3240,0.28 L3300,0.10 L3360,0.23 L3420,0.21 L3480,0.05 L3540,0.23 L3600,0.10 L3660,0.05" style="vector-effect: non-scaling-stroke; stroke: #00ffff; stroke-width: 1; fill-opacity: 0" transform="scale(0.196721,-2.574680)"/>
<path d=" M60,0.14 L120,0.14 L180,0.11 L240,0.22 L300,0.08 L360,0.18 L420,0.08 L480,37.95 L540,0.40 L600,0.23 L660,17.18 L720,0.55 L780,0.88 L840,0.42 L900,0.14 L960,0.23 L1020,0.15 L1080,0.15 L1140,0.29 L1200,0.15 L1260,0.09 L1320,0.08 L1380,0.08 L1440,0.35 L1500,0.15 L1560,0.23 L1620,0.25 L1680,0.15 L1740,0.29 L1800,0.15 L1860,0.11 L1920,0.08 L1980,0.08 L2040,0.23 L2100,0.09 L2160,0.34 L2220,0.15 L2280,37.98 L2340,0.39 L2400,0.19 L2460,0.15 L2520,0.15 L2580,0.15 L2640,0.29 L2700,0.21 L2760,0.22 L2820,0.15 L2880,0.17 L2940,0.29 L3000,0.21 L3060,0.15 L3120,0.15 L3180,0.15 L3240,0.29 L3300,0.15 L3360,0.23 L3420,0.19 L3480,0.09 L3540,0.23 L3600,0.15 L3660,0.08" style="vector-effect: non-scaling-stroke; stroke: #ff0000; stroke-width: 1; fill-opacity: 0" transform="scale(0.196721,-2.574680)"/>
</g>
<rect x="0" y="620" height="300" width="1050" fill="#000000"/>
<text x="0" y="640" style="fill: #ffff00; stroke: none">Network interfaces statistics (3) [ens5]
<tspan x="795" y="645" style="fill: #ffff00; stroke: none; font-size: 12px">(Min, Max values)</tspan>
</text>
<polyline points="70,670 70,870 790,870" style="fill: #000000; stroke: #ffffff; stroke-width: 2"/>
<text x="795" y="670" style="fill: #e85f00; stroke: none; font-size: 12px">rxcmp/s (0.00, 0.00)</text>
<text x="795" y="685" style="fill: #0000ff; stroke: none; font-size: 12px">txcmp/s (0.00, 0.00)</text>
<text x="795" y="700" style="fill: #006020; stroke: none; font-size: 12px">rxmcst/s (0.00, 0.00)</text>
<g transform="translate(70,870)">
<text x="0" y="0" style="fill: #ffffff; stroke: none; font-size: 12px; text-anchor: end">0.00.</text>
<polyline points="0,0.33 720,0.33" style="vector-effect: non-scaling-stroke; stroke: #202020" transform="scale(1,-200.000000)"/>
<text x="0" y="-66" style="fill: #ffffff; stroke: none; font-size: 12px; text-anchor: end">0.33.</text>
<polyline points="0,0.67 720,0.67" style="vector-effect: non-scaling-stroke; stroke: #202020" transform="scale(1,-200.000000)"/>
<text x="0" y="-134" style="fill: #ffffff; stroke: none; font-size: 12px; text-anchor: end">0.67.</text>
<polyline points="0,1.00 720,1.00" style="vector-effect: non-scaling-stroke; stroke: #202020" transform="scale(1,-200.000000)"/>
<text x="0" y="-200" style="fill: #ffffff; stroke: none; font-size: 12px; text-anchor: end">1.00.</text>
<polyline points="0,0 0,-200" style="vector-effect: non-scaling-stroke; stroke: #202020" transform="scale(0.196721,1)"/>
<text x="0" y="10" style="fill: #ffffff; stroke: none; font-size: 12px; text-anchor: start" transform="rotate(45,0,0)">01:21:39</text>
<polyline points="366,0 366,-200" style="vector-effect: non-scaling-stroke; stroke: #202020" transform="scale(0.196721,1)"/>
<text x="72" y="10" style="fill: #ffffff; stroke: none; font-size: 12px; text-anchor: start" transform="rotate(45,72,0)">01:27:45</text>
<polyline points="732,0 732,-200" style="vector-effect: non-scaling-stroke; stroke: #202020" transform="scale(0.196721,1)"/>
<text x="144" y="10" style="fill: #ffffff; stroke: none; font-size: 12px; text-anchor: start" transform="rotate(45,144,0)">01:33:51</text>
<polyline points="1098,0 1098,-200" style="vector-effect: non-scaling-stroke; stroke: #202020" transform="scale(0.196721,1)"/>
<text x="216" y="10" style="fill: #ffffff; stroke: none; font-size: 12px; text-anchor: start" transform="rotate(45,216,0)">01:39:57</text>
<polyline points="1464,0 1464,-200" style="vector-effect: non-scaling-stroke; stroke: #202020" transform="scale(0.196721,1)"/>
<text x="288" y="10" style="fill: #ffffff; stroke: none; font-size: 12px; text-anchor: start" transform="rotate(45,288,0)">01:46:03</text>
<polyline points="1830,0 1830,-200" style="vector-effect: non-scaling-stroke; stroke: #202020" transform="scale(0.196721,1)"/>
<text x="360" y="10" style="fill: #ffffff; stroke: none; font-size: 12px; text-anchor: start" transform="rotate(45,360,0)">01:52:09</text>
<polyline points="2196,0 2196,-200" style="vector-effect: non-scaling-stroke; stroke: #202020" transform="scale(0.196721,1)"/>
<text x="432" y="10" style="fill: #ffffff; stroke: none; font-size: 12px; text-anchor: start" transform="rotate(45,432,0)">01:58:15</text>
<polyline points="2562,0 2562,-200" style="vector-effect: non-scaling-stroke; stroke: #202020" transform="scale(0.196721,1)"/>
<text x="504" y="10" style="fill: #ffffff; stroke: none; font-size: 12px; text-anchor: start" transform="rotate(45,504,0)">02:04:21</text>
<polyline points="2928,0 2928,-200" style="vector-effect: non-scaling-stroke; stroke: #202020" transform="scale(0.196721,1)"/>
<text x="576" y="10" style="fill: #ffffff; stroke: none; font-size: 12px; text-anchor: start" transform="rotate(45,576,0)">02:10:27</text>
<polyline points="3294,0 3294,-200" style="vector-effect: non-scaling-stroke; stroke: #202020" transform="scale(0.196721,1)"/>
<text x="648" y="10" style="fill: #ffffff; stroke: none; font-size: 12px; text-anchor: start" transform="rotate(45,648,0)">02:16:33</text>
<polyline points="3660,0 3660,-200" style="vector-effect: non-scaling-stroke; stroke: #202020" transform="scale(0.196721,1)"/>
<text x="720" y="10" style="fill: #ffffff; stroke: none; font-size: 12px; text-anchor: start" transform="rotate(45,720,0)">02:22:39</text>
<text x="-10" y="30" style="fill: #ffff00; stroke: none; font-size: 12px; text-anchor: end">UTC</text>
<path d=" M60,0.00 L120,0.00 L180,0.00 L240,0.00 L300,0.00 L360,0.00 L420,0.00 L480,0.00 L540,0.00 L600,0.00 L660,0.00 L720,0.00 L780,0.00 L840,0.00 L900,0.00 L960,0.00 L1020,0.00 L1080,0.00 L1140,0.00 L1200,0.00 L1260,0.00 L1320,0.00 L1380,0.00 L1440,0.00 L1500,0.00 L1560,0.00 L1620,0.00 L1680,0.00 L1740,0.00 L1800,0.00 L1860,0.00 L1920,0.00 L1980,0.00 L2040,0.00 L2100,0.00 L2160,0.00 L2220,0.00 L2280,0.00 L2340,0.00 L2400,0.00 L2460,0.00 L2520,0.00 L2580,0.00 L2640,0.00 L2700,0.00 L2760,0.00 L2820,0.00 L2880,0.00 L2940,0.00 L3000,0.00 L3060,0.00 L3120,0.00 L3180,0.00 L3240,0.00 L3300,0.00 L3360,0.00 L3420,0.00 L3480,0.00 L3540,0.00 L3600,0.00 L3660,0.00" style="vector-effect: non-scaling-stroke; stroke: #e85f00; stroke-width: 1; fill-opacity: 0" transform="scale(0.196721,-200.000000)"/>
<path d=" M60,0.00 L120,0.00 L180,0.00 L240,0.00 L300,0.00 L360,0.00 L420,0.00 L480,0.00 L540,0.00 L600,0.00 L660,0.00 L720,0.00 L780,0.00 L840,0.00 L900,0.00 L960,0.00 L1020,0.00 L1080,0.00 L1140,0.00 L1200,0.00 L1260,0.00 L1320,0.00 L1380,0.00 L1440,0.00 L1500,0.00 L1560,0.00 L1620,0.00 L1680,0.00 L1740,0.00 L1800,0.00 L1860,0.00 L1920,0.00 L1980,0.00 L2040,0.00 L2100,0.00 L2160,0.00 L2220,0.00 L2280,0.00 L2340,0.00 L2400,0.00 L2460,0.00 L2520,0.00 L2580,0.00 L2640,0.00 L2700,0.00 L2760,0.00 L2820,0.00 L2880,0.00 L2940,0.00 L3000,0.00 L3060,0.00 L3120,0.00 L3180,0.00 L3240,0.00 L3300,0.00 L3360,0.00 L3420,0.00 L3480,0.00 L3540,0.00 L3600,0.00 L3660,0.00" style="vector-effect: non-scaling-stroke; stroke: #0000ff; stroke-width: 1; fill-opacity: 0" transform="scale(0.196721,-200.000000)"/>
<path d=" M60,0.00 L120,0.00 L180,0.00 L240,0.00 L300,0.00 L360,0.00 L420,0.00 L480,0.00 L540,0.00 L600,0.00 L660,0.00 L720,0.00 L780,0.00 L840,0.00 L900,0.00 L960,0.00 L1020,0.00 L1080,0.00 L1140,0.00 L1200,0.00 L1260,0.00 L1320,0.00 L1380,0.00 L1440,0.00 L1500,0.00 L1560,0.00 L1620,0.00 L1680,0.00 L1740,0.00 L1800,0.00 L1860,0.00 L1920,0.00 L1980,0.00 L2040,0.00 L2100,0.00 L2160,0.00 L2220,0.00 L2280,0.00 L2340,0.00 L2400,0.00 L2460,0.00 L2520,0.00 L2580,0.00 L2640,0.00 L2700,0.00 L2760,0.00 L2820,0.00 L2880,0.00 L2940,0.00 L3000,0.00 L3060,0.00 L3120,0.00 L3180,0.00 L3240,0.00 L3300,0.00 L3360,0.00 L3420,0.00 L3480,0.00 L3540,0.00 L3600,0.00 L3660,0.00" style="vector-effect: non-scaling-stroke; stroke: #006020; stroke-width: 1; fill-opacity: 0" transform="scale(0.196721,-200.000000)"/>
</g>
<rect x="0" y="930" height="300" width="1050" fill="#000000"/>
<text x="0" y="950" style="fill: #ffff00; stroke: none">Network interfaces statistics (4) [ens5]
<tspan x="795" y="955" style="fill: #ffff00; stroke: none; font-size: 12px">(Min, Max values)</tspan>
</text>
<polyline points="70,980 70,1180 790,1180" style="fill: #000000; stroke: #ffffff; stroke-width: 2"/>
<text x="795" y="980" style="fill: #7030a0; stroke: none; font-size: 12px">%ifutil (0.00, 0.00)</text>
<g transform="translate(70,1180)">
<text x="0" y="0" style="fill: #ffffff; stroke: none; font-size: 12px; text-anchor: end">0.</text>
<polyline points="0,25.00 720,25.00" style="vector-effect: non-scaling-stroke; stroke: #202020" transform="scale(1,-2.000000)"/>
<text x="0" y="-50" style="fill: #ffffff; stroke: none; font-size: 12px; text-anchor: end">25.</text>
<polyline points="0,50.00 720,50.00" style="vector-effect: non-scaling-stroke; stroke: #202020" transform="scale(1,-2.000000)"/>
<text x="0" y="-100" style="fill: #ffffff; stroke: none; font-size: 12px; text-anchor: end">50.</text>
<polyline points="0,75.00 720,75.00" style="vector-effect: non-scaling-stroke; stroke: #202020" transform="scale(1,-2.000000)"/>
<text x="0" y="-150" style="fill: #ffffff; stroke: none; font-size: 12px; text-anchor: end">75.</text>
<polyline points="0,100.00 720,100.00" style="vector-effect: non-scaling-stroke; stroke: #202020" transform="scale(1,-2.000000)"/>
<text x="0" y="-200" style="fill: #ffffff; stroke: none; font-size: 12px; text-anchor: end">100.</text>
<polyline points="0,0 0,-200" style="vector-effect: non-scaling-stroke; stroke: #202020" transform="scale(0.196721,1)"/>
<text x="0" y="10" style="fill: #ffffff; stroke: none; font-size: 12px; text-anchor: start" transform="rotate(45,0,0)">01:21:39</text>
<polyline points="366,0 366,-200" style="vector-effect: non-scaling-stroke; stroke: #202020" transform="scale(0.196721,1)"/>
<text x="72" y="10" style="fill: #ffffff; stroke: none; font-size: 12px; text-anchor: start" transform="rotate(45,72,0)">01:27:45</text>
<polyline points="732,0 732,-200" style="vector-effect: non-scaling-stroke; stroke: #202020" transform="scale(0.196721,1)"/>
<text x="144" y="10" style="fill: #ffffff; stroke: none; font-size: 12px; text-anchor: start" transform="rotate(45,144,0)">01:33:51</text>
<polyline points="1098,0 1098,-200" style="vector-effect: non-scaling-stroke; stroke: #202020" transform="scale(0.196721,1)"/>
<text x="216" y="10" style="fill: #ffffff; stroke: none; font-size: 12px; text-anchor: start" transform="rotate(45,216,0)">01:39:57</text>
<polyline points="1464,0 1464,-200" style="vector-effect: non-scaling-stroke; stroke: #202020" transform="scale(0.196721,1)"/>
<text x="288" y="10" style="fill: #ffffff; stroke: none; font-size: 12px; text-anchor: start" transform="rotate(45,288,0)">01:46:03</text>
<polyline points="1830,0 1830,-200" style="vector-effect: non-scaling-stroke; stroke: #202020" transform="scale(0.196721,1)"/>
<text x="360" y="10" style="fill: #ffffff; stroke: none; font-size: 12px; text-anchor: start" transform="rotate(45,360,0)">01:52:09</text>
<polyline points="2196,0 2196,-200" style="vector-effect: non-scaling-stroke; stroke: #202020" transform="scale(0.196721,1)"/>
<text x="432" y="10" style="fill: #ffffff; stroke: none; font-size: 12px; text-anchor: start" transform="rotate(45,432,0)">01:58:15</text>
<polyline points="2562,0 2562,-200" style="vector-effect: non-scaling-stroke; stroke: #202020" transform="scale(0.196721,1)"/>
<text x="504" y="10" style="fill: #ffffff; stroke: none; font-size: 12px; text-anchor: start" transform="rotate(45,504,0)">02:04:21</text>
<polyline points="2928,0 2928,-200" style="vector-effect: non-scaling-stroke; stroke: #202020" transform="scale(0.196721,1)"/>
<text x="576" y="10" style="fill: #ffffff; stroke: none; font-size: 12px; text-anchor: start" transform="rotate(45,576,0)">02:10:27</text>
<polyline points="3294,0 3294,-200" style="vector-effect: non-scaling-stroke; stroke: #202020" transform="scale(0.196721,1)"/>
<text x="648" y="10" style="fill: #ffffff; stroke: none; font-size: 12px; text-anchor: start" transform="rotate(45,648,0)">02:16:33</text>
<polyline points="3660,0 3660,-200" style="vector-effect: non-scaling-stroke; stroke: #202020" transform="scale(0.196721,1)"/>
<text x="720" y="10" style="fill: #ffffff; stroke: none; font-size: 12px; text-anchor: start" transform="rotate(45,720,0)">02:22:39</text>
<text x="-10" y="30" style="fill: #ffff00; stroke: none; font-size: 12px; text-anchor: end">UTC</text>
</g>
</g>
<!-- Actual canvas height: 2540 -->
</svg>
