<?xml version="1.0" encoding="UTF-8"?>
<!DOCTYPE svg PUBLIC "-//W3C//DTD SVG 1.1//EN" "http://www.w3.org/Graphics/SVG/1.1/DTD/svg11.dtd">
<svg xmlns="http://www.w3.org/2000/svg" width="1060" height="2540" fill="black" stroke="#808080" stroke-width="1">
<text x="0" y="30" text-anchor="start" stroke="#a52a2a">Linux 6.12.94+deb13-cloud-amd64 (madrona) 	09/12/26 	_x86_64_	(16 CPU)
</text>
<g id="g12-0" transform="translate(0,60)">
<rect x="0" y="0" height="300" width="1050" fill="#000000"/>
<text x="0" y="20" style="fill: #ffff00; stroke: none">Network interfaces statistics (1) [lo]
<tspan x="795" y="25" style="fill: #ffff00; stroke: none; font-size: 12px">(Min, Max values)</tspan>
</text>
<polyline points="70,50 70,250 790,250" style="fill: #000000; stroke: #ffffff; stroke-width: 2"/>
<text x="795" y="50" style="fill: #00cc00; stroke: none; font-size: 12px">rxpck/s (2710.35, 9350.38)</text>
<text x="795" y="65" style="fill: #ff00bf; stroke: none; font-size: 12px">txpck/s (2710.35, 9350.38)</text>
<g transform="translate(70,250)">
<text x="0" y="0" style="fill: #ffffff; stroke: none; font-size: 12px; text-anchor: end">0.</text>
<polyline points="0,3000.00 720,3000.00" style="vector-effect: non-scaling-stroke; stroke: #202020" transform="scale(1,-0.021389)"/>
<text x="0" y="-64" style="fill: #ffffff; stroke: none; font-size: 12px; text-anchor: end">3000.</text>
<polyline points="0,6000.00 720,6000.00" style="vector-effect: non-scaling-stroke; stroke: #202020" transform="scale(1,-0.021389)"/>
<text x="0" y="-128" style="fill: #ffffff; stroke: none; font-size: 12px; text-anchor: end">6000.</text>
<polyline points="0,9000.00 720,9000.00" style="vector-effect: non-scaling-stroke; stroke: #202020" transform="scale(1,-0.021389)"/>
<text x="0" y="-192" style="fill: #ffffff; stroke: none; font-size: 12px; text-anchor: end">9000.</text>
<polyline points="0,0 0,-200" style="vector-effect: non-scaling-stroke; stroke: #202020" transform="scale(0.196721,1)"/>
<text x="0" y="10" style="fill: #ffffff; stroke: none; font-size: 12px; text-anchor: start" transform="rotate(45,0,0)">05:05:55</text>
<polyline points="366,0 366,-200" style="vector-effect: non-scaling-stroke; stroke: #202020" transform="scale(0.196721,1)"/>
<text x="72" y="10" style="fill: #ffffff; stroke: none; font-size: 12px; text-anchor: start" transform="rotate(45,72,0)">05:12:01</text>
<polyline points="732,0 732,-200" style="vector-effect: non-scaling-stroke; stroke: #202020" transform="scale(0.196721,1)"/>
<text x="144" y="10" style="fill: #ffffff; stroke: none; font-size: 12px; text-anchor: start" transform="rotate(45,144,0)">05:18:07</text>
<polyline points="1098,0 1098,-200" style="vector-effect: non-scaling-stroke; stroke: #202020" transform="scale(0.196721,1)"/>
<text x="216" y="10" style="fill: #ffffff; stroke: none; font-size: 12px; text-anchor: start" transform="rotate(45,216,0)">05:24:13</text>
<polyline points="1464,0 1464,-200" style="vector-effect: non-scaling-stroke; stroke: #202020" transform="scale(0.196721,1)"/>
<text x="288" y="10" style="fill: #ffffff; stroke: none; font-size: 12px; text-anchor: start" transform="rotate(45,288,0)">05:30:19</text>
<polyline points="1830,0 1830,-200" style="vector-effect: non-scaling-stroke; stroke: #202020" transform="scale(0.196721,1)"/>
<text x="360" y="10" style="fill: #ffffff; stroke: none; font-size: 12px; text-anchor: start" transform="rotate(45,360,0)">05:36:25</text>
<polyline points="2196,0 2196,-200" style="vector-effect: non-scaling-stroke; stroke: #202020" transform="scale(0.196721,1)"/>
<text x="432" y="10" style="fill: #ffffff; stroke: none; font-size: 12px; text-anchor: start" transform="rotate(45,432,0)">05:42:31</text>
<polyline points="2562,0 2562,-200" style="vector-effect: non-scaling-stroke; stroke: #202020" transform="scale(0.196721,1)"/>
<text x="504" y="10" style="fill: #ffffff; stroke: none; font-size: 12px; text-anchor: start" transform="rotate(45,504,0)">05:48:37</text>
<polyline points="2928,0 2928,-200" style="vector-effect: non-scaling-stroke; stroke: #202020" transform="scale(0.196721,1)"/>
<text x="576" y="10" style="fill: #ffffff; stroke: none; font-size: 12px; text-anchor: start" transform="rotate(45,576,0)">05:54:43</text>
<polyline points="3294,0 3294,-200" style="vector-effect: non-scaling-stroke; stroke: #202020" transform="scale(0.196721,1)"/>
<text x="648" y="10" style="fill: #ffffff; stroke: none; font-size: 12px; text-anchor: start" transform="rotate(45,648,0)">06:00:49</text>
<polyline points="3660,0 3660,-200" style="vector-effect: non-scaling-stroke; stroke: #202020" transform="scale(0.196721,1)"/>
<text x="720" y="10" style="fill: #ffffff; stroke: none; font-size: 12px; text-anchor: start" transform="rotate(45,720,0)">06:06:55</text>
<text x="-10" y="30" style="fill: #ffff00; stroke: none; font-size: 12px; text-anchor: end">UTC</text>
<path d=" M60,4921.70 L120,6270.90 L180,8873.87 L240,6771.62 L300,8302.72 L360,7309.03 L420,8570.83 L480,8155.85 L540,5069.15 L600,7698.57 L660,8733.57 L720,7028.63 L780,8648.22 L840,7679.02 L900,8493.98 L960,8365.05 L1020,4952.83 L1080,8002.52 L1140,8904.85 L1200,7440.40 L1260,9165.62 L1320,7956.52 L1380,4997.43 L1440,7453.87 L1500,9005.18 L1560,7470.63 L1620,8990.97 L1680,7602.13 L1740,8063.75 L1800,8376.57 L1860,7564.93 L1920,9350.38 L1980,4011.27 L2040,8442.42 L2100,8132.12 L2160,8145.73 L2220,8617.30 L2280,8396.27 L2340,4891.97 L2400,8001.30 L2460,8067.45 L2520,8044.75 L2580,8398.00 L2640,8338.00 L2700,6206.32 L2760,8830.02 L2820,8387.97 L2880,8618.75 L2940,2710.35 L3000,7369.37 L3060,8880.88 L3120,7571.55 L3180,8939.15 L3240,5079.90 L3300,9059.53 L3360,7055.43 L3420,9295.15 L3480,7572.20 L3540,9155.98 L3600,6227.57 L3660,9168.12" style="vector-effect: non-scaling-stroke; stroke: #00cc00; stroke-width: 1; fill-opacity: 0" transform="scale(0.196721,-0.021389)"/>
<path d=" M60,4921.70 L120,6270.90 L180,8873.87 L240,6771.62 L300,8302.72 L360,7309.03 L420,8570.83 L480,8155.85 L540,5069.15 L600,7698.57 L660,8733.57 L720,7028.63 L780,8648.22 L840,7679.02 L900,8493.98 L960,8365.05 L1020,4952.83 L1080,8002.52 L1140,8904.85 L1200,7440.40 L1260,9165.62 L1320,7956.52 L1380,4997.43 L1440,7453.87 L1500,9005.18 L1560,7470.63 L1620,8990.97 L1680,7602.13 L1740,8063.75 L1800,8376.57 L1860,7564.93 L1920,9350.38 L1980,4011.27 L2040,8442.42 L2100,8132.12 L2160,8145.73 L2220,8617.30 L2280,8396.27 L2340,4891.97 L2400,8001.30 L2460,8067.45 L2520,8044.75 L2580,8398.00 L2640,8338.00 L2700,6206.32 L2760,8830.02 L2820,8387.97 L2880,8618.75 L2940,2710.35 L3000,7369.37 L3060,8880.88 L3120,7571.55 L3180,8939.15 L3240,5079.90 L3300,9059.53 L3360,7055.43 L3420,9295.15 L3480,7572.20 L3540,9155.98 L3600,6227.57 L3660,9168.12" style="vector-effect: non-scaling-stroke; stroke: #ff00bf; stroke-width: 1; fill-opacity: 0" transform="scale(0.196721,-0.021389)"/>
</g>
<rect x="0" y="310" height="300" width="1050" fill="#000000"/>
<text x="0" y="330" style="fill: #ffff00; stroke: none">Network interfaces statistics (2) [lo]
<tspan x="795" y="335" style="fill: #ffff00; stroke: none; font-size: 12px">(Min, Max values)</tspan>
</text>
<polyline points="70,360 70,560 790,560" style="fill: #000000; stroke: #ffffff; stroke-width: 2"/>
<text x="795" y="360" style="fill: #00ffff; stroke: none; font-size: 12px">rxkB/s (1220.91, 4681.35)</text>
<text x="795" y="375" style="fill: #ff0000; stroke: none; font-size: 12px">txkB/s (1220.91, 4681.35)</text>
<g transform="translate(70,560)">
<text x="0" y="0" style="fill: #ffffff; stroke: none; font-size: 12px; text-anchor: end">0.</text>
<polyline points="0,1000.00 720,1000.00" style="vector-effect: non-scaling-stroke; stroke: #202020" transform="scale(1,-0.042723)"/>
<text x="0" y="-42" style="fill: #ffffff; stroke: none; font-size: 12px; text-anchor: end">1000.</text>
<polyline points="0,2000.00 720,2000.00" style="vector-effect: non-scaling-stroke; stroke: #202020" transform="scale(1,-0.042723)"/>
<text x="0" y="-85" style="fill: #ffffff; stroke: none; font-size: 12px; text-anchor: end">2000.</text>
<polyline points="0,3000.00 720,3000.00" style="vector-effect: non-scaling-stroke; stroke: #202020" transform="scale(1,-0.042723)"/>
<text x="0" y="-128" style="fill: #ffffff; stroke: none; font-size: 12px; text-anchor: end">3000.</text>
<polyline points="0,4000.00 720,4000.00" style="vector-effect: non-scaling-stroke; stroke: #202020" transform="scale(1,-0.042723)"/>
<text x="0" y="-170" style="fill: #ffffff; stroke: none; font-size: 12px; text-anchor: end">4000.</text>
<polyline points="0,0 0,-200" style="vector-effect: non-scaling-stroke; stroke: #202020" transform="scale(0.196721,1)"/>
<text x="0" y="10" style="fill: #ffffff; stroke: none; font-size: 12px; text-anchor: start" transform="rotate(45,0,0)">05:05:55</text>
<polyline points="366,0 366,-200" style="vector-effect: non-scaling-stroke; stroke: #202020" transform="scale(0.196721,1)"/>
<text x="72" y="10" style="fill: #ffffff; stroke: none; font-size: 12px; text-anchor: start" transform="rotate(45,72,0)">05:12:01</text>
<polyline points="732,0 732,-200" style="vector-effect: non-scaling-stroke; stroke: #202020" transform="scale(0.196721,1)"/>
<text x="144" y="10" style="fill: #ffffff; stroke: none; font-size: 12px; text-anchor: start" transform="rotate(45,144,0)">05:18:07</text>
<polyline points="1098,0 1098,-200" style="vector-effect: non-scaling-stroke; stroke: #202020" transform="scale(0.196721,1)"/>
<text x="216" y="10" style="fill: #ffffff; stroke: none; font-size: 12px; text-anchor: start" transform="rotate(45,216,0)">05:24:13</text>
<polyline points="1464,0 1464,-200" style="vector-effect: non-scaling-stroke; stroke: #202020" transform="scale(0.196721,1)"/>
<text x="288" y="10" style="fill: #ffffff; stroke: none; font-size: 12px; text-anchor: start" transform="rotate(45,288,0)">05:30:19</text>
<polyline points="1830,0 1830,-200" style="vector-effect: non-scaling-stroke; stroke: #202020" transform="scale(0.196721,1)"/>
<text x="360" y="10" style="fill: #ffffff; stroke: none; font-size: 12px; text-anchor: start" transform="rotate(45,360,0)">05:36:25</text>
<polyline points="2196,0 2196,-200" style="vector-effect: non-scaling-stroke; stroke: #202020" transform="scale(0.196721,1)"/>
<text x="432" y="10" style="fill: #ffffff; stroke: none; font-size: 12px; text-anchor: start" transform="rotate(45,432,0)">05:42:31</text>
<polyline points="2562,0 2562,-200" style="vector-effect: non-scaling-stroke; stroke: #202020" transform="scale(0.196721,1)"/>
<text x="504" y="10" style="fill: #ffffff; stroke: none; font-size: 12px; text-anchor: start" transform="rotate(45,504,0)">05:48:37</text>
<polyline points="2928,0 2928,-200" style="vector-effect: non-scaling-stroke; stroke: #202020" transform="scale(0.196721,1)"/>
<text x="576" y="10" style="fill: #ffffff; stroke: none; font-size: 12px; text-anchor: start" transform="rotate(45,576,0)">05:54:43</text>
<polyline points="3294,0 3294,-200" style="vector-effect: non-scaling-stroke; stroke: #202020" transform="scale(0.196721,1)"/>
<text x="648" y="10" style="fill: #ffffff; stroke: none; font-size: 12px; text-anchor: start" transform="rotate(45,648,0)">06:00:49</text>
<polyline points="3660,0 3660,-200" style="vector-effect: non-scaling-stroke; stroke: #202020" transform="scale(0.196721,1)"/>
<text x="720" y="10" style="fill: #ffffff; stroke: none; font-size: 12px; text-anchor: start" transform="rotate(45,720,0)">06:06:55</text>
<text x="-10" y="30" style="fill: #ffff00; stroke: none; font-size: 12px; text-anchor: end">UTC</text>
<path d=" M60,2433.84 L120,3182.67 L180,4513.07 L240,3363.46 L300,4080.53 L360,3624.83 L420,4316.75 L480,4152.54 L540,2395.71 L600,3777.53 L660,4336.08 L720,3410.25 L780,4265.33 L840,3772.97 L900,4158.97 L960,4109.18 L1020,2363.65 L1080,3999.19 L1140,4381.37 L1200,3625.91 L1260,4490.39 L1320,3896.40 L1380,2421.18 L1440,3620.63 L1500,4506.11 L1560,3654.44 L1620,4464.66 L1680,3767.37 L1740,3964.61 L1800,4078.53 L1860,3702.58 L1920,4681.35 L1980,1870.18 L2040,4119.87 L2100,4061.33 L2160,4003.23 L2220,4244.91 L2280,4128.95 L2340,2293.10 L2400,3965.93 L2460,3964.85 L2520,4028.76 L2580,4187.49 L2640,4087.23 L2700,3035.96 L2760,4344.05 L2820,4211.25 L2880,4260.40 L2940,1220.91 L3000,3619.12 L3060,4456.63 L3120,3693.85 L3180,4396.68 L3240,2416.57 L3300,4472.31 L3360,3500.86 L3420,4605.43 L3480,3832.29 L3540,4669.22 L3600,3032.14 L3660,4510.44" style="vector-effect: non-scaling-stroke; stroke: #00ffff; stroke-width: 1; fill-opacity: 0" transform="scale(0.196721,-0.042723)"/>
<path d=" M60,2433.84 L120,3182.67 L180,4513.07 L240,3363.46 L300,4080.53 L360,3624.83 L420,4316.75 L480,4152.54 L540,2395.71 L600,3777.53 L660,4336.08 L720,3410.25 L780,4265.33 L840,3772.97 L900,4158.97 L960,4109.18 L1020,2363.65 L1080,3999.19 L1140,4381.37 L1200,3625.91 L1260,4490.39 L1320,3896.40 L1380,2421.18 L1440,3620.63 L1500,4506.11 L1560,3654.44 L1620,4464.66 L1680,3767.37 L1740,3964.61 L1800,4078.53 L1860,3702.58 L1920,4681.35 L1980,1870.18 L2040,4119.87 L2100,4061.33 L2160,4003.23 L2220,4244.91 L2280,4128.95 L2340,2293.10 L2400,3965.93 L2460,3964.85 L2520,4028.76 L2580,4187.49 L2640,4087.23 L2700,3035.96 L2760,4344.05 L2820,4211.25 L2880,4260.40 L2940,1220.91 L3000,3619.12 L3060,4456.63 L3120,3693.85 L3180,4396.68 L3240,2416.57 L3300,4472.31 L3360,3500.86 L3420,4605.43 L3480,3832.29 L3540,4669.22 L3600,3032.14 L3660,4510.44" style="vector-effect: non-scaling-stroke; stroke: #ff0000; stroke-width: 1; fill-opacity: 0" transform="scale(0.196721,-0.042723)"/>
</g>
<rect x="0" y="620" height="300" width="1050" fill="#000000"/>
<text x="0" y="640" style="fill: #ffff00; stroke: none">Network interfaces statistics (3) [lo]
<tspan x="795" y="645" style="fill: #ffff00; stroke: none; font-size: 12px">(Min, Max values)</tspan>
</text>
<polyline points="70,670 70,870 790,870" style="fill: #000000; stroke: #ffffff; stroke-width: 2"/>
<text x="795" y="670" style="fill: #e85f00; stroke: none; font-size: 12px">rxcmp/s (0.00, 0.00)</text>
<text x="795" y="685" style="fill: #0000ff; stroke: none; font-size: 12px">txcmp/s (0.00, 0.00)</text>
<text x="795" y="700" style="fill: #006020; stroke: none; font-size: 12px">rxmcst/s (0.00, 0.00)</text>
<g transform="translate(70,870)">
<text x="0" y="0" style="fill: #ffffff; stroke: none; font-size: 12px; text-anchor: end">0.00.</text>
<polyline points="0,0.33 720,0.33" style="vector-effect: non-scaling-stroke; stroke: #202020" transform="scale(1,-200.000000)"/>
<text x="0" y="-66" style="fill: #ffffff; stroke: none; font-size: 12px; text-anchor: end">0.33.</text>
<polyline points="0,0.67 720,0.67" style="vector-effect: non-scaling-stroke; stroke: #202020" transform="scale(1,-200.000000)"/>
<text x="0" y="-134" style="fill: #ffffff; stroke: none; font-size: 12px; text-anchor: end">0.67.</text>
<polyline points="0,1.00 720,1.00" style="vector-effect: non-scaling-stroke; stroke: #202020" transform="scale(1,-200.000000)"/>
<text x="0" y="-200" style="fill: #ffffff; stroke: none; font-size: 12px; text-anchor: end">1.00.</text>
<polyline points="0,0 0,-200" style="vector-effect: non-scaling-stroke; stroke: #202020" transform="scale(0.196721,1)"/>
<text x="0" y="10" style="fill: #ffffff; stroke: none; font-size: 12px; text-anchor: start" transform="rotate(45,0,0)">05:05:55</text>
<polyline points="366,0 366,-200" style="vector-effect: non-scaling-stroke; stroke: #202020" transform="scale(0.196721,1)"/>
<text x="72" y="10" style="fill: #ffffff; stroke: none; font-size: 12px; text-anchor: start" transform="rotate(45,72,0)">05:12:01</text>
<polyline points="732,0 732,-200" style="vector-effect: non-scaling-stroke; stroke: #202020" transform="scale(0.196721,1)"/>
<text x="144" y="10" style="fill: #ffffff; stroke: none; font-size: 12px; text-anchor: start" transform="rotate(45,144,0)">05:18:07</text>
<polyline points="1098,0 1098,-200" style="vector-effect: non-scaling-stroke; stroke: #202020" transform="scale(0.196721,1)"/>
<text x="216" y="10" style="fill: #ffffff; stroke: none; font-size: 12px; text-anchor: start" transform="rotate(45,216,0)">05:24:13</text>
<polyline points="1464,0 1464,-200" style="vector-effect: non-scaling-stroke; stroke: #202020" transform="scale(0.196721,1)"/>
<text x="288" y="10" style="fill: #ffffff; stroke: none; font-size: 12px; text-anchor: start" transform="rotate(45,288,0)">05:30:19</text>
<polyline points="1830,0 1830,-200" style="vector-effect: non-scaling-stroke; stroke: #202020" transform="scale(0.196721,1)"/>
<text x="360" y="10" style="fill: #ffffff; stroke: none; font-size: 12px; text-anchor: start" transform="rotate(45,360,0)">05:36:25</text>
<polyline points="2196,0 2196,-200" style="vector-effect: non-scaling-stroke; stroke: #202020" transform="scale(0.196721,1)"/>
<text x="432" y="10" style="fill: #ffffff; stroke: none; font-size: 12px; text-anchor: start" transform="rotate(45,432,0)">05:42:31</text>
<polyline points="2562,0 2562,-200" style="vector-effect: non-scaling-stroke; stroke: #202020" transform="scale(0.196721,1)"/>
<text x="504" y="10" style="fill: #ffffff; stroke: none; font-size: 12px; text-anchor: start" transform="rotate(45,504,0)">05:48:37</text>
<polyline points="2928,0 2928,-200" style="vector-effect: non-scaling-stroke; stroke: #202020" transform="scale(0.196721,1)"/>
<text x="576" y="10" style="fill: #ffffff; stroke: none; font-size: 12px; text-anchor: start" transform="rotate(45,576,0)">05:54:43</text>
<polyline points="3294,0 3294,-200" style="vector-effect: non-scaling-stroke; stroke: #202020" transform="scale(0.196721,1)"/>
<text x="648" y="10" style="fill: #ffffff; stroke: none; font-size: 12px; text-anchor: start" transform="rotate(45,648,0)">06:00:49</text>
<polyline points="3660,0 3660,-200" style="vector-effect: non-scaling-stroke; stroke: #202020" transform="scale(0.196721,1)"/>
<text x="720" y="10" style="fill: #ffffff; stroke: none; font-size: 12px; text-anchor: start" transform="rotate(45,720,0)">06:06:55</text>
<text x="-10" y="30" style="fill: #ffff00; stroke: none; font-size: 12px; text-anchor: end">UTC</text>
<path d=" M60,0.00 L120,0.00 L180,0.00 L240,0.00 L300,0.00 L360,0.00 L420,0.00 L480,0.00 L540,0.00 L600,0.00 L660,0.00 L720,0.00 L780,0.00 L840,0.00 L900,0.00 L960,0.00 L1020,0.00 L1080,0.00 L1140,0.00 L1200,0.00 L1260,0.00 L1320,0.00 L1380,0.00 L1440,0.00 L1500,0.00 L1560,0.00 L1620,0.00 L1680,0.00 L1740,0.00 L1800,0.00 L1860,0.00 L1920,0.00 L1980,0.00 L2040,0.00 L2100,0.00 L2160,0.00 L2220,0.00 L2280,0.00 L2340,0.00 L2400,0.00 L2460,0.00 L2520,0.00 L2580,0.00 L2640,0.00 L2700,0.00 L2760,0.00 L2820,0.00 L2880,0.00 L2940,0.00 L3000,0.00 L3060,0.00 L3120,0.00 L3180,0.00 L3240,0.00 L3300,0.00 L3360,0.00 L3420,0.00 L3480,0.00 L3540,0.00 L3600,0.00 L3660,0.00" style="vector-effect: non-scaling-stroke; stroke: #e85f00; stroke-width: 1; fill-opacity: 0" transform="scale(0.196721,-200.000000)"/>
<path d=" M60,0.00 L120,0.00 L180,0.00 L240,0.00 L300,0.00 L360,0.00 L420,0.00 L480,0.00 L540,0.00 L600,0.00 L660,0.00 L720,0.00 L780,0.00 L840,0.00 L900,0.00 L960,0.00 L1020,0.00 L1080,0.00 L1140,0.00 L1200,0.00 L1260,0.00 L1320,0.00 L1380,0.00 L1440,0.00 L1500,0.00 L1560,0.00 L1620,0.00 L1680,0.00 L1740,0.00 L1800,0.00 L1860,0.00 L1920,0.00 L1980,0.00 L2040,0.00 L2100,0.00 L2160,0.00 L2220,0.00 L2280,0.00 L2340,0.00 L2400,0.00 L2460,0.00 L2520,0.00 L2580,0.00 L2640,0.00 L2700,0.00 L2760,0.00 L2820,0.00 L2880,0.00 L2940,0.00 L3000,0.00 L3060,0.00 L3120,0.00 L3180,0.00 L3240,0.00 L3300,0.00 L3360,0.00 L3420,0.00 L3480,0.00 L3540,0.00 L3600,0.00 L3660,0.00" style="vector-effect: non-scaling-stroke; stroke: #0000ff; stroke-width: 1; fill-opacity: 0" transform="scale(0.196721,-200.000000)"/>
<path d=" M60,0.00 L120,0.00 L180,0.00 L240,0.00 L300,0.00 L360,0.00 L420,0.00 L480,0.00 L540,0.00 L600,0.00 L660,0.00 L720,0.00 L780,0.00 L840,0.00 L900,0.00 L960,0.00 L1020,0.00 L1080,0.00 L1140,0.00 L1200,0.00 L1260,0.00 L1320,0.00 L1380,0.00 L1440,0.00 L1500,0.00 L1560,0.00 L1620,0.00 L1680,0.00 L1740,0.00 L1800,0.00 L1860,0.00 L1920,0.00 L1980,0.00 L2040,0.00 L2100,0.00 L2160,0.00 L2220,0.00 L2280,0.00 L2340,0.00 L2400,0.00 L2460,0.00 L2520,0.00 L2580,0.00 L2640,0.00 L2700,0.00 L2760,0.00 L2820,0.00 L2880,0.00 L2940,0.00 L3000,0.00 L3060,0.00 L3120,0.00 L3180,0.00 L3240,0.00 L3300,0.00 L3360,0.00 L3420,0.00 L3480,0.00 L3540,0.00 L3600,0.00 L3660,0.00" style="vector-effect: non-scaling-stroke; stroke: #006020; stroke-width: 1; fill-opacity: 0" transform="scale(0.196721,-200.000000)"/>
</g>
<rect x="0" y="930" height="300" width="1050" fill="#000000"/>
<text x="0" y="950" style="fill: #ffff00; stroke: none">Network interfaces statistics (4) [lo]
<tspan x="795" y="955" style="fill: #ffff00; stroke: none; font-size: 12px">(Min, Max values)</tspan>
</text>
<polyline points="70,980 70,1180 790,1180" style="fill: #000000; stroke: #ffffff; stroke-width: 2"/>
<text x="795" y="980" style="fill: #7030a0; stroke: none; font-size: 12px">%ifutil (0.00, 0.00)</text>
<g transform="translate(70,1180)">
<text x="0" y="0" style="fill: #ffffff; stroke: none; font-size: 12px; text-anchor: end">0.</text>
<polyline points="0,25.00 720,25.00" style="vector-effect: non-scaling-stroke; stroke: #202020" transform="scale(1,-2.000000)"/>
<text x="0" y="-50" style="fill: #ffffff; stroke: none; font-size: 12px; text-anchor: end">25.</text>
<polyline points="0,50.00 720,50.00" style="vector-effect: non-scaling-stroke; stroke: #202020" transform="scale(1,-2.000000)"/>
<text x="0" y="-100" style="fill: #ffffff; stroke: none; font-size: 12px; text-anchor: end">50.</text>
<polyline points="0,75.00 720,75.00" style="vector-effect: non-scaling-stroke; stroke: #202020" transform="scale(1,-2.000000)"/>
<text x="0" y="-150" style="fill: #ffffff; stroke: none; font-size: 12px; text-anchor: end">75.</text>
<polyline points="0,100.00 720,100.00" style="vector-effect: non-scaling-stroke; stroke: #202020" transform="scale(1,-2.000000)"/>
<text x="0" y="-200" style="fill: #ffffff; stroke: none; font-size: 12px; text-anchor: end">100.</text>
<polyline points="0,0 0,-200" style="vector-effect: non-scaling-stroke; stroke: #202020" transform="scale(0.196721,1)"/>
<text x="0" y="10" style="fill: #ffffff; stroke: none; font-size: 12px; text-anchor: start" transform="rotate(45,0,0)">05:05:55</text>
<polyline points="366,0 366,-200" style="vector-effect: non-scaling-stroke; stroke: #202020" transform="scale(0.196721,1)"/>
<text x="72" y="10" style="fill: #ffffff; stroke: none; font-size: 12px; text-anchor: start" transform="rotate(45,72,0)">05:12:01</text>
<polyline points="732,0 732,-200" style="vector-effect: non-scaling-stroke; stroke: #202020" transform="scale(0.196721,1)"/>
<text x="144" y="10" style="fill: #ffffff; stroke: none; font-size: 12px; text-anchor: start" transform="rotate(45,144,0)">05:18:07</text>
<polyline points="1098,0 1098,-200" style="vector-effect: non-scaling-stroke; stroke: #202020" transform="scale(0.196721,1)"/>
<text x="216" y="10" style="fill: #ffffff; stroke: none; font-size: 12px; text-anchor: start" transform="rotate(45,216,0)">05:24:13</text>
<polyline points="1464,0 1464,-200" style="vector-effect: non-scaling-stroke; stroke: #202020" transform="scale(0.196721,1)"/>
<text x="288" y="10" style="fill: #ffffff; stroke: none; font-size: 12px; text-anchor: start" transform="rotate(45,288,0)">05:30:19</text>
<polyline points="1830,0 1830,-200" style="vector-effect: non-scaling-stroke; stroke: #202020" transform="scale(0.196721,1)"/>
<text x="360" y="10" style="fill: #ffffff; stroke: none; font-size: 12px; text-anchor: start" transform="rotate(45,360,0)">05:36:25</text>
<polyline points="2196,0 2196,-200" style="vector-effect: non-scaling-stroke; stroke: #202020" transform="scale(0.196721,1)"/>
<text x="432" y="10" style="fill: #ffffff; stroke: none; font-size: 12px; text-anchor: start" transform="rotate(45,432,0)">05:42:31</text>
<polyline points="2562,0 2562,-200" style="vector-effect: non-scaling-stroke; stroke: #202020" transform="scale(0.196721,1)"/>
<text x="504" y="10" style="fill: #ffffff; stroke: none; font-size: 12px; text-anchor: start" transform="rotate(45,504,0)">05:48:37</text>
<polyline points="2928,0 2928,-200" style="vector-effect: non-scaling-stroke; stroke: #202020" transform="scale(0.196721,1)"/>
<text x="576" y="10" style="fill: #ffffff; stroke: none; font-size: 12px; text-anchor: start" transform="rotate(45,576,0)">05:54:43</text>
<polyline points="3294,0 3294,-200" style="vector-effect: non-scaling-stroke; stroke: #202020" transform="scale(0.196721,1)"/>
<text x="648" y="10" style="fill: #ffffff; stroke: none; font-size: 12px; text-anchor: start" transform="rotate(45,648,0)">06:00:49</text>
<polyline points="3660,0 3660,-200" style="vector-effect: non-scaling-stroke; stroke: #202020" transform="scale(0.196721,1)"/>
<text x="720" y="10" style="fill: #ffffff; stroke: none; font-size: 12px; text-anchor: start" transform="rotate(45,720,0)">06:06:55</text>
<text x="-10" y="30" style="fill: #ffff00; stroke: none; font-size: 12px; text-anchor: end">UTC</text>
</g>
</g>
<g id="g12-1" transform="translate(0,1300)">
<rect x="0" y="0" height="300" width="1050" fill="#000000"/>
<text x="0" y="20" style="fill: #ffff00; stroke: none">Network interfaces statistics (1) [ens5]
<tspan x="795" y="25" style="fill: #ffff00; stroke: none; font-size: 12px">(Min, Max values)</tspan>
</text>
<polyline points="70,50 70,250 790,250" style="fill: #000000; stroke: #ffffff; stroke-width: 2"/>
<text x="795" y="50" style="fill: #00cc00; stroke: none; font-size: 12px">rxpck/s (0.20, 3.92)</text>
<text x="795" y="65" style="fill: #ff00bf; stroke: none; font-size: 12px">txpck/s (0.22, 16.28)</text>
<g transform="translate(70,250)">
<text x="0" y="0" style="fill: #ffffff; stroke: none; font-size: 12px; text-anchor: end">0.</text>
<polyline points="0,5.00 720,5.00" style="vector-effect: non-scaling-stroke; stroke: #202020" transform="scale(1,-12.284545)"/>
<text x="0" y="-61" style="fill: #ffffff; stroke: none; font-size: 12px; text-anchor: end">5.</text>
<polyline points="0,10.00 720,10.00" style="vector-effect: non-scaling-stroke; stroke: #202020" transform="scale(1,-12.284545)"/>
<text x="0" y="-122" style="fill: #ffffff; stroke: none; font-size: 12px; text-anchor: end">10.</text>
<polyline points="0,15.00 720,15.00" style="vector-effect: non-scaling-stroke; stroke: #202020" transform="scale(1,-12.284545)"/>
<text x="0" y="-184" style="fill: #ffffff; stroke: none; font-size: 12px; text-anchor: end">15.</text>
<polyline points="0,0 0,-200" style="vector-effect: non-scaling-stroke; stroke: #202020" transform="scale(0.196721,1)"/>
<text x="0" y="10" style="fill: #ffffff; stroke: none; font-size: 12px; text-anchor: start" transform="rotate(45,0,0)">05:05:55</text>
<polyline points="366,0 366,-200" style="vector-effect: non-scaling-stroke; stroke: #202020" transform="scale(0.196721,1)"/>
<text x="72" y="10" style="fill: #ffffff; stroke: none; font-size: 12px; text-anchor: start" transform="rotate(45,72,0)">05:12:01</text>
<polyline points="732,0 732,-200" style="vector-effect: non-scaling-stroke; stroke: #202020" transform="scale(0.196721,1)"/>
<text x="144" y="10" style="fill: #ffffff; stroke: none; font-size: 12px; text-anchor: start" transform="rotate(45,144,0)">05:18:07</text>
<polyline points="1098,0 1098,-200" style="vector-effect: non-scaling-stroke; stroke: #202020" transform="scale(0.196721,1)"/>
<text x="216" y="10" style="fill: #ffffff; stroke: none; font-size: 12px; text-anchor: start" transform="rotate(45,216,0)">05:24:13</text>
<polyline points="1464,0 1464,-200" style="vector-effect: non-scaling-stroke; stroke: #202020" transform="scale(0.196721,1)"/>
<text x="288" y="10" style="fill: #ffffff; stroke: none; font-size: 12px; text-anchor: start" transform="rotate(45,288,0)">05:30:19</text>
<polyline points="1830,0 1830,-200" style="vector-effect: non-scaling-stroke; stroke: #202020" transform="scale(0.196721,1)"/>
<text x="360" y="10" style="fill: #ffffff; stroke: none; font-size: 12px; text-anchor: start" transform="rotate(45,360,0)">05:36:25</text>
<polyline points="2196,0 2196,-200" style="vector-effect: non-scaling-stroke; stroke: #202020" transform="scale(0.196721,1)"/>
<text x="432" y="10" style="fill: #ffffff; stroke: none; font-size: 12px; text-anchor: start" transform="rotate(45,432,0)">05:42:31</text>
<polyline points="2562,0 2562,-200" style="vector-effect: non-scaling-stroke; stroke: #202020" transform="scale(0.196721,1)"/>
<text x="504" y="10" style="fill: #ffffff; stroke: none; font-size: 12px; text-anchor: start" transform="rotate(45,504,0)">05:48:37</text>
<polyline points="2928,0 2928,-200" style="vector-effect: non-scaling-stroke; stroke: #202020" transform="scale(0.196721,1)"/>
<text x="576" y="10" style="fill: #ffffff; stroke: none; font-size: 12px; text-anchor: start" transform="rotate(45,576,0)">05:54:43</text>
<polyline points="3294,0 3294,-200" style="vector-effect: non-scaling-stroke; stroke: #202020" transform="scale(0.196721,1)"/>
<text x="648" y="10" style="fill: #ffffff; stroke: none; font-size: 12px; text-anchor: start" transform="rotate(45,648,0)">06:00:49</text>
<polyline points="3660,0 3660,-200" style="vector-effect: non-scaling-stroke; stroke: #202020" transform="scale(0.196721,1)"/>
<text x="720" y="10" style="fill: #ffffff; stroke: none; font-size: 12px; text-anchor: start" transform="rotate(45,720,0)">06:06:55</text>
<text x="-10" y="30" style="fill: #ffff00; stroke: none; font-size: 12px; text-anchor: end">UTC</text>
<path d=" M60,2.83 L120,1.63 L180,1.23 L240,1.23 L300,1.97 L360,1.30 L420,1.20 L480,0.38 L540,1.12 L600,3.00 L660,1.32 L720,1.57 L780,1.72 L840,1.28 L900,2.00 L960,1.02 L1020,0.22 L1080,0.22 L1140,0.27 L1200,1.00 L1260,0.28 L1320,0.53 L1380,0.30 L1440,0.22 L1500,1.05 L1560,0.28 L1620,3.80 L1680,2.17 L1740,2.43 L1800,2.37 L1860,1.78 L1920,1.30 L1980,1.22 L2040,1.23 L2100,2.02 L2160,0.40 L2220,0.27 L2280,0.25 L2340,0.28 L2400,1.02 L2460,0.60 L2520,0.32 L2580,0.77 L2640,0.32 L2700,1.00 L2760,0.32 L2820,0.20 L2880,0.22 L2940,0.45 L3000,1.03 L3060,0.32 L3120,0.52 L3180,0.25 L3240,0.22 L3300,1.02 L3360,0.28 L3420,3.92 L3480,2.23 L3540,2.50 L3600,3.33 L3660,2.53" style="vector-effect: non-scaling-stroke; stroke: #00cc00; stroke-width: 1; fill-opacity: 0" transform="scale(0.196721,-12.284545)"/>
<path d=" M60,2.95 L120,1.67 L180,1.25 L240,1.25 L300,2.02 L360,1.32 L420,1.22 L480,0.53 L540,1.08 L600,3.12 L660,1.33 L720,1.57 L780,1.73 L840,1.32 L900,2.10 L960,1.15 L1020,0.27 L1080,0.23 L1140,0.28 L1200,1.08 L1260,0.30 L1320,0.57 L1380,0.33 L1440,0.23 L1500,1.13 L1560,0.30 L1620,16.22 L1680,2.35 L1740,2.47 L1800,2.42 L1860,1.78 L1920,1.37 L1980,1.23 L2040,1.25 L2100,2.15 L2160,0.57 L2220,0.28 L2280,0.27 L2340,0.30 L2400,1.03 L2460,0.65 L2520,0.35 L2580,0.80 L2640,0.32 L2700,1.08 L2760,0.33 L2820,0.22 L2880,0.23 L2940,0.45 L3000,1.15 L3060,0.32 L3120,0.53 L3180,0.25 L3240,0.22 L3300,1.03 L3360,0.28 L3420,16.28 L3480,2.43 L3540,2.55 L3600,8.90 L3660,2.65" style="vector-effect: non-scaling-stroke; stroke: #ff00bf; stroke-width: 1; fill-opacity: 0" transform="scale(0.196721,-12.284545)"/>
</g>
<rect x="0" y="310" height="300" width="1050" fill="#000000"/>
<text x="0" y="330" style="fill: #ffff00; stroke: none">Network interfaces statistics (2) [ens5]
<tspan x="795" y="335" style="fill: #ffff00; stroke: none; font-size: 12px">(Min, Max values)</tspan>
</text>
<polyline points="70,360 70,560 790,560" style="fill: #000000; stroke: #ffffff; stroke-width: 2"/>
<text x="795" y="360" style="fill: #00ffff; stroke: none; font-size: 12px">rxkB/s (0.02, 0.81)</text>
<text x="795" y="375" style="fill: #ff0000; stroke: none; font-size: 12px">txkB/s (0.03, 21.50)</text>
<g transform="translate(70,560)">
<text x="0" y="0" style="fill: #ffffff; stroke: none; font-size: 12px; text-anchor: end">0.</text>
<polyline points="0,7.00 720,7.00" style="vector-effect: non-scaling-stroke; stroke: #202020" transform="scale(1,-9.302855)"/>
<text x="0" y="-65" style="fill: #ffffff; stroke: none; font-size: 12px; text-anchor: end">7.</text>
<polyline points="0,14.00 720,14.00" style="vector-effect: non-scaling-stroke; stroke: #202020" transform="scale(1,-9.302855)"/>
<text x="0" y="-130" style="fill: #ffffff; stroke: none; font-size: 12px; text-anchor: end">14.</text>
<polyline points="0,21.00 720,21.00" style="vector-effect: non-scaling-stroke; stroke: #202020" transform="scale(1,-9.302855)"/>
<text x="0" y="-195" style="fill: #ffffff; stroke: none; font-size: 12px; text-anchor: end">21.</text>
<polyline points="0,0 0,-200" style="vector-effect: non-scaling-stroke; stroke: #202020" transform="scale(0.196721,1)"/>
<text x="0" y="10" style="fill: #ffffff; stroke: none; font-size: 12px; text-anchor: start" transform="rotate(45,0,0)">05:05:55</text>
<polyline points="366,0 366,-200" style="vector-effect: non-scaling-stroke; stroke: #202020" transform="scale(0.196721,1)"/>
<text x="72" y="10" style="fill: #ffffff; stroke: none; font-size: 12px; text-anchor: start" transform="rotate(45,72,0)">05:12:01</text>
<polyline points="732,0 732,-200" style="vector-effect: non-scaling-stroke; stroke: #202020" transform="scale(0.196721,1)"/>
<text x="144" y="10" style="fill: #ffffff; stroke: none; font-size: 12px; text-anchor: start" transform="rotate(45,144,0)">05:18:07</text>
<polyline points="1098,0 1098,-200" style="vector-effect: non-scaling-stroke; stroke: #202020" transform="scale(0.196721,1)"/>
<text x="216" y="10" style="fill: #ffffff; stroke: none; font-size: 12px; text-anchor: start" transform="rotate(45,216,0)">05:24:13</text>
<polyline points="1464,0 1464,-200" style="vector-effect: non-scaling-stroke; stroke: #202020" transform="scale(0.196721,1)"/>
<text x="288" y="10" style="fill: #ffffff; stroke: none; font-size: 12px; text-anchor: start" transform="rotate(45,288,0)">05:30:19</text>
<polyline points="1830,0 1830,-200" style="vector-effect: non-scaling-stroke; stroke: #202020" transform="scale(0.196721,1)"/>
<text x="360" y="10" style="fill: #ffffff; stroke: none; font-size: 12px; text-anchor: start" transform="rotate(45,360,0)">05:36:25</text>
<polyline points="2196,0 2196,-200" style="vector-effect: non-scaling-stroke; stroke: #202020" transform="scale(0.196721,1)"/>
<text x="432" y="10" style="fill: #ffffff; stroke: none; font-size: 12px; text-anchor: start" transform="rotate(45,432,0)">05:42:31</text>
<polyline points="2562,0 2562,-200" style="vector-effect: non-scaling-stroke; stroke: #202020" transform="scale(0.196721,1)"/>
<text x="504" y="10" style="fill: #ffffff; stroke: none; font-size: 12px; text-anchor: start" transform="rotate(45,504,0)">05:48:37</text>
<polyline points="2928,0 2928,-200" style="vector-effect: non-scaling-stroke; stroke: #202020" transform="scale(0.196721,1)"/>
<text x="576" y="10" style="fill: #ffffff; stroke: none; font-size: 12px; text-anchor: start" transform="rotate(45,576,0)">05:54:43</text>
<polyline points="3294,0 3294,-200" style="vector-effect: non-scaling-stroke; stroke: #202020" transform="scale(0.196721,1)"/>
<text x="648" y="10" style="fill: #ffffff; stroke: none; font-size: 12px; text-anchor: start" transform="rotate(45,648,0)">06:00:49</text>
<polyline points="3660,0 3660,-200" style="vector-effect: non-scaling-stroke; stroke: #202020" transform="scale(0.196721,1)"/>
<text x="720" y="10" style="fill: #ffffff; stroke: none; font-size: 12px; text-anchor: start" transform="rotate(45,720,0)">06:06:55</text>
<text x="-10" y="30" style="fill: #ffff00; stroke: none; font-size: 12px; text-anchor: end">UTC</text>
<path d=" M60,0.37 L120,0.10 L180,0.08 L240,0.08 L300,0.25 L360,0.08 L420,0.07 L480,0.03 L540,0.44 L600,0.34 L660,0.08 L720,0.20 L780,0.24 L840,0.08 L900,0.25 L960,0.07 L1020,0.03 L1080,0.02 L1140,0.03 L1200,0.20 L1260,0.03 L1320,0.14 L1380,0.03 L1440,0.02 L1500,0.20 L1560,0.03 L1620,0.79 L1680,0.16 L1740,0.22 L1800,0.27 L1860,0.24 L1920,0.08 L1980,0.07 L2040,0.08 L2100,0.25 L2160,0.03 L2220,0.03 L2280,0.03 L2340,0.03 L2400,0.20 L2460,0.15 L2520,0.04 L2580,0.19 L2640,0.03 L2700,0.20 L2760,0.03 L2820,0.02 L2880,0.02 L2940,0.09 L3000,0.20 L3060,0.03 L3120,0.14 L3180,0.03 L3240,0.03 L3300,0.20 L3360,0.03 L3420,0.81 L3480,0.19 L3540,0.24 L3600,0.40 L3660,0.25" style="vector-effect: non-scaling-stroke; stroke: #00ffff; stroke-width: 1; fill-opacity: 0" transform="scale(0.196721,-9.302855)"/>
<path d=" M60,0.59 L120,0.13 L180,0.10 L240,0.10 L300,0.24 L360,0.11 L420,0.10 L480,0.06 L540,0.39 L600,0.38 L660,0.11 L720,0.19 L780,0.20 L840,0.11 L900,0.25 L960,0.10 L1020,0.04 L1080,0.04 L1140,0.04 L1200,0.18 L1260,0.04 L1320,0.12 L1380,0.04 L1440,0.04 L1500,0.18 L1560,0.04 L1620,21.46 L1680,0.47 L1740,0.32 L1800,0.27 L1860,0.20 L1920,0.11 L1980,0.10 L2040,0.10 L2100,0.25 L2160,0.06 L2220,0.04 L2280,0.04 L2340,0.04 L2400,0.18 L2460,0.12 L2520,0.05 L2580,0.15 L2640,0.04 L2700,0.18 L2760,0.04 L2820,0.03 L2880,0.04 L2940,0.12 L3000,0.18 L3060,0.04 L3120,0.12 L3180,0.04 L3240,0.03 L3300,0.18 L3360,0.04 L3420,21.50 L3480,0.51 L3540,0.37 L3600,9.39 L3660,0.55" style="vector-effect: non-scaling-stroke; stroke: #ff0000; stroke-width: 1; fill-opacity: 0" transform="scale(0.196721,-9.302855)"/>
</g>
<rect x="0" y="620" height="300" width="1050" fill="#000000"/>
<text x="0" y="640" style="fill: #ffff00; stroke: none">Network interfaces statistics (3) [ens5]
<tspan x="795" y="645" style="fill: #ffff00; stroke: none; font-size: 12px">(Min, Max values)</tspan>
</text>
<polyline points="70,670 70,870 790,870" style="fill: #000000; stroke: #ffffff; stroke-width: 2"/>
<text x="795" y="670" style="fill: #e85f00; stroke: none; font-size: 12px">rxcmp/s (0.00, 0.00)</text>
<text x="795" y="685" style="fill: #0000ff; stroke: none; font-size: 12px">txcmp/s (0.00, 0.00)</text>
<text x="795" y="700" style="fill: #006020; stroke: none; font-size: 12px">rxmcst/s (0.00, 0.00)</text>
<g transform="translate(70,870)">
<text x="0" y="0" style="fill: #ffffff; stroke: none; font-size: 12px; text-anchor: end">0.00.</text>
<polyline points="0,0.33 720,0.33" style="vector-effect: non-scaling-stroke; stroke: #202020" transform="scale(1,-200.000000)"/>
<text x="0" y="-66" style="fill: #ffffff; stroke: none; font-size: 12px; text-anchor: end">0.33.</text>
<polyline points="0,0.67 720,0.67" style="vector-effect: non-scaling-stroke; stroke: #202020" transform="scale(1,-200.000000)"/>
<text x="0" y="-134" style="fill: #ffffff; stroke: none; font-size: 12px; text-anchor: end">0.67.</text>
<polyline points="0,1.00 720,1.00" style="vector-effect: non-scaling-stroke; stroke: #202020" transform="scale(1,-200.000000)"/>
<text x="0" y="-200" style="fill: #ffffff; stroke: none; font-size: 12px; text-anchor: end">1.00.</text>
<polyline points="0,0 0,-200" style="vector-effect: non-scaling-stroke; stroke: #202020" transform="scale(0.196721,1)"/>
<text x="0" y="10" style="fill: #ffffff; stroke: none; font-size: 12px; text-anchor: start" transform="rotate(45,0,0)">05:05:55</text>
<polyline points="366,0 366,-200" style="vector-effect: non-scaling-stroke; stroke: #202020" transform="scale(0.196721,1)"/>
<text x="72" y="10" style="fill: #ffffff; stroke: none; font-size: 12px; text-anchor: start" transform="rotate(45,72,0)">05:12:01</text>
<polyline points="732,0 732,-200" style="vector-effect: non-scaling-stroke; stroke: #202020" transform="scale(0.196721,1)"/>
<text x="144" y="10" style="fill: #ffffff; stroke: none; font-size: 12px; text-anchor: start" transform="rotate(45,144,0)">05:18:07</text>
<polyline points="1098,0 1098,-200" style="vector-effect: non-scaling-stroke; stroke: #202020" transform="scale(0.196721,1)"/>
<text x="216" y="10" style="fill: #ffffff; stroke: none; font-size: 12px; text-anchor: start" transform="rotate(45,216,0)">05:24:13</text>
<polyline points="1464,0 1464,-200" style="vector-effect: non-scaling-stroke; stroke: #202020" transform="scale(0.196721,1)"/>
<text x="288" y="10" style="fill: #ffffff; stroke: none; font-size: 12px; text-anchor: start" transform="rotate(45,288,0)">05:30:19</text>
<polyline points="1830,0 1830,-200" style="vector-effect: non-scaling-stroke; stroke: #202020" transform="scale(0.196721,1)"/>
<text x="360" y="10" style="fill: #ffffff; stroke: none; font-size: 12px; text-anchor: start" transform="rotate(45,360,0)">05:36:25</text>
<polyline points="2196,0 2196,-200" style="vector-effect: non-scaling-stroke; stroke: #202020" transform="scale(0.196721,1)"/>
<text x="432" y="10" style="fill: #ffffff; stroke: none; font-size: 12px; text-anchor: start" transform="rotate(45,432,0)">05:42:31</text>
<polyline points="2562,0 2562,-200" style="vector-effect: non-scaling-stroke; stroke: #202020" transform="scale(0.196721,1)"/>
<text x="504" y="10" style="fill: #ffffff; stroke: none; font-size: 12px; text-anchor: start" transform="rotate(45,504,0)">05:48:37</text>
<polyline points="2928,0 2928,-200" style="vector-effect: non-scaling-stroke; stroke: #202020" transform="scale(0.196721,1)"/>
<text x="576" y="10" style="fill: #ffffff; stroke: none; font-size: 12px; text-anchor: start" transform="rotate(45,576,0)">05:54:43</text>
<polyline points="3294,0 3294,-200" style="vector-effect: non-scaling-stroke; stroke: #202020" transform="scale(0.196721,1)"/>
<text x="648" y="10" style="fill: #ffffff; stroke: none; font-size: 12px; text-anchor: start" transform="rotate(45,648,0)">06:00:49</text>
<polyline points="3660,0 3660,-200" style="vector-effect: non-scaling-stroke; stroke: #202020" transform="scale(0.196721,1)"/>
<text x="720" y="10" style="fill: #ffffff; stroke: none; font-size: 12px; text-anchor: start" transform="rotate(45,720,0)">06:06:55</text>
<text x="-10" y="30" style="fill: #ffff00; stroke: none; font-size: 12px; text-anchor: end">UTC</text>
<path d=" M60,0.00 L120,0.00 L180,0.00 L240,0.00 L300,0.00 L360,0.00 L420,0.00 L480,0.00 L540,0.00 L600,0.00 L660,0.00 L720,0.00 L780,0.00 L840,0.00 L900,0.00 L960,0.00 L1020,0.00 L1080,0.00 L1140,0.00 L1200,0.00 L1260,0.00 L1320,0.00 L1380,0.00 L1440,0.00 L1500,0.00 L1560,0.00 L1620,0.00 L1680,0.00 L1740,0.00 L1800,0.00 L1860,0.00 L1920,0.00 L1980,0.00 L2040,0.00 L2100,0.00 L2160,0.00 L2220,0.00 L2280,0.00 L2340,0.00 L2400,0.00 L2460,0.00 L2520,0.00 L2580,0.00 L2640,0.00 L2700,0.00 L2760,0.00 L2820,0.00 L2880,0.00 L2940,0.00 L3000,0.00 L3060,0.00 L3120,0.00 L3180,0.00 L3240,0.00 L3300,0.00 L3360,0.00 L3420,0.00 L3480,0.00 L3540,0.00 L3600,0.00 L3660,0.00" style="vector-effect: non-scaling-stroke; stroke: #e85f00; stroke-width: 1; fill-opacity: 0" transform="scale(0.196721,-200.000000)"/>
<path d=" M60,0.00 L120,0.00 L180,0.00 L240,0.00 L300,0.00 L360,0.00 L420,0.00 L480,0.00 L540,0.00 L600,0.00 L660,0.00 L720,0.00 L780,0.00 L840,0.00 L900,0.00 L960,0.00 L1020,0.00 L1080,0.00 L1140,0.00 L1200,0.00 L1260,0.00 L1320,0.00 L1380,0.00 L1440,0.00 L1500,0.00 L1560,0.00 L1620,0.00 L1680,0.00 L1740,0.00 L1800,0.00 L1860,0.00 L1920,0.00 L1980,0.00 L2040,0.00 L2100,0.00 L2160,0.00 L2220,0.00 L2280,0.00 L2340,0.00 L2400,0.00 L2460,0.00 L2520,0.00 L2580,0.00 L2640,0.00 L2700,0.00 L2760,0.00 L2820,0.00 L2880,0.00 L2940,0.00 L3000,0.00 L3060,0.00 L3120,0.00 L3180,0.00 L3240,0.00 L3300,0.00 L3360,0.00 L3420,0.00 L3480,0.00 L3540,0.00 L3600,0.00 L3660,0.00" style="vector-effect: non-scaling-stroke; stroke: #0000ff; stroke-width: 1; fill-opacity: 0" transform="scale(0.196721,-200.000000)"/>
<path d=" M60,0.00 L120,0.00 L180,0.00 L240,0.00 L300,0.00 L360,0.00 L420,0.00 L480,0.00 L540,0.00 L600,0.00 L660,0.00 L720,0.00 L780,0.00 L840,0.00 L900,0.00 L960,0.00 L1020,0.00 L1080,0.00 L1140,0.00 L1200,0.00 L1260,0.00 L1320,0.00 L1380,0.00 L1440,0.00 L1500,0.00 L1560,0.00 L1620,0.00 L1680,0.00 L1740,0.00 L1800,0.00 L1860,0.00 L1920,0.00 L1980,0.00 L2040,0.00 L2100,0.00 L2160,0.00 L2220,0.00 L2280,0.00 L2340,0.00 L2400,0.00 L2460,0.00 L2520,0.00 L2580,0.00 L2640,0.00 L2700,0.00 L2760,0.00 L2820,0.00 L2880,0.00 L2940,0.00 L3000,0.00 L3060,0.00 L3120,0.00 L3180,0.00 L3240,0.00 L3300,0.00 L3360,0.00 L3420,0.00 L3480,0.00 L3540,0.00 L3600,0.00 L3660,0.00" style="vector-effect: non-scaling-stroke; stroke: #006020; stroke-width: 1; fill-opacity: 0" transform="scale(0.196721,-200.000000)"/>
</g>
<rect x="0" y="930" height="300" width="1050" fill="#000000"/>
<text x="0" y="950" style="fill: #ffff00; stroke: none">Network interfaces statistics (4) [ens5]
<tspan x="795" y="955" style="fill: #ffff00; stroke: none; font-size: 12px">(Min, Max values)</tspan>
</text>
<polyline points="70,980 70,1180 790,1180" style="fill: #000000; stroke: #ffffff; stroke-width: 2"/>
<text x="795" y="980" style="fill: #7030a0; stroke: none; font-size: 12px">%ifutil (0.00, 0.00)</text>
<g transform="translate(70,1180)">
<text x="0" y="0" style="fill: #ffffff; stroke: none; font-size: 12px; text-anchor: end">0.</text>
<polyline points="0,25.00 720,25.00" style="vector-effect: non-scaling-stroke; stroke: #202020" transform="scale(1,-2.000000)"/>
<text x="0" y="-50" style="fill: #ffffff; stroke: none; font-size: 12px; text-anchor: end">25.</text>
<polyline points="0,50.00 720,50.00" style="vector-effect: non-scaling-stroke; stroke: #202020" transform="scale(1,-2.000000)"/>
<text x="0" y="-100" style="fill: #ffffff; stroke: none; font-size: 12px; text-anchor: end">50.</text>
<polyline points="0,75.00 720,75.00" style="vector-effect: non-scaling-stroke; stroke: #202020" transform="scale(1,-2.000000)"/>
<text x="0" y="-150" style="fill: #ffffff; stroke: none; font-size: 12px; text-anchor: end">75.</text>
<polyline points="0,100.00 720,100.00" style="vector-effect: non-scaling-stroke; stroke: #202020" transform="scale(1,-2.000000)"/>
<text x="0" y="-200" style="fill: #ffffff; stroke: none; font-size: 12px; text-anchor: end">100.</text>
<polyline points="0,0 0,-200" style="vector-effect: non-scaling-stroke; stroke: #202020" transform="scale(0.196721,1)"/>
<text x="0" y="10" style="fill: #ffffff; stroke: none; font-size: 12px; text-anchor: start" transform="rotate(45,0,0)">05:05:55</text>
<polyline points="366,0 366,-200" style="vector-effect: non-scaling-stroke; stroke: #202020" transform="scale(0.196721,1)"/>
<text x="72" y="10" style="fill: #ffffff; stroke: none; font-size: 12px; text-anchor: start" transform="rotate(45,72,0)">05:12:01</text>
<polyline points="732,0 732,-200" style="vector-effect: non-scaling-stroke; stroke: #202020" transform="scale(0.196721,1)"/>
<text x="144" y="10" style="fill: #ffffff; stroke: none; font-size: 12px; text-anchor: start" transform="rotate(45,144,0)">05:18:07</text>
<polyline points="1098,0 1098,-200" style="vector-effect: non-scaling-stroke; stroke: #202020" transform="scale(0.196721,1)"/>
<text x="216" y="10" style="fill: #ffffff; stroke: none; font-size: 12px; text-anchor: start" transform="rotate(45,216,0)">05:24:13</text>
<polyline points="1464,0 1464,-200" style="vector-effect: non-scaling-stroke; stroke: #202020" transform="scale(0.196721,1)"/>
<text x="288" y="10" style="fill: #ffffff; stroke: none; font-size: 12px; text-anchor: start" transform="rotate(45,288,0)">05:30:19</text>
<polyline points="1830,0 1830,-200" style="vector-effect: non-scaling-stroke; stroke: #202020" transform="scale(0.196721,1)"/>
<text x="360" y="10" style="fill: #ffffff; stroke: none; font-size: 12px; text-anchor: start" transform="rotate(45,360,0)">05:36:25</text>
<polyline points="2196,0 2196,-200" style="vector-effect: non-scaling-stroke; stroke: #202020" transform="scale(0.196721,1)"/>
<text x="432" y="10" style="fill: #ffffff; stroke: none; font-size: 12px; text-anchor: start" transform="rotate(45,432,0)">05:42:31</text>
<polyline points="2562,0 2562,-200" style="vector-effect: non-scaling-stroke; stroke: #202020" transform="scale(0.196721,1)"/>
<text x="504" y="10" style="fill: #ffffff; stroke: none; font-size: 12px; text-anchor: start" transform="rotate(45,504,0)">05:48:37</text>
<polyline points="2928,0 2928,-200" style="vector-effect: non-scaling-stroke; stroke: #202020" transform="scale(0.196721,1)"/>
<text x="576" y="10" style="fill: #ffffff; stroke: none; font-size: 12px; text-anchor: start" transform="rotate(45,576,0)">05:54:43</text>
<polyline points="3294,0 3294,-200" style="vector-effect: non-scaling-stroke; stroke: #202020" transform="scale(0.196721,1)"/>
<text x="648" y="10" style="fill: #ffffff; stroke: none; font-size: 12px; text-anchor: start" transform="rotate(45,648,0)">06:00:49</text>
<polyline points="3660,0 3660,-200" style="vector-effect: non-scaling-stroke; stroke: #202020" transform="scale(0.196721,1)"/>
<text x="720" y="10" style="fill: #ffffff; stroke: none; font-size: 12px; text-anchor: start" transform="rotate(45,720,0)">06:06:55</text>
<text x="-10" y="30" style="fill: #ffff00; stroke: none; font-size: 12px; text-anchor: end">UTC</text>
</g>
</g>
<!-- Actual canvas height: 2540 -->
</svg>
