<?xml version="1.0" encoding="UTF-8"?>
<!DOCTYPE svg PUBLIC "-//W3C//DTD SVG 1.1//EN" "http://www.w3.org/Graphics/SVG/1.1/DTD/svg11.dtd">
<svg xmlns="http://www.w3.org/2000/svg" width="1060" height="2540" fill="black" stroke="#808080" stroke-width="1">
<text x="0" y="30" text-anchor="start" stroke="#a52a2a">Linux 6.12.94+deb13-cloud-amd64 (madrona) 	09/12/26 	_x86_64_	(16 CPU)
</text>
<g id="g12-0" transform="translate(0,60)">
<rect x="0" y="0" height="300" width="1050" fill="#000000"/>
<text x="0" y="20" style="fill: #ffff00; stroke: none">Network interfaces statistics (1) [lo]
<tspan x="795" y="25" style="fill: #ffff00; stroke: none; font-size: 12px">(Min, Max values)</tspan>
</text>
<polyline points="70,50 70,250 790,250" style="fill: #000000; stroke: #ffffff; stroke-width: 2"/>
<text x="795" y="50" style="fill: #00cc00; stroke: none; font-size: 12px">rxpck/s (4980.63, 9459.22)</text>
<text x="795" y="65" style="fill: #ff00bf; stroke: none; font-size: 12px">txpck/s (4980.63, 9459.22)</text>
<g transform="translate(70,250)">
<text x="0" y="0" style="fill: #ffffff; stroke: none; font-size: 12px; text-anchor: end">0.</text>
<polyline points="0,3000.00 720,3000.00" style="vector-effect: non-scaling-stroke; stroke: #202020" transform="scale(1,-0.021143)"/>
<text x="0" y="-63" style="fill: #ffffff; stroke: none; font-size: 12px; text-anchor: end">3000.</text>
<polyline points="0,6000.00 720,6000.00" style="vector-effect: non-scaling-stroke; stroke: #202020" transform="scale(1,-0.021143)"/>
<text x="0" y="-126" style="fill: #ffffff; stroke: none; font-size: 12px; text-anchor: end">6000.</text>
<polyline points="0,9000.00 720,9000.00" style="vector-effect: non-scaling-stroke; stroke: #202020" transform="scale(1,-0.021143)"/>
<text x="0" y="-190" style="fill: #ffffff; stroke: none; font-size: 12px; text-anchor: end">9000.</text>
<polyline points="0,0 0,-200" style="vector-effect: non-scaling-stroke; stroke: #202020" transform="scale(0.196721,1)"/>
<text x="0" y="10" style="fill: #ffffff; stroke: none; font-size: 12px; text-anchor: start" transform="rotate(45,0,0)">00:43:46</text>
<polyline points="366,0 366,-200" style="vector-effect: non-scaling-stroke; stroke: #202020" transform="scale(0.196721,1)"/>
<text x="72" y="10" style="fill: #ffffff; stroke: none; font-size: 12px; text-anchor: start" transform="rotate(45,72,0)">00:49:52</text>
<polyline points="732,0 732,-200" style="vector-effect: non-scaling-stroke; stroke: #202020" transform="scale(0.196721,1)"/>
<text x="144" y="10" style="fill: #ffffff; stroke: none; font-size: 12px; text-anchor: start" transform="rotate(45,144,0)">00:55:58</text>
<polyline points="1098,0 1098,-200" style="vector-effect: non-scaling-stroke; stroke: #202020" transform="scale(0.196721,1)"/>
<text x="216" y="10" style="fill: #ffffff; stroke: none; font-size: 12px; text-anchor: start" transform="rotate(45,216,0)">01:02:04</text>
<polyline points="1464,0 1464,-200" style="vector-effect: non-scaling-stroke; stroke: #202020" transform="scale(0.196721,1)"/>
<text x="288" y="10" style="fill: #ffffff; stroke: none; font-size: 12px; text-anchor: start" transform="rotate(45,288,0)">01:08:10</text>
<polyline points="1830,0 1830,-200" style="vector-effect: non-scaling-stroke; stroke: #202020" transform="scale(0.196721,1)"/>
<text x="360" y="10" style="fill: #ffffff; stroke: none; font-size: 12px; text-anchor: start" transform="rotate(45,360,0)">01:14:16</text>
<polyline points="2196,0 2196,-200" style="vector-effect: non-scaling-stroke; stroke: #202020" transform="scale(0.196721,1)"/>
<text x="432" y="10" style="fill: #ffffff; stroke: none; font-size: 12px; text-anchor: start" transform="rotate(45,432,0)">01:20:22</text>
<polyline points="2562,0 2562,-200" style="vector-effect: non-scaling-stroke; stroke: #202020" transform="scale(0.196721,1)"/>
<text x="504" y="10" style="fill: #ffffff; stroke: none; font-size: 12px; text-anchor: start" transform="rotate(45,504,0)">01:26:28</text>
<polyline points="2928,0 2928,-200" style="vector-effect: non-scaling-stroke; stroke: #202020" transform="scale(0.196721,1)"/>
<text x="576" y="10" style="fill: #ffffff; stroke: none; font-size: 12px; text-anchor: start" transform="rotate(45,576,0)">01:32:34</text>
<polyline points="3294,0 3294,-200" style="vector-effect: non-scaling-stroke; stroke: #202020" transform="scale(0.196721,1)"/>
<text x="648" y="10" style="fill: #ffffff; stroke: none; font-size: 12px; text-anchor: start" transform="rotate(45,648,0)">01:38:40</text>
<polyline points="3660,0 3660,-200" style="vector-effect: non-scaling-stroke; stroke: #202020" transform="scale(0.196721,1)"/>
<text x="720" y="10" style="fill: #ffffff; stroke: none; font-size: 12px; text-anchor: start" transform="rotate(45,720,0)">01:44:46</text>
<text x="-10" y="30" style="fill: #ffff00; stroke: none; font-size: 12px; text-anchor: end">UTC</text>
<path d=" M60,5113.88 L120,6629.85 L180,7123.15 L240,5580.90 L300,8443.72 L360,6151.63 L420,8913.13 L480,6418.38 L540,9330.18 L600,6374.62 L660,9129.41 L720,7300.62 L780,7940.95 L840,7529.05 L900,7357.70 L960,8011.13 L1020,6402.12 L1080,8728.80 L1140,5774.33 L1200,9120.77 L1260,4980.63 L1320,9021.27 L1380,6524.40 L1440,8320.45 L1500,7748.38 L1560,8800.25 L1620,6332.67 L1680,9428.03 L1740,6438.38 L1800,9438.78 L1860,5970.07 L1920,9285.23 L1980,6384.15 L2040,8233.78 L2100,6620.23 L2160,8611.88 L2220,6972.15 L2280,8358.22 L2340,7625.72 L2400,7682.63 L2460,8157.58 L2520,7326.82 L2580,8948.23 L2640,6388.02 L2700,9430.52 L2760,5991.28 L2820,9407.95 L2880,6627.78 L2940,9141.33 L3000,6094.03 L3060,9128.72 L3120,7037.67 L3180,7660.80 L3240,7588.60 L3300,7648.77 L3360,8265.38 L3420,6703.70 L3480,8703.52 L3540,6948.53 L3600,9459.22 L3660,6468.17" style="vector-effect: non-scaling-stroke; stroke: #00cc00; stroke-width: 1; fill-opacity: 0" transform="scale(0.196721,-0.021143)"/>
<path d=" M60,5113.88 L120,6629.85 L180,7123.15 L240,5580.90 L300,8443.72 L360,6151.63 L420,8913.13 L480,6418.38 L540,9330.18 L600,6374.62 L660,9129.41 L720,7300.62 L780,7940.95 L840,7529.05 L900,7357.70 L960,8011.13 L1020,6402.12 L1080,8728.80 L1140,5774.33 L1200,9120.77 L1260,4980.63 L1320,9021.27 L1380,6524.40 L1440,8320.45 L1500,7748.38 L1560,8800.25 L1620,6332.67 L1680,9428.03 L1740,6438.38 L1800,9438.78 L1860,5970.07 L1920,9285.23 L1980,6384.15 L2040,8233.78 L2100,6620.23 L2160,8611.88 L2220,6972.15 L2280,8358.22 L2340,7625.72 L2400,7682.63 L2460,8157.58 L2520,7326.82 L2580,8948.23 L2640,6388.02 L2700,9430.52 L2760,5991.28 L2820,9407.95 L2880,6627.78 L2940,9141.33 L3000,6094.03 L3060,9128.72 L3120,7037.67 L3180,7660.80 L3240,7588.60 L3300,7648.77 L3360,8265.38 L3420,6703.70 L3480,8703.52 L3540,6948.53 L3600,9459.22 L3660,6468.17" style="vector-effect: non-scaling-stroke; stroke: #ff00bf; stroke-width: 1; fill-opacity: 0" transform="scale(0.196721,-0.021143)"/>
</g>
<rect x="0" y="310" height="300" width="1050" fill="#000000"/>
<text x="0" y="330" style="fill: #ffff00; stroke: none">Network interfaces statistics (2) [lo]
<tspan x="795" y="335" style="fill: #ffff00; stroke: none; font-size: 12px">(Min, Max values)</tspan>
</text>
<polyline points="70,360 70,560 790,560" style="fill: #000000; stroke: #ffffff; stroke-width: 2"/>
<text x="795" y="360" style="fill: #00ffff; stroke: none; font-size: 12px">rxkB/s (2370.11, 4716.03)</text>
<text x="795" y="375" style="fill: #ff0000; stroke: none; font-size: 12px">txkB/s (2370.11, 4716.03)</text>
<g transform="translate(70,560)">
<text x="0" y="0" style="fill: #ffffff; stroke: none; font-size: 12px; text-anchor: end">0.</text>
<polyline points="0,1000.00 720,1000.00" style="vector-effect: non-scaling-stroke; stroke: #202020" transform="scale(1,-0.042409)"/>
<text x="0" y="-42" style="fill: #ffffff; stroke: none; font-size: 12px; text-anchor: end">1000.</text>
<polyline points="0,2000.00 720,2000.00" style="vector-effect: non-scaling-stroke; stroke: #202020" transform="scale(1,-0.042409)"/>
<text x="0" y="-84" style="fill: #ffffff; stroke: none; font-size: 12px; text-anchor: end">2000.</text>
<polyline points="0,3000.00 720,3000.00" style="vector-effect: non-scaling-stroke; stroke: #202020" transform="scale(1,-0.042409)"/>
<text x="0" y="-127" style="fill: #ffffff; stroke: none; font-size: 12px; text-anchor: end">3000.</text>
<polyline points="0,4000.00 720,4000.00" style="vector-effect: non-scaling-stroke; stroke: #202020" transform="scale(1,-0.042409)"/>
<text x="0" y="-169" style="fill: #ffffff; stroke: none; font-size: 12px; text-anchor: end">4000.</text>
<polyline points="0,0 0,-200" style="vector-effect: non-scaling-stroke; stroke: #202020" transform="scale(0.196721,1)"/>
<text x="0" y="10" style="fill: #ffffff; stroke: none; font-size: 12px; text-anchor: start" transform="rotate(45,0,0)">00:43:46</text>
<polyline points="366,0 366,-200" style="vector-effect: non-scaling-stroke; stroke: #202020" transform="scale(0.196721,1)"/>
<text x="72" y="10" style="fill: #ffffff; stroke: none; font-size: 12px; text-anchor: start" transform="rotate(45,72,0)">00:49:52</text>
<polyline points="732,0 732,-200" style="vector-effect: non-scaling-stroke; stroke: #202020" transform="scale(0.196721,1)"/>
<text x="144" y="10" style="fill: #ffffff; stroke: none; font-size: 12px; text-anchor: start" transform="rotate(45,144,0)">00:55:58</text>
<polyline points="1098,0 1098,-200" style="vector-effect: non-scaling-stroke; stroke: #202020" transform="scale(0.196721,1)"/>
<text x="216" y="10" style="fill: #ffffff; stroke: none; font-size: 12px; text-anchor: start" transform="rotate(45,216,0)">01:02:04</text>
<polyline points="1464,0 1464,-200" style="vector-effect: non-scaling-stroke; stroke: #202020" transform="scale(0.196721,1)"/>
<text x="288" y="10" style="fill: #ffffff; stroke: none; font-size: 12px; text-anchor: start" transform="rotate(45,288,0)">01:08:10</text>
<polyline points="1830,0 1830,-200" style="vector-effect: non-scaling-stroke; stroke: #202020" transform="scale(0.196721,1)"/>
<text x="360" y="10" style="fill: #ffffff; stroke: none; font-size: 12px; text-anchor: start" transform="rotate(45,360,0)">01:14:16</text>
<polyline points="2196,0 2196,-200" style="vector-effect: non-scaling-stroke; stroke: #202020" transform="scale(0.196721,1)"/>
<text x="432" y="10" style="fill: #ffffff; stroke: none; font-size: 12px; text-anchor: start" transform="rotate(45,432,0)">01:20:22</text>
<polyline points="2562,0 2562,-200" style="vector-effect: non-scaling-stroke; stroke: #202020" transform="scale(0.196721,1)"/>
<text x="504" y="10" style="fill: #ffffff; stroke: none; font-size: 12px; text-anchor: start" transform="rotate(45,504,0)">01:26:28</text>
<polyline points="2928,0 2928,-200" style="vector-effect: non-scaling-stroke; stroke: #202020" transform="scale(0.196721,1)"/>
<text x="576" y="10" style="fill: #ffffff; stroke: none; font-size: 12px; text-anchor: start" transform="rotate(45,576,0)">01:32:34</text>
<polyline points="3294,0 3294,-200" style="vector-effect: non-scaling-stroke; stroke: #202020" transform="scale(0.196721,1)"/>
<text x="648" y="10" style="fill: #ffffff; stroke: none; font-size: 12px; text-anchor: start" transform="rotate(45,648,0)">01:38:40</text>
<polyline points="3660,0 3660,-200" style="vector-effect: non-scaling-stroke; stroke: #202020" transform="scale(0.196721,1)"/>
<text x="720" y="10" style="fill: #ffffff; stroke: none; font-size: 12px; text-anchor: start" transform="rotate(45,720,0)">01:44:46</text>
<text x="-10" y="30" style="fill: #ffff00; stroke: none; font-size: 12px; text-anchor: end">UTC</text>
<path d=" M60,2467.69 L120,3344.35 L180,3580.46 L240,2757.38 L300,4198.49 L360,3067.94 L420,4448.68 L480,3129.05 L540,4566.45 L600,3084.05 L660,4476.61 L720,3544.51 L780,3956.67 L840,3666.10 L900,3583.35 L960,3926.25 L1020,3136.71 L1080,4296.47 L1140,2775.96 L1200,4510.57 L1260,2370.11 L1320,4369.59 L1380,3120.69 L1440,4026.43 L1500,3813.60 L1560,4447.28 L1620,3035.02 L1680,4637.69 L1740,3180.89 L1800,4716.03 L1860,2932.23 L1920,4515.26 L1980,3130.15 L2040,4027.04 L2100,3233.67 L2160,4266.05 L2220,3384.54 L2280,4112.88 L2340,3689.20 L2400,3751.25 L2460,3955.41 L2520,3641.03 L2580,4394.54 L2640,3103.95 L2700,4621.68 L2760,2859.57 L2820,4669.97 L2880,3222.40 L2940,4535.52 L3000,2973.07 L3060,4505.61 L3120,3400.29 L3180,3725.57 L3240,3723.13 L3300,3757.95 L3360,4058.74 L3420,3266.06 L3480,4261.66 L3540,3335.87 L3600,4629.23 L3660,3275.00" style="vector-effect: non-scaling-stroke; stroke: #00ffff; stroke-width: 1; fill-opacity: 0" transform="scale(0.196721,-0.042409)"/>
<path d=" M60,2467.69 L120,3344.35 L180,3580.46 L240,2757.38 L300,4198.49 L360,3067.94 L420,4448.68 L480,3129.05 L540,4566.45 L600,3084.05 L660,4476.61 L720,3544.51 L780,3956.67 L840,3666.10 L900,3583.35 L960,3926.25 L1020,3136.71 L1080,4296.47 L1140,2775.96 L1200,4510.57 L1260,2370.11 L1320,4369.59 L1380,3120.69 L1440,4026.43 L1500,3813.60 L1560,4447.28 L1620,3035.02 L1680,4637.69 L1740,3180.89 L1800,4716.03 L1860,2932.23 L1920,4515.26 L1980,3130.15 L2040,4027.04 L2100,3233.67 L2160,4266.05 L2220,3384.54 L2280,4112.88 L2340,3689.20 L2400,3751.25 L2460,3955.41 L2520,3641.03 L2580,4394.54 L2640,3103.95 L2700,4621.68 L2760,2859.57 L2820,4669.97 L2880,3222.40 L2940,4535.52 L3000,2973.07 L3060,4505.61 L3120,3400.29 L3180,3725.57 L3240,3723.13 L3300,3757.95 L3360,4058.74 L3420,3266.06 L3480,4261.66 L3540,3335.87 L3600,4629.23 L3660,3275.00" style="vector-effect: non-scaling-stroke; stroke: #ff0000; stroke-width: 1; fill-opacity: 0" transform="scale(0.196721,-0.042409)"/>
</g>
<rect x="0" y="620" height="300" width="1050" fill="#000000"/>
<text x="0" y="640" style="fill: #ffff00; stroke: none">Network interfaces statistics (3) [lo]
<tspan x="795" y="645" style="fill: #ffff00; stroke: none; font-size: 12px">(Min, Max values)</tspan>
</text>
<polyline points="70,670 70,870 790,870" style="fill: #000000; stroke: #ffffff; stroke-width: 2"/>
<text x="795" y="670" style="fill: #e85f00; stroke: none; font-size: 12px">rxcmp/s (0.00, 0.00)</text>
<text x="795" y="685" style="fill: #0000ff; stroke: none; font-size: 12px">txcmp/s (0.00, 0.00)</text>
<text x="795" y="700" style="fill: #006020; stroke: none; font-size: 12px">rxmcst/s (0.00, 0.00)</text>
<g transform="translate(70,870)">
<text x="0" y="0" style="fill: #ffffff; stroke: none; font-size: 12px; text-anchor: end">0.00.</text>
<polyline points="0,0.33 720,0.33" style="vector-effect: non-scaling-stroke; stroke: #202020" transform="scale(1,-200.000000)"/>
<text x="0" y="-66" style="fill: #ffffff; stroke: none; font-size: 12px; text-anchor: end">0.33.</text>
<polyline points="0,0.67 720,0.67" style="vector-effect: non-scaling-stroke; stroke: #202020" transform="scale(1,-200.000000)"/>
<text x="0" y="-134" style="fill: #ffffff; stroke: none; font-size: 12px; text-anchor: end">0.67.</text>
<polyline points="0,1.00 720,1.00" style="vector-effect: non-scaling-stroke; stroke: #202020" transform="scale(1,-200.000000)"/>
<text x="0" y="-200" style="fill: #ffffff; stroke: none; font-size: 12px; text-anchor: end">1.00.</text>
<polyline points="0,0 0,-200" style="vector-effect: non-scaling-stroke; stroke: #202020" transform="scale(0.196721,1)"/>
<text x="0" y="10" style="fill: #ffffff; stroke: none; font-size: 12px; text-anchor: start" transform="rotate(45,0,0)">00:43:46</text>
<polyline points="366,0 366,-200" style="vector-effect: non-scaling-stroke; stroke: #202020" transform="scale(0.196721,1)"/>
<text x="72" y="10" style="fill: #ffffff; stroke: none; font-size: 12px; text-anchor: start" transform="rotate(45,72,0)">00:49:52</text>
<polyline points="732,0 732,-200" style="vector-effect: non-scaling-stroke; stroke: #202020" transform="scale(0.196721,1)"/>
<text x="144" y="10" style="fill: #ffffff; stroke: none; font-size: 12px; text-anchor: start" transform="rotate(45,144,0)">00:55:58</text>
<polyline points="1098,0 1098,-200" style="vector-effect: non-scaling-stroke; stroke: #202020" transform="scale(0.196721,1)"/>
<text x="216" y="10" style="fill: #ffffff; stroke: none; font-size: 12px; text-anchor: start" transform="rotate(45,216,0)">01:02:04</text>
<polyline points="1464,0 1464,-200" style="vector-effect: non-scaling-stroke; stroke: #202020" transform="scale(0.196721,1)"/>
<text x="288" y="10" style="fill: #ffffff; stroke: none; font-size: 12px; text-anchor: start" transform="rotate(45,288,0)">01:08:10</text>
<polyline points="1830,0 1830,-200" style="vector-effect: non-scaling-stroke; stroke: #202020" transform="scale(0.196721,1)"/>
<text x="360" y="10" style="fill: #ffffff; stroke: none; font-size: 12px; text-anchor: start" transform="rotate(45,360,0)">01:14:16</text>
<polyline points="2196,0 2196,-200" style="vector-effect: non-scaling-stroke; stroke: #202020" transform="scale(0.196721,1)"/>
<text x="432" y="10" style="fill: #ffffff; stroke: none; font-size: 12px; text-anchor: start" transform="rotate(45,432,0)">01:20:22</text>
<polyline points="2562,0 2562,-200" style="vector-effect: non-scaling-stroke; stroke: #202020" transform="scale(0.196721,1)"/>
<text x="504" y="10" style="fill: #ffffff; stroke: none; font-size: 12px; text-anchor: start" transform="rotate(45,504,0)">01:26:28</text>
<polyline points="2928,0 2928,-200" style="vector-effect: non-scaling-stroke; stroke: #202020" transform="scale(0.196721,1)"/>
<text x="576" y="10" style="fill: #ffffff; stroke: none; font-size: 12px; text-anchor: start" transform="rotate(45,576,0)">01:32:34</text>
<polyline points="3294,0 3294,-200" style="vector-effect: non-scaling-stroke; stroke: #202020" transform="scale(0.196721,1)"/>
<text x="648" y="10" style="fill: #ffffff; stroke: none; font-size: 12px; text-anchor: start" transform="rotate(45,648,0)">01:38:40</text>
<polyline points="3660,0 3660,-200" style="vector-effect: non-scaling-stroke; stroke: #202020" transform="scale(0.196721,1)"/>
<text x="720" y="10" style="fill: #ffffff; stroke: none; font-size: 12px; text-anchor: start" transform="rotate(45,720,0)">01:44:46</text>
<text x="-10" y="30" style="fill: #ffff00; stroke: none; font-size: 12px; text-anchor: end">UTC</text>
<path d=" M60,0.00 L120,0.00 L180,0.00 L240,0.00 L300,0.00 L360,0.00 L420,0.00 L480,0.00 L540,0.00 L600,0.00 L660,0.00 L720,0.00 L780,0.00 L840,0.00 L900,0.00 L960,0.00 L1020,0.00 L1080,0.00 L1140,0.00 L1200,0.00 L1260,0.00 L1320,0.00 L1380,0.00 L1440,0.00 L1500,0.00 L1560,0.00 L1620,0.00 L1680,0.00 L1740,0.00 L1800,0.00 L1860,0.00 L1920,0.00 L1980,0.00 L2040,0.00 L2100,0.00 L2160,0.00 L2220,0.00 L2280,0.00 L2340,0.00 L2400,0.00 L2460,0.00 L2520,0.00 L2580,0.00 L2640,0.00 L2700,0.00 L2760,0.00 L2820,0.00 L2880,0.00 L2940,0.00 L3000,0.00 L3060,0.00 L3120,0.00 L3180,0.00 L3240,0.00 L3300,0.00 L3360,0.00 L3420,0.00 L3480,0.00 L3540,0.00 L3600,0.00 L3660,0.00" style="vector-effect: non-scaling-stroke; stroke: #e85f00; stroke-width: 1; fill-opacity: 0" transform="scale(0.196721,-200.000000)"/>
<path d=" M60,0.00 L120,0.00 L180,0.00 L240,0.00 L300,0.00 L360,0.00 L420,0.00 L480,0.00 L540,0.00 L600,0.00 L660,0.00 L720,0.00 L780,0.00 L840,0.00 L900,0.00 L960,0.00 L1020,0.00 L1080,0.00 L1140,0.00 L1200,0.00 L1260,0.00 L1320,0.00 L1380,0.00 L1440,0.00 L1500,0.00 L1560,0.00 L1620,0.00 L1680,0.00 L1740,0.00 L1800,0.00 L1860,0.00 L1920,0.00 L1980,0.00 L2040,0.00 L2100,0.00 L2160,0.00 L2220,0.00 L2280,0.00 L2340,0.00 L2400,0.00 L2460,0.00 L2520,0.00 L2580,0.00 L2640,0.00 L2700,0.00 L2760,0.00 L2820,0.00 L2880,0.00 L2940,0.00 L3000,0.00 L3060,0.00 L3120,0.00 L3180,0.00 L3240,0.00 L3300,0.00 L3360,0.00 L3420,0.00 L3480,0.00 L3540,0.00 L3600,0.00 L3660,0.00" style="vector-effect: non-scaling-stroke; stroke: #0000ff; stroke-width: 1; fill-opacity: 0" transform="scale(0.196721,-200.000000)"/>
<path d=" M60,0.00 L120,0.00 L180,0.00 L240,0.00 L300,0.00 L360,0.00 L420,0.00 L480,0.00 L540,0.00 L600,0.00 L660,0.00 L720,0.00 L780,0.00 L840,0.00 L900,0.00 L960,0.00 L1020,0.00 L1080,0.00 L1140,0.00 L1200,0.00 L1260,0.00 L1320,0.00 L1380,0.00 L1440,0.00 L1500,0.00 L1560,0.00 L1620,0.00 L1680,0.00 L1740,0.00 L1800,0.00 L1860,0.00 L1920,0.00 L1980,0.00 L2040,0.00 L2100,0.00 L2160,0.00 L2220,0.00 L2280,0.00 L2340,0.00 L2400,0.00 L2460,0.00 L2520,0.00 L2580,0.00 L2640,0.00 L2700,0.00 L2760,0.00 L2820,0.00 L2880,0.00 L2940,0.00 L3000,0.00 L3060,0.00 L3120,0.00 L3180,0.00 L3240,0.00 L3300,0.00 L3360,0.00 L3420,0.00 L3480,0.00 L3540,0.00 L3600,0.00 L3660,0.00" style="vector-effect: non-scaling-stroke; stroke: #006020; stroke-width: 1; fill-opacity: 0" transform="scale(0.196721,-200.000000)"/>
</g>
<rect x="0" y="930" height="300" width="1050" fill="#000000"/>
<text x="0" y="950" style="fill: #ffff00; stroke: none">Network interfaces statistics (4) [lo]
<tspan x="795" y="955" style="fill: #ffff00; stroke: none; font-size: 12px">(Min, Max values)</tspan>
</text>
<polyline points="70,980 70,1180 790,1180" style="fill: #000000; stroke: #ffffff; stroke-width: 2"/>
<text x="795" y="980" style="fill: #7030a0; stroke: none; font-size: 12px">%ifutil (0.00, 0.00)</text>
<g transform="translate(70,1180)">
<text x="0" y="0" style="fill: #ffffff; stroke: none; font-size: 12px; text-anchor: end">0.</text>
<polyline points="0,25.00 720,25.00" style="vector-effect: non-scaling-stroke; stroke: #202020" transform="scale(1,-2.000000)"/>
<text x="0" y="-50" style="fill: #ffffff; stroke: none; font-size: 12px; text-anchor: end">25.</text>
<polyline points="0,50.00 720,50.00" style="vector-effect: non-scaling-stroke; stroke: #202020" transform="scale(1,-2.000000)"/>
<text x="0" y="-100" style="fill: #ffffff; stroke: none; font-size: 12px; text-anchor: end">50.</text>
<polyline points="0,75.00 720,75.00" style="vector-effect: non-scaling-stroke; stroke: #202020" transform="scale(1,-2.000000)"/>
<text x="0" y="-150" style="fill: #ffffff; stroke: none; font-size: 12px; text-anchor: end">75.</text>
<polyline points="0,100.00 720,100.00" style="vector-effect: non-scaling-stroke; stroke: #202020" transform="scale(1,-2.000000)"/>
<text x="0" y="-200" style="fill: #ffffff; stroke: none; font-size: 12px; text-anchor: end">100.</text>
<polyline points="0,0 0,-200" style="vector-effect: non-scaling-stroke; stroke: #202020" transform="scale(0.196721,1)"/>
<text x="0" y="10" style="fill: #ffffff; stroke: none; font-size: 12px; text-anchor: start" transform="rotate(45,0,0)">00:43:46</text>
<polyline points="366,0 366,-200" style="vector-effect: non-scaling-stroke; stroke: #202020" transform="scale(0.196721,1)"/>
<text x="72" y="10" style="fill: #ffffff; stroke: none; font-size: 12px; text-anchor: start" transform="rotate(45,72,0)">00:49:52</text>
<polyline points="732,0 732,-200" style="vector-effect: non-scaling-stroke; stroke: #202020" transform="scale(0.196721,1)"/>
<text x="144" y="10" style="fill: #ffffff; stroke: none; font-size: 12px; text-anchor: start" transform="rotate(45,144,0)">00:55:58</text>
<polyline points="1098,0 1098,-200" style="vector-effect: non-scaling-stroke; stroke: #202020" transform="scale(0.196721,1)"/>
<text x="216" y="10" style="fill: #ffffff; stroke: none; font-size: 12px; text-anchor: start" transform="rotate(45,216,0)">01:02:04</text>
<polyline points="1464,0 1464,-200" style="vector-effect: non-scaling-stroke; stroke: #202020" transform="scale(0.196721,1)"/>
<text x="288" y="10" style="fill: #ffffff; stroke: none; font-size: 12px; text-anchor: start" transform="rotate(45,288,0)">01:08:10</text>
<polyline points="1830,0 1830,-200" style="vector-effect: non-scaling-stroke; stroke: #202020" transform="scale(0.196721,1)"/>
<text x="360" y="10" style="fill: #ffffff; stroke: none; font-size: 12px; text-anchor: start" transform="rotate(45,360,0)">01:14:16</text>
<polyline points="2196,0 2196,-200" style="vector-effect: non-scaling-stroke; stroke: #202020" transform="scale(0.196721,1)"/>
<text x="432" y="10" style="fill: #ffffff; stroke: none; font-size: 12px; text-anchor: start" transform="rotate(45,432,0)">01:20:22</text>
<polyline points="2562,0 2562,-200" style="vector-effect: non-scaling-stroke; stroke: #202020" transform="scale(0.196721,1)"/>
<text x="504" y="10" style="fill: #ffffff; stroke: none; font-size: 12px; text-anchor: start" transform="rotate(45,504,0)">01:26:28</text>
<polyline points="2928,0 2928,-200" style="vector-effect: non-scaling-stroke; stroke: #202020" transform="scale(0.196721,1)"/>
<text x="576" y="10" style="fill: #ffffff; stroke: none; font-size: 12px; text-anchor: start" transform="rotate(45,576,0)">01:32:34</text>
<polyline points="3294,0 3294,-200" style="vector-effect: non-scaling-stroke; stroke: #202020" transform="scale(0.196721,1)"/>
<text x="648" y="10" style="fill: #ffffff; stroke: none; font-size: 12px; text-anchor: start" transform="rotate(45,648,0)">01:38:40</text>
<polyline points="3660,0 3660,-200" style="vector-effect: non-scaling-stroke; stroke: #202020" transform="scale(0.196721,1)"/>
<text x="720" y="10" style="fill: #ffffff; stroke: none; font-size: 12px; text-anchor: start" transform="rotate(45,720,0)">01:44:46</text>
<text x="-10" y="30" style="fill: #ffff00; stroke: none; font-size: 12px; text-anchor: end">UTC</text>
</g>
</g>
<g id="g12-1" transform="translate(0,1300)">
<rect x="0" y="0" height="300" width="1050" fill="#000000"/>
<text x="0" y="20" style="fill: #ffff00; stroke: none">Network interfaces statistics (1) [ens5]
<tspan x="795" y="25" style="fill: #ffff00; stroke: none; font-size: 12px">(Min, Max values)</tspan>
</text>
<polyline points="70,50 70,250 790,250" style="fill: #000000; stroke: #ffffff; stroke-width: 2"/>
<text x="795" y="50" style="fill: #00cc00; stroke: none; font-size: 12px">rxpck/s (0.22, 11.63)</text>
<text x="795" y="65" style="fill: #ff00bf; stroke: none; font-size: 12px">txpck/s (0.22, 17.63)</text>
<g transform="translate(70,250)">
<text x="0" y="0" style="fill: #ffffff; stroke: none; font-size: 12px; text-anchor: end">0.</text>
<polyline points="0,5.00 720,5.00" style="vector-effect: non-scaling-stroke; stroke: #202020" transform="scale(1,-11.342155)"/>
<text x="0" y="-56" style="fill: #ffffff; stroke: none; font-size: 12px; text-anchor: end">5.</text>
<polyline points="0,10.00 720,10.00" style="vector-effect: non-scaling-stroke; stroke: #202020" transform="scale(1,-11.342155)"/>
<text x="0" y="-113" style="fill: #ffffff; stroke: none; font-size: 12px; text-anchor: end">10.</text>
<polyline points="0,15.00 720,15.00" style="vector-effect: non-scaling-stroke; stroke: #202020" transform="scale(1,-11.342155)"/>
<text x="0" y="-170" style="fill: #ffffff; stroke: none; font-size: 12px; text-anchor: end">15.</text>
<polyline points="0,0 0,-200" style="vector-effect: non-scaling-stroke; stroke: #202020" transform="scale(0.196721,1)"/>
<text x="0" y="10" style="fill: #ffffff; stroke: none; font-size: 12px; text-anchor: start" transform="rotate(45,0,0)">00:43:46</text>
<polyline points="366,0 366,-200" style="vector-effect: non-scaling-stroke; stroke: #202020" transform="scale(0.196721,1)"/>
<text x="72" y="10" style="fill: #ffffff; stroke: none; font-size: 12px; text-anchor: start" transform="rotate(45,72,0)">00:49:52</text>
<polyline points="732,0 732,-200" style="vector-effect: non-scaling-stroke; stroke: #202020" transform="scale(0.196721,1)"/>
<text x="144" y="10" style="fill: #ffffff; stroke: none; font-size: 12px; text-anchor: start" transform="rotate(45,144,0)">00:55:58</text>
<polyline points="1098,0 1098,-200" style="vector-effect: non-scaling-stroke; stroke: #202020" transform="scale(0.196721,1)"/>
<text x="216" y="10" style="fill: #ffffff; stroke: none; font-size: 12px; text-anchor: start" transform="rotate(45,216,0)">01:02:04</text>
<polyline points="1464,0 1464,-200" style="vector-effect: non-scaling-stroke; stroke: #202020" transform="scale(0.196721,1)"/>
<text x="288" y="10" style="fill: #ffffff; stroke: none; font-size: 12px; text-anchor: start" transform="rotate(45,288,0)">01:08:10</text>
<polyline points="1830,0 1830,-200" style="vector-effect: non-scaling-stroke; stroke: #202020" transform="scale(0.196721,1)"/>
<text x="360" y="10" style="fill: #ffffff; stroke: none; font-size: 12px; text-anchor: start" transform="rotate(45,360,0)">01:14:16</text>
<polyline points="2196,0 2196,-200" style="vector-effect: non-scaling-stroke; stroke: #202020" transform="scale(0.196721,1)"/>
<text x="432" y="10" style="fill: #ffffff; stroke: none; font-size: 12px; text-anchor: start" transform="rotate(45,432,0)">01:20:22</text>
<polyline points="2562,0 2562,-200" style="vector-effect: non-scaling-stroke; stroke: #202020" transform="scale(0.196721,1)"/>
<text x="504" y="10" style="fill: #ffffff; stroke: none; font-size: 12px; text-anchor: start" transform="rotate(45,504,0)">01:26:28</text>
<polyline points="2928,0 2928,-200" style="vector-effect: non-scaling-stroke; stroke: #202020" transform="scale(0.196721,1)"/>
<text x="576" y="10" style="fill: #ffffff; stroke: none; font-size: 12px; text-anchor: start" transform="rotate(45,576,0)">01:32:34</text>
<polyline points="3294,0 3294,-200" style="vector-effect: non-scaling-stroke; stroke: #202020" transform="scale(0.196721,1)"/>
<text x="648" y="10" style="fill: #ffffff; stroke: none; font-size: 12px; text-anchor: start" transform="rotate(45,648,0)">01:38:40</text>
<polyline points="3660,0 3660,-200" style="vector-effect: non-scaling-stroke; stroke: #202020" transform="scale(0.196721,1)"/>
<text x="720" y="10" style="fill: #ffffff; stroke: none; font-size: 12px; text-anchor: start" transform="rotate(45,720,0)">01:44:46</text>
<text x="-10" y="30" style="fill: #ffff00; stroke: none; font-size: 12px; text-anchor: end">UTC</text>
<path d=" M60,0.22 L120,1.03 L180,0.23 L240,0.72 L300,0.72 L360,0.32 L420,1.07 L480,0.30 L540,0.25 L600,0.25 L660,0.25 L720,0.98 L780,0.28 L840,3.33 L900,8.63 L960,9.52 L1020,11.63 L1080,8.23 L1140,10.55 L1200,6.43 L1260,7.87 L1320,8.63 L1380,2.58 L1440,2.68 L1500,2.62 L1560,2.42 L1620,2.42 L1680,1.37 L1740,1.32 L1800,1.32 L1860,1.27 L1920,2.08 L1980,0.52 L2040,0.65 L2100,0.82 L2160,0.37 L2220,1.28 L2280,0.38 L2340,0.33 L2400,0.30 L2460,0.32 L2520,1.12 L2580,0.38 L2640,3.68 L2700,2.60 L2760,2.60 L2820,2.38 L2880,1.40 L2940,1.30 L3000,1.30 L3060,1.27 L3120,2.08 L3180,0.47 L3240,0.52 L3300,0.27 L3360,0.23 L3420,1.02 L3480,0.30 L3540,0.22 L3600,0.27 L3660,0.25" style="vector-effect: non-scaling-stroke; stroke: #00cc00; stroke-width: 1; fill-opacity: 0" transform="scale(0.196721,-11.342155)"/>
<path d=" M60,0.22 L120,1.05 L180,0.27 L240,0.75 L300,0.70 L360,0.30 L420,1.13 L480,0.30 L540,0.25 L600,0.25 L660,0.25 L720,1.02 L780,0.28 L840,9.50 L900,11.75 L960,17.63 L1020,16.08 L1080,8.28 L1140,14.73 L1200,10.15 L1260,11.65 L1320,13.07 L1380,2.77 L1440,2.75 L1500,6.20 L1560,2.53 L1620,2.48 L1680,1.38 L1740,1.33 L1800,1.33 L1860,1.28 L1920,2.13 L1980,0.52 L2040,0.68 L2100,0.80 L2160,0.37 L2220,1.35 L2280,0.40 L2340,0.35 L2400,0.32 L2460,0.33 L2520,1.17 L2580,0.42 L2640,12.20 L2700,2.97 L2760,2.65 L2820,2.42 L2880,1.42 L2940,1.37 L3000,1.32 L3060,1.28 L3120,2.13 L3180,0.47 L3240,0.55 L3300,0.27 L3360,0.25 L3420,1.15 L3480,0.32 L3540,0.23 L3600,0.30 L3660,0.28" style="vector-effect: non-scaling-stroke; stroke: #ff00bf; stroke-width: 1; fill-opacity: 0" transform="scale(0.196721,-11.342155)"/>
</g>
<rect x="0" y="310" height="300" width="1050" fill="#000000"/>
<text x="0" y="330" style="fill: #ffff00; stroke: none">Network interfaces statistics (2) [ens5]
<tspan x="795" y="335" style="fill: #ffff00; stroke: none; font-size: 12px">(Min, Max values)</tspan>
</text>
<polyline points="70,360 70,560 790,560" style="fill: #000000; stroke: #ffffff; stroke-width: 2"/>
<text x="795" y="360" style="fill: #00ffff; stroke: none; font-size: 12px">rxkB/s (0.01, 1.74)</text>
<text x="795" y="375" style="fill: #ff0000; stroke: none; font-size: 12px">txkB/s (0.02, 16.07)</text>
<g transform="translate(70,560)">
<text x="0" y="0" style="fill: #ffffff; stroke: none; font-size: 12px; text-anchor: end">0.</text>
<polyline points="0,5.00 720,5.00" style="vector-effect: non-scaling-stroke; stroke: #202020" transform="scale(1,-12.446784)"/>
<text x="0" y="-62" style="fill: #ffffff; stroke: none; font-size: 12px; text-anchor: end">5.</text>
<polyline points="0,10.00 720,10.00" style="vector-effect: non-scaling-stroke; stroke: #202020" transform="scale(1,-12.446784)"/>
<text x="0" y="-124" style="fill: #ffffff; stroke: none; font-size: 12px; text-anchor: end">10.</text>
<polyline points="0,15.00 720,15.00" style="vector-effect: non-scaling-stroke; stroke: #202020" transform="scale(1,-12.446784)"/>
<text x="0" y="-186" style="fill: #ffffff; stroke: none; font-size: 12px; text-anchor: end">15.</text>
<polyline points="0,0 0,-200" style="vector-effect: non-scaling-stroke; stroke: #202020" transform="scale(0.196721,1)"/>
<text x="0" y="10" style="fill: #ffffff; stroke: none; font-size: 12px; text-anchor: start" transform="rotate(45,0,0)">00:43:46</text>
<polyline points="366,0 366,-200" style="vector-effect: non-scaling-stroke; stroke: #202020" transform="scale(0.196721,1)"/>
<text x="72" y="10" style="fill: #ffffff; stroke: none; font-size: 12px; text-anchor: start" transform="rotate(45,72,0)">00:49:52</text>
<polyline points="732,0 732,-200" style="vector-effect: non-scaling-stroke; stroke: #202020" transform="scale(0.196721,1)"/>
<text x="144" y="10" style="fill: #ffffff; stroke: none; font-size: 12px; text-anchor: start" transform="rotate(45,144,0)">00:55:58</text>
<polyline points="1098,0 1098,-200" style="vector-effect: non-scaling-stroke; stroke: #202020" transform="scale(0.196721,1)"/>
<text x="216" y="10" style="fill: #ffffff; stroke: none; font-size: 12px; text-anchor: start" transform="rotate(45,216,0)">01:02:04</text>
<polyline points="1464,0 1464,-200" style="vector-effect: non-scaling-stroke; stroke: #202020" transform="scale(0.196721,1)"/>
<text x="288" y="10" style="fill: #ffffff; stroke: none; font-size: 12px; text-anchor: start" transform="rotate(45,288,0)">01:08:10</text>
<polyline points="1830,0 1830,-200" style="vector-effect: non-scaling-stroke; stroke: #202020" transform="scale(0.196721,1)"/>
<text x="360" y="10" style="fill: #ffffff; stroke: none; font-size: 12px; text-anchor: start" transform="rotate(45,360,0)">01:14:16</text>
<polyline points="2196,0 2196,-200" style="vector-effect: non-scaling-stroke; stroke: #202020" transform="scale(0.196721,1)"/>
<text x="432" y="10" style="fill: #ffffff; stroke: none; font-size: 12px; text-anchor: start" transform="rotate(45,432,0)">01:20:22</text>
<polyline points="2562,0 2562,-200" style="vector-effect: non-scaling-stroke; stroke: #202020" transform="scale(0.196721,1)"/>
<text x="504" y="10" style="fill: #ffffff; stroke: none; font-size: 12px; text-anchor: start" transform="rotate(45,504,0)">01:26:28</text>
<polyline points="2928,0 2928,-200" style="vector-effect: non-scaling-stroke; stroke: #202020" transform="scale(0.196721,1)"/>
<text x="576" y="10" style="fill: #ffffff; stroke: none; font-size: 12px; text-anchor: start" transform="rotate(45,576,0)">01:32:34</text>
<polyline points="3294,0 3294,-200" style="vector-effect: non-scaling-stroke; stroke: #202020" transform="scale(0.196721,1)"/>
<text x="648" y="10" style="fill: #ffffff; stroke: none; font-size: 12px; text-anchor: start" transform="rotate(45,648,0)">01:38:40</text>
<polyline points="3660,0 3660,-200" style="vector-effect: non-scaling-stroke; stroke: #202020" transform="scale(0.196721,1)"/>
<text x="720" y="10" style="fill: #ffffff; stroke: none; font-size: 12px; text-anchor: start" transform="rotate(45,720,0)">01:44:46</text>
<text x="-10" y="30" style="fill: #ffff00; stroke: none; font-size: 12px; text-anchor: end">UTC</text>
<path d=" M60,0.02 L120,0.21 L180,0.01 L240,0.20 L300,0.19 L360,0.03 L420,0.20 L480,0.03 L540,0.03 L600,0.03 L660,0.03 L720,0.20 L780,0.03 L840,0.73 L900,1.62 L960,1.58 L1020,1.74 L1080,1.50 L1140,1.62 L1200,1.11 L1260,1.65 L1320,1.61 L1380,0.18 L1440,0.29 L1500,0.23 L1560,0.24 L1620,0.29 L1680,0.11 L1740,0.11 L1800,0.10 L1860,0.10 L1920,0.28 L1980,0.06 L2040,0.18 L2100,0.21 L2160,0.05 L2220,0.27 L2280,0.06 L2340,0.05 L2400,0.05 L2460,0.05 L2520,0.23 L2580,0.06 L2640,0.85 L2700,0.21 L2760,0.26 L2820,0.28 L2880,0.11 L2940,0.10 L3000,0.10 L3060,0.10 L3120,0.28 L3180,0.05 L3240,0.14 L3300,0.03 L3360,0.03 L3420,0.20 L3480,0.03 L3540,0.02 L3600,0.03 L3660,0.03" style="vector-effect: non-scaling-stroke; stroke: #00ffff; stroke-width: 1; fill-opacity: 0" transform="scale(0.196721,-12.446784)"/>
<path d=" M60,0.03 L120,0.20 L180,0.02 L240,0.14 L300,0.14 L360,0.04 L420,0.18 L480,0.04 L540,0.04 L600,0.04 L660,0.04 L720,0.18 L780,0.04 L840,11.56 L900,9.60 L960,16.07 L1020,11.92 L1080,3.43 L1140,10.43 L1200,9.58 L1260,10.29 L1320,10.59 L1380,0.71 L1440,0.41 L1500,6.45 L1560,0.54 L1620,0.31 L1680,0.15 L1740,0.17 L1800,0.15 L1860,0.14 L1920,0.29 L1980,0.10 L2040,0.17 L2100,0.18 L2160,0.09 L2220,0.25 L2280,0.09 L2340,0.08 L2400,0.08 L2460,0.08 L2520,0.23 L2580,0.09 L2640,15.11 L2700,1.28 L2760,0.39 L2820,0.29 L2880,0.15 L2940,0.15 L3000,0.17 L3060,0.12 L3120,0.29 L3180,0.07 L3240,0.12 L3300,0.04 L3360,0.04 L3420,0.18 L3480,0.04 L3540,0.04 L3600,0.04 L3660,0.04" style="vector-effect: non-scaling-stroke; stroke: #ff0000; stroke-width: 1; fill-opacity: 0" transform="scale(0.196721,-12.446784)"/>
</g>
<rect x="0" y="620" height="300" width="1050" fill="#000000"/>
<text x="0" y="640" style="fill: #ffff00; stroke: none">Network interfaces statistics (3) [ens5]
<tspan x="795" y="645" style="fill: #ffff00; stroke: none; font-size: 12px">(Min, Max values)</tspan>
</text>
<polyline points="70,670 70,870 790,870" style="fill: #000000; stroke: #ffffff; stroke-width: 2"/>
<text x="795" y="670" style="fill: #e85f00; stroke: none; font-size: 12px">rxcmp/s (0.00, 0.00)</text>
<text x="795" y="685" style="fill: #0000ff; stroke: none; font-size: 12px">txcmp/s (0.00, 0.00)</text>
<text x="795" y="700" style="fill: #006020; stroke: none; font-size: 12px">rxmcst/s (0.00, 0.00)</text>
<g transform="translate(70,870)">
<text x="0" y="0" style="fill: #ffffff; stroke: none; font-size: 12px; text-anchor: end">0.00.</text>
<polyline points="0,0.33 720,0.33" style="vector-effect: non-scaling-stroke; stroke: #202020" transform="scale(1,-200.000000)"/>
<text x="0" y="-66" style="fill: #ffffff; stroke: none; font-size: 12px; text-anchor: end">0.33.</text>
<polyline points="0,0.67 720,0.67" style="vector-effect: non-scaling-stroke; stroke: #202020" transform="scale(1,-200.000000)"/>
<text x="0" y="-134" style="fill: #ffffff; stroke: none; font-size: 12px; text-anchor: end">0.67.</text>
<polyline points="0,1.00 720,1.00" style="vector-effect: non-scaling-stroke; stroke: #202020" transform="scale(1,-200.000000)"/>
<text x="0" y="-200" style="fill: #ffffff; stroke: none; font-size: 12px; text-anchor: end">1.00.</text>
<polyline points="0,0 0,-200" style="vector-effect: non-scaling-stroke; stroke: #202020" transform="scale(0.196721,1)"/>
<text x="0" y="10" style="fill: #ffffff; stroke: none; font-size: 12px; text-anchor: start" transform="rotate(45,0,0)">00:43:46</text>
<polyline points="366,0 366,-200" style="vector-effect: non-scaling-stroke; stroke: #202020" transform="scale(0.196721,1)"/>
<text x="72" y="10" style="fill: #ffffff; stroke: none; font-size: 12px; text-anchor: start" transform="rotate(45,72,0)">00:49:52</text>
<polyline points="732,0 732,-200" style="vector-effect: non-scaling-stroke; stroke: #202020" transform="scale(0.196721,1)"/>
<text x="144" y="10" style="fill: #ffffff; stroke: none; font-size: 12px; text-anchor: start" transform="rotate(45,144,0)">00:55:58</text>
<polyline points="1098,0 1098,-200" style="vector-effect: non-scaling-stroke; stroke: #202020" transform="scale(0.196721,1)"/>
<text x="216" y="10" style="fill: #ffffff; stroke: none; font-size: 12px; text-anchor: start" transform="rotate(45,216,0)">01:02:04</text>
<polyline points="1464,0 1464,-200" style="vector-effect: non-scaling-stroke; stroke: #202020" transform="scale(0.196721,1)"/>
<text x="288" y="10" style="fill: #ffffff; stroke: none; font-size: 12px; text-anchor: start" transform="rotate(45,288,0)">01:08:10</text>
<polyline points="1830,0 1830,-200" style="vector-effect: non-scaling-stroke; stroke: #202020" transform="scale(0.196721,1)"/>
<text x="360" y="10" style="fill: #ffffff; stroke: none; font-size: 12px; text-anchor: start" transform="rotate(45,360,0)">01:14:16</text>
<polyline points="2196,0 2196,-200" style="vector-effect: non-scaling-stroke; stroke: #202020" transform="scale(0.196721,1)"/>
<text x="432" y="10" style="fill: #ffffff; stroke: none; font-size: 12px; text-anchor: start" transform="rotate(45,432,0)">01:20:22</text>
<polyline points="2562,0 2562,-200" style="vector-effect: non-scaling-stroke; stroke: #202020" transform="scale(0.196721,1)"/>
<text x="504" y="10" style="fill: #ffffff; stroke: none; font-size: 12px; text-anchor: start" transform="rotate(45,504,0)">01:26:28</text>
<polyline points="2928,0 2928,-200" style="vector-effect: non-scaling-stroke; stroke: #202020" transform="scale(0.196721,1)"/>
<text x="576" y="10" style="fill: #ffffff; stroke: none; font-size: 12px; text-anchor: start" transform="rotate(45,576,0)">01:32:34</text>
<polyline points="3294,0 3294,-200" style="vector-effect: non-scaling-stroke; stroke: #202020" transform="scale(0.196721,1)"/>
<text x="648" y="10" style="fill: #ffffff; stroke: none; font-size: 12px; text-anchor: start" transform="rotate(45,648,0)">01:38:40</text>
<polyline points="3660,0 3660,-200" style="vector-effect: non-scaling-stroke; stroke: #202020" transform="scale(0.196721,1)"/>
<text x="720" y="10" style="fill: #ffffff; stroke: none; font-size: 12px; text-anchor: start" transform="rotate(45,720,0)">01:44:46</text>
<text x="-10" y="30" style="fill: #ffff00; stroke: none; font-size: 12px; text-anchor: end">UTC</text>
<path d=" M60,0.00 L120,0.00 L180,0.00 L240,0.00 L300,0.00 L360,0.00 L420,0.00 L480,0.00 L540,0.00 L600,0.00 L660,0.00 L720,0.00 L780,0.00 L840,0.00 L900,0.00 L960,0.00 L1020,0.00 L1080,0.00 L1140,0.00 L1200,0.00 L1260,0.00 L1320,0.00 L1380,0.00 L1440,0.00 L1500,0.00 L1560,0.00 L1620,0.00 L1680,0.00 L1740,0.00 L1800,0.00 L1860,0.00 L1920,0.00 L1980,0.00 L2040,0.00 L2100,0.00 L2160,0.00 L2220,0.00 L2280,0.00 L2340,0.00 L2400,0.00 L2460,0.00 L2520,0.00 L2580,0.00 L2640,0.00 L2700,0.00 L2760,0.00 L2820,0.00 L2880,0.00 L2940,0.00 L3000,0.00 L3060,0.00 L3120,0.00 L3180,0.00 L3240,0.00 L3300,0.00 L3360,0.00 L3420,0.00 L3480,0.00 L3540,0.00 L3600,0.00 L3660,0.00" style="vector-effect: non-scaling-stroke; stroke: #e85f00; stroke-width: 1; fill-opacity: 0" transform="scale(0.196721,-200.000000)"/>
<path d=" M60,0.00 L120,0.00 L180,0.00 L240,0.00 L300,0.00 L360,0.00 L420,0.00 L480,0.00 L540,0.00 L600,0.00 L660,0.00 L720,0.00 L780,0.00 L840,0.00 L900,0.00 L960,0.00 L1020,0.00 L1080,0.00 L1140,0.00 L1200,0.00 L1260,0.00 L1320,0.00 L1380,0.00 L1440,0.00 L1500,0.00 L1560,0.00 L1620,0.00 L1680,0.00 L1740,0.00 L1800,0.00 L1860,0.00 L1920,0.00 L1980,0.00 L2040,0.00 L2100,0.00 L2160,0.00 L2220,0.00 L2280,0.00 L2340,0.00 L2400,0.00 L2460,0.00 L2520,0.00 L2580,0.00 L2640,0.00 L2700,0.00 L2760,0.00 L2820,0.00 L2880,0.00 L2940,0.00 L3000,0.00 L3060,0.00 L3120,0.00 L3180,0.00 L3240,0.00 L3300,0.00 L3360,0.00 L3420,0.00 L3480,0.00 L3540,0.00 L3600,0.00 L3660,0.00" style="vector-effect: non-scaling-stroke; stroke: #0000ff; stroke-width: 1; fill-opacity: 0" transform="scale(0.196721,-200.000000)"/>
<path d=" M60,0.00 L120,0.00 L180,0.00 L240,0.00 L300,0.00 L360,0.00 L420,0.00 L480,0.00 L540,0.00 L600,0.00 L660,0.00 L720,0.00 L780,0.00 L840,0.00 L900,0.00 L960,0.00 L1020,0.00 L1080,0.00 L1140,0.00 L1200,0.00 L1260,0.00 L1320,0.00 L1380,0.00 L1440,0.00 L1500,0.00 L1560,0.00 L1620,0.00 L1680,0.00 L1740,0.00 L1800,0.00 L1860,0.00 L1920,0.00 L1980,0.00 L2040,0.00 L2100,0.00 L2160,0.00 L2220,0.00 L2280,0.00 L2340,0.00 L2400,0.00 L2460,0.00 L2520,0.00 L2580,0.00 L2640,0.00 L2700,0.00 L2760,0.00 L2820,0.00 L2880,0.00 L2940,0.00 L3000,0.00 L3060,0.00 L3120,0.00 L3180,0.00 L3240,0.00 L3300,0.00 L3360,0.00 L3420,0.00 L3480,0.00 L3540,0.00 L3600,0.00 L3660,0.00" style="vector-effect: non-scaling-stroke; stroke: #006020; stroke-width: 1; fill-opacity: 0" transform="scale(0.196721,-200.000000)"/>
</g>
<rect x="0" y="930" height="300" width="1050" fill="#000000"/>
<text x="0" y="950" style="fill: #ffff00; stroke: none">Network interfaces statistics (4) [ens5]
<tspan x="795" y="955" style="fill: #ffff00; stroke: none; font-size: 12px">(Min, Max values)</tspan>
</text>
<polyline points="70,980 70,1180 790,1180" style="fill: #000000; stroke: #ffffff; stroke-width: 2"/>
<text x="795" y="980" style="fill: #7030a0; stroke: none; font-size: 12px">%ifutil (0.00, 0.00)</text>
<g transform="translate(70,1180)">
<text x="0" y="0" style="fill: #ffffff; stroke: none; font-size: 12px; text-anchor: end">0.</text>
<polyline points="0,25.00 720,25.00" style="vector-effect: non-scaling-stroke; stroke: #202020" transform="scale(1,-2.000000)"/>
<text x="0" y="-50" style="fill: #ffffff; stroke: none; font-size: 12px; text-anchor: end">25.</text>
<polyline points="0,50.00 720,50.00" style="vector-effect: non-scaling-stroke; stroke: #202020" transform="scale(1,-2.000000)"/>
<text x="0" y="-100" style="fill: #ffffff; stroke: none; font-size: 12px; text-anchor: end">50.</text>
<polyline points="0,75.00 720,75.00" style="vector-effect: non-scaling-stroke; stroke: #202020" transform="scale(1,-2.000000)"/>
<text x="0" y="-150" style="fill: #ffffff; stroke: none; font-size: 12px; text-anchor: end">75.</text>
<polyline points="0,100.00 720,100.00" style="vector-effect: non-scaling-stroke; stroke: #202020" transform="scale(1,-2.000000)"/>
<text x="0" y="-200" style="fill: #ffffff; stroke: none; font-size: 12px; text-anchor: end">100.</text>
<polyline points="0,0 0,-200" style="vector-effect: non-scaling-stroke; stroke: #202020" transform="scale(0.196721,1)"/>
<text x="0" y="10" style="fill: #ffffff; stroke: none; font-size: 12px; text-anchor: start" transform="rotate(45,0,0)">00:43:46</text>
<polyline points="366,0 366,-200" style="vector-effect: non-scaling-stroke; stroke: #202020" transform="scale(0.196721,1)"/>
<text x="72" y="10" style="fill: #ffffff; stroke: none; font-size: 12px; text-anchor: start" transform="rotate(45,72,0)">00:49:52</text>
<polyline points="732,0 732,-200" style="vector-effect: non-scaling-stroke; stroke: #202020" transform="scale(0.196721,1)"/>
<text x="144" y="10" style="fill: #ffffff; stroke: none; font-size: 12px; text-anchor: start" transform="rotate(45,144,0)">00:55:58</text>
<polyline points="1098,0 1098,-200" style="vector-effect: non-scaling-stroke; stroke: #202020" transform="scale(0.196721,1)"/>
<text x="216" y="10" style="fill: #ffffff; stroke: none; font-size: 12px; text-anchor: start" transform="rotate(45,216,0)">01:02:04</text>
<polyline points="1464,0 1464,-200" style="vector-effect: non-scaling-stroke; stroke: #202020" transform="scale(0.196721,1)"/>
<text x="288" y="10" style="fill: #ffffff; stroke: none; font-size: 12px; text-anchor: start" transform="rotate(45,288,0)">01:08:10</text>
<polyline points="1830,0 1830,-200" style="vector-effect: non-scaling-stroke; stroke: #202020" transform="scale(0.196721,1)"/>
<text x="360" y="10" style="fill: #ffffff; stroke: none; font-size: 12px; text-anchor: start" transform="rotate(45,360,0)">01:14:16</text>
<polyline points="2196,0 2196,-200" style="vector-effect: non-scaling-stroke; stroke: #202020" transform="scale(0.196721,1)"/>
<text x="432" y="10" style="fill: #ffffff; stroke: none; font-size: 12px; text-anchor: start" transform="rotate(45,432,0)">01:20:22</text>
<polyline points="2562,0 2562,-200" style="vector-effect: non-scaling-stroke; stroke: #202020" transform="scale(0.196721,1)"/>
<text x="504" y="10" style="fill: #ffffff; stroke: none; font-size: 12px; text-anchor: start" transform="rotate(45,504,0)">01:26:28</text>
<polyline points="2928,0 2928,-200" style="vector-effect: non-scaling-stroke; stroke: #202020" transform="scale(0.196721,1)"/>
<text x="576" y="10" style="fill: #ffffff; stroke: none; font-size: 12px; text-anchor: start" transform="rotate(45,576,0)">01:32:34</text>
<polyline points="3294,0 3294,-200" style="vector-effect: non-scaling-stroke; stroke: #202020" transform="scale(0.196721,1)"/>
<text x="648" y="10" style="fill: #ffffff; stroke: none; font-size: 12px; text-anchor: start" transform="rotate(45,648,0)">01:38:40</text>
<polyline points="3660,0 3660,-200" style="vector-effect: non-scaling-stroke; stroke: #202020" transform="scale(0.196721,1)"/>
<text x="720" y="10" style="fill: #ffffff; stroke: none; font-size: 12px; text-anchor: start" transform="rotate(45,720,0)">01:44:46</text>
<text x="-10" y="30" style="fill: #ffff00; stroke: none; font-size: 12px; text-anchor: end">UTC</text>
</g>
</g>
<!-- Actual canvas height: 2540 -->
</svg>
