<?xml version="1.0" encoding="UTF-8"?>
<!DOCTYPE svg PUBLIC "-//W3C//DTD SVG 1.1//EN" "http://www.w3.org/Graphics/SVG/1.1/DTD/svg11.dtd">
<svg xmlns="http://www.w3.org/2000/svg" width="1060" height="2540" fill="black" stroke="#808080" stroke-width="1">
<text x="0" y="30" text-anchor="start" stroke="#a52a2a">Linux 6.12.94+deb13-cloud-amd64 (madrona) 	09/10/26 	_x86_64_	(16 CPU)
</text>
<g id="g12-0" transform="translate(0,60)">
<rect x="0" y="0" height="300" width="1050" fill="#000000"/>
<text x="0" y="20" style="fill: #ffff00; stroke: none">Network interfaces statistics (1) [lo]
<tspan x="795" y="25" style="fill: #ffff00; stroke: none; font-size: 12px">(Min, Max values)</tspan>
</text>
<polyline points="70,50 70,250 790,250" style="fill: #000000; stroke: #ffffff; stroke-width: 2"/>
<text x="795" y="50" style="fill: #00cc00; stroke: none; font-size: 12px">rxpck/s (6216.37, 11259.63)</text>
<text x="795" y="65" style="fill: #ff00bf; stroke: none; font-size: 12px">txpck/s (6216.37, 11259.63)</text>
<g transform="translate(70,250)">
<text x="0" y="0" style="fill: #ffffff; stroke: none; font-size: 12px; text-anchor: end">0.</text>
<polyline points="0,3000.00 720,3000.00" style="vector-effect: non-scaling-stroke; stroke: #202020" transform="scale(1,-0.017763)"/>
<text x="0" y="-53" style="fill: #ffffff; stroke: none; font-size: 12px; text-anchor: end">3000.</text>
<polyline points="0,6000.00 720,6000.00" style="vector-effect: non-scaling-stroke; stroke: #202020" transform="scale(1,-0.017763)"/>
<text x="0" y="-106" style="fill: #ffffff; stroke: none; font-size: 12px; text-anchor: end">6000.</text>
<polyline points="0,9000.00 720,9000.00" style="vector-effect: non-scaling-stroke; stroke: #202020" transform="scale(1,-0.017763)"/>
<text x="0" y="-159" style="fill: #ffffff; stroke: none; font-size: 12px; text-anchor: end">9000.</text>
<polyline points="0,0 0,-200" style="vector-effect: non-scaling-stroke; stroke: #202020" transform="scale(0.196721,1)"/>
<text x="0" y="10" style="fill: #ffffff; stroke: none; font-size: 12px; text-anchor: start" transform="rotate(45,0,0)">05:32:23</text>
<polyline points="366,0 366,-200" style="vector-effect: non-scaling-stroke; stroke: #202020" transform="scale(0.196721,1)"/>
<text x="72" y="10" style="fill: #ffffff; stroke: none; font-size: 12px; text-anchor: start" transform="rotate(45,72,0)">05:38:29</text>
<polyline points="732,0 732,-200" style="vector-effect: non-scaling-stroke; stroke: #202020" transform="scale(0.196721,1)"/>
<text x="144" y="10" style="fill: #ffffff; stroke: none; font-size: 12px; text-anchor: start" transform="rotate(45,144,0)">05:44:35</text>
<polyline points="1098,0 1098,-200" style="vector-effect: non-scaling-stroke; stroke: #202020" transform="scale(0.196721,1)"/>
<text x="216" y="10" style="fill: #ffffff; stroke: none; font-size: 12px; text-anchor: start" transform="rotate(45,216,0)">05:50:41</text>
<polyline points="1464,0 1464,-200" style="vector-effect: non-scaling-stroke; stroke: #202020" transform="scale(0.196721,1)"/>
<text x="288" y="10" style="fill: #ffffff; stroke: none; font-size: 12px; text-anchor: start" transform="rotate(45,288,0)">05:56:47</text>
<polyline points="1830,0 1830,-200" style="vector-effect: non-scaling-stroke; stroke: #202020" transform="scale(0.196721,1)"/>
<text x="360" y="10" style="fill: #ffffff; stroke: none; font-size: 12px; text-anchor: start" transform="rotate(45,360,0)">06:02:53</text>
<polyline points="2196,0 2196,-200" style="vector-effect: non-scaling-stroke; stroke: #202020" transform="scale(0.196721,1)"/>
<text x="432" y="10" style="fill: #ffffff; stroke: none; font-size: 12px; text-anchor: start" transform="rotate(45,432,0)">06:08:59</text>
<polyline points="2562,0 2562,-200" style="vector-effect: non-scaling-stroke; stroke: #202020" transform="scale(0.196721,1)"/>
<text x="504" y="10" style="fill: #ffffff; stroke: none; font-size: 12px; text-anchor: start" transform="rotate(45,504,0)">06:15:05</text>
<polyline points="2928,0 2928,-200" style="vector-effect: non-scaling-stroke; stroke: #202020" transform="scale(0.196721,1)"/>
<text x="576" y="10" style="fill: #ffffff; stroke: none; font-size: 12px; text-anchor: start" transform="rotate(45,576,0)">06:21:11</text>
<polyline points="3294,0 3294,-200" style="vector-effect: non-scaling-stroke; stroke: #202020" transform="scale(0.196721,1)"/>
<text x="648" y="10" style="fill: #ffffff; stroke: none; font-size: 12px; text-anchor: start" transform="rotate(45,648,0)">06:27:17</text>
<polyline points="3660,0 3660,-200" style="vector-effect: non-scaling-stroke; stroke: #202020" transform="scale(0.196721,1)"/>
<text x="720" y="10" style="fill: #ffffff; stroke: none; font-size: 12px; text-anchor: start" transform="rotate(45,720,0)">06:33:23</text>
<text x="-10" y="30" style="fill: #ffff00; stroke: none; font-size: 12px; text-anchor: end">UTC</text>
<path d=" M60,6216.37 L120,9638.22 L180,10468.70 L240,10696.92 L300,10234.23 L360,10746.98 L420,10429.17 L480,10876.87 L540,10878.77 L600,10669.37 L660,10813.90 L720,10812.73 L780,10941.30 L840,10779.68 L900,10922.22 L960,10807.78 L1020,11088.10 L1080,10689.37 L1140,10912.60 L1200,10754.02 L1260,11109.07 L1320,10793.90 L1380,11117.48 L1440,11043.83 L1500,10721.48 L1560,11153.93 L1620,10546.95 L1680,11189.13 L1740,10757.52 L1800,11052.77 L1860,10759.20 L1920,10916.57 L1980,11008.33 L2040,10770.94 L2100,11030.47 L2160,10670.95 L2220,10914.55 L2280,11016.02 L2340,10785.63 L2400,11017.70 L2460,10602.15 L2520,11057.17 L2580,10766.59 L2640,10896.93 L2700,10662.47 L2760,10973.50 L2820,10841.43 L2880,11187.88 L2940,11013.12 L3000,10812.45 L3060,11051.58 L3120,10821.58 L3180,11259.63 L3240,10710.18 L3300,11027.77 L3360,10799.63 L3420,11100.88 L3480,10671.53 L3540,11027.13 L3600,10670.70 L3660,10964.94" style="vector-effect: non-scaling-stroke; stroke: #00cc00; stroke-width: 1; fill-opacity: 0" transform="scale(0.196721,-0.017763)"/>
<path d=" M60,6216.37 L120,9638.22 L180,10468.70 L240,10696.92 L300,10234.23 L360,10746.98 L420,10429.17 L480,10876.87 L540,10878.77 L600,10669.37 L660,10813.90 L720,10812.73 L780,10941.30 L840,10779.68 L900,10922.22 L960,10807.78 L1020,11088.10 L1080,10689.37 L1140,10912.60 L1200,10754.02 L1260,11109.07 L1320,10793.90 L1380,11117.48 L1440,11043.83 L1500,10721.48 L1560,11153.93 L1620,10546.95 L1680,11189.13 L1740,10757.52 L1800,11052.77 L1860,10759.20 L1920,10916.57 L1980,11008.33 L2040,10770.94 L2100,11030.47 L2160,10670.95 L2220,10914.55 L2280,11016.02 L2340,10785.63 L2400,11017.70 L2460,10602.15 L2520,11057.17 L2580,10766.59 L2640,10896.93 L2700,10662.47 L2760,10973.50 L2820,10841.43 L2880,11187.88 L2940,11013.12 L3000,10812.45 L3060,11051.58 L3120,10821.58 L3180,11259.63 L3240,10710.18 L3300,11027.77 L3360,10799.63 L3420,11100.88 L3480,10671.53 L3540,11027.13 L3600,10670.70 L3660,10964.94" style="vector-effect: non-scaling-stroke; stroke: #ff00bf; stroke-width: 1; fill-opacity: 0" transform="scale(0.196721,-0.017763)"/>
</g>
<rect x="0" y="310" height="300" width="1050" fill="#000000"/>
<text x="0" y="330" style="fill: #ffff00; stroke: none">Network interfaces statistics (2) [lo]
<tspan x="795" y="335" style="fill: #ffff00; stroke: none; font-size: 12px">(Min, Max values)</tspan>
</text>
<polyline points="70,360 70,560 790,560" style="fill: #000000; stroke: #ffffff; stroke-width: 2"/>
<text x="795" y="360" style="fill: #00ffff; stroke: none; font-size: 12px">rxkB/s (3014.53, 5563.85)</text>
<text x="795" y="375" style="fill: #ff0000; stroke: none; font-size: 12px">txkB/s (3014.53, 5563.85)</text>
<g transform="translate(70,560)">
<text x="0" y="0" style="fill: #ffffff; stroke: none; font-size: 12px; text-anchor: end">0.</text>
<polyline points="0,1000.00 720,1000.00" style="vector-effect: non-scaling-stroke; stroke: #202020" transform="scale(1,-0.035946)"/>
<text x="0" y="-35" style="fill: #ffffff; stroke: none; font-size: 12px; text-anchor: end">1000.</text>
<polyline points="0,2000.00 720,2000.00" style="vector-effect: non-scaling-stroke; stroke: #202020" transform="scale(1,-0.035946)"/>
<text x="0" y="-71" style="fill: #ffffff; stroke: none; font-size: 12px; text-anchor: end">2000.</text>
<polyline points="0,3000.00 720,3000.00" style="vector-effect: non-scaling-stroke; stroke: #202020" transform="scale(1,-0.035946)"/>
<text x="0" y="-107" style="fill: #ffffff; stroke: none; font-size: 12px; text-anchor: end">3000.</text>
<polyline points="0,4000.00 720,4000.00" style="vector-effect: non-scaling-stroke; stroke: #202020" transform="scale(1,-0.035946)"/>
<text x="0" y="-143" style="fill: #ffffff; stroke: none; font-size: 12px; text-anchor: end">4000.</text>
<polyline points="0,5000.00 720,5000.00" style="vector-effect: non-scaling-stroke; stroke: #202020" transform="scale(1,-0.035946)"/>
<text x="0" y="-179" style="fill: #ffffff; stroke: none; font-size: 12px; text-anchor: end">5000.</text>
<polyline points="0,0 0,-200" style="vector-effect: non-scaling-stroke; stroke: #202020" transform="scale(0.196721,1)"/>
<text x="0" y="10" style="fill: #ffffff; stroke: none; font-size: 12px; text-anchor: start" transform="rotate(45,0,0)">05:32:23</text>
<polyline points="366,0 366,-200" style="vector-effect: non-scaling-stroke; stroke: #202020" transform="scale(0.196721,1)"/>
<text x="72" y="10" style="fill: #ffffff; stroke: none; font-size: 12px; text-anchor: start" transform="rotate(45,72,0)">05:38:29</text>
<polyline points="732,0 732,-200" style="vector-effect: non-scaling-stroke; stroke: #202020" transform="scale(0.196721,1)"/>
<text x="144" y="10" style="fill: #ffffff; stroke: none; font-size: 12px; text-anchor: start" transform="rotate(45,144,0)">05:44:35</text>
<polyline points="1098,0 1098,-200" style="vector-effect: non-scaling-stroke; stroke: #202020" transform="scale(0.196721,1)"/>
<text x="216" y="10" style="fill: #ffffff; stroke: none; font-size: 12px; text-anchor: start" transform="rotate(45,216,0)">05:50:41</text>
<polyline points="1464,0 1464,-200" style="vector-effect: non-scaling-stroke; stroke: #202020" transform="scale(0.196721,1)"/>
<text x="288" y="10" style="fill: #ffffff; stroke: none; font-size: 12px; text-anchor: start" transform="rotate(45,288,0)">05:56:47</text>
<polyline points="1830,0 1830,-200" style="vector-effect: non-scaling-stroke; stroke: #202020" transform="scale(0.196721,1)"/>
<text x="360" y="10" style="fill: #ffffff; stroke: none; font-size: 12px; text-anchor: start" transform="rotate(45,360,0)">06:02:53</text>
<polyline points="2196,0 2196,-200" style="vector-effect: non-scaling-stroke; stroke: #202020" transform="scale(0.196721,1)"/>
<text x="432" y="10" style="fill: #ffffff; stroke: none; font-size: 12px; text-anchor: start" transform="rotate(45,432,0)">06:08:59</text>
<polyline points="2562,0 2562,-200" style="vector-effect: non-scaling-stroke; stroke: #202020" transform="scale(0.196721,1)"/>
<text x="504" y="10" style="fill: #ffffff; stroke: none; font-size: 12px; text-anchor: start" transform="rotate(45,504,0)">06:15:05</text>
<polyline points="2928,0 2928,-200" style="vector-effect: non-scaling-stroke; stroke: #202020" transform="scale(0.196721,1)"/>
<text x="576" y="10" style="fill: #ffffff; stroke: none; font-size: 12px; text-anchor: start" transform="rotate(45,576,0)">06:21:11</text>
<polyline points="3294,0 3294,-200" style="vector-effect: non-scaling-stroke; stroke: #202020" transform="scale(0.196721,1)"/>
<text x="648" y="10" style="fill: #ffffff; stroke: none; font-size: 12px; text-anchor: start" transform="rotate(45,648,0)">06:27:17</text>
<polyline points="3660,0 3660,-200" style="vector-effect: non-scaling-stroke; stroke: #202020" transform="scale(0.196721,1)"/>
<text x="720" y="10" style="fill: #ffffff; stroke: none; font-size: 12px; text-anchor: start" transform="rotate(45,720,0)">06:33:23</text>
<text x="-10" y="30" style="fill: #ffff00; stroke: none; font-size: 12px; text-anchor: end">UTC</text>
<path d=" M60,3014.53 L120,4825.21 L180,5215.33 L240,5305.83 L300,5127.39 L360,5346.64 L420,5059.65 L480,5396.71 L540,5297.76 L600,5251.73 L660,5352.99 L720,5295.21 L780,5407.41 L840,5246.41 L900,5393.47 L960,5292.76 L1020,5402.03 L1080,5181.51 L1140,5378.58 L1200,5328.06 L1260,5426.83 L1320,5287.95 L1380,5442.56 L1440,5427.62 L1500,5270.02 L1560,5438.45 L1620,5177.13 L1680,5537.04 L1740,5289.64 L1800,5429.34 L1860,5209.85 L1920,5338.85 L1980,5443.96 L2040,5258.62 L2100,5395.57 L2160,5216.51 L2220,5379.46 L2280,5322.00 L2340,5351.51 L2400,5467.60 L2460,5105.75 L2520,5341.48 L2580,5475.54 L2640,5350.37 L2700,5241.06 L2760,5430.58 L2820,5309.48 L2880,5459.40 L2940,5364.35 L3000,5303.83 L3060,5440.13 L3120,5377.23 L3180,5563.85 L3240,5175.25 L3300,5436.71 L3360,5244.76 L3420,5492.04 L3480,5236.51 L3540,5446.02 L3600,5210.96 L3660,5428.96" style="vector-effect: non-scaling-stroke; stroke: #00ffff; stroke-width: 1; fill-opacity: 0" transform="scale(0.196721,-0.035946)"/>
<path d=" M60,3014.53 L120,4825.21 L180,5215.33 L240,5305.83 L300,5127.39 L360,5346.64 L420,5059.65 L480,5396.71 L540,5297.76 L600,5251.73 L660,5352.99 L720,5295.21 L780,5407.41 L840,5246.41 L900,5393.47 L960,5292.76 L1020,5402.03 L1080,5181.51 L1140,5378.58 L1200,5328.06 L1260,5426.83 L1320,5287.95 L1380,5442.56 L1440,5427.62 L1500,5270.02 L1560,5438.45 L1620,5177.13 L1680,5537.04 L1740,5289.64 L1800,5429.34 L1860,5209.85 L1920,5338.85 L1980,5443.96 L2040,5258.62 L2100,5395.57 L2160,5216.51 L2220,5379.46 L2280,5322.00 L2340,5351.51 L2400,5467.60 L2460,5105.75 L2520,5341.48 L2580,5475.54 L2640,5350.37 L2700,5241.06 L2760,5430.58 L2820,5309.48 L2880,5459.40 L2940,5364.35 L3000,5303.83 L3060,5440.13 L3120,5377.23 L3180,5563.85 L3240,5175.25 L3300,5436.71 L3360,5244.76 L3420,5492.04 L3480,5236.51 L3540,5446.02 L3600,5210.96 L3660,5428.96" style="vector-effect: non-scaling-stroke; stroke: #ff0000; stroke-width: 1; fill-opacity: 0" transform="scale(0.196721,-0.035946)"/>
</g>
<rect x="0" y="620" height="300" width="1050" fill="#000000"/>
<text x="0" y="640" style="fill: #ffff00; stroke: none">Network interfaces statistics (3) [lo]
<tspan x="795" y="645" style="fill: #ffff00; stroke: none; font-size: 12px">(Min, Max values)</tspan>
</text>
<polyline points="70,670 70,870 790,870" style="fill: #000000; stroke: #ffffff; stroke-width: 2"/>
<text x="795" y="670" style="fill: #e85f00; stroke: none; font-size: 12px">rxcmp/s (0.00, 0.00)</text>
<text x="795" y="685" style="fill: #0000ff; stroke: none; font-size: 12px">txcmp/s (0.00, 0.00)</text>
<text x="795" y="700" style="fill: #006020; stroke: none; font-size: 12px">rxmcst/s (0.00, 0.00)</text>
<g transform="translate(70,870)">
<text x="0" y="0" style="fill: #ffffff; stroke: none; font-size: 12px; text-anchor: end">0.00.</text>
<polyline points="0,0.33 720,0.33" style="vector-effect: non-scaling-stroke; stroke: #202020" transform="scale(1,-200.000000)"/>
<text x="0" y="-66" style="fill: #ffffff; stroke: none; font-size: 12px; text-anchor: end">0.33.</text>
<polyline points="0,0.67 720,0.67" style="vector-effect: non-scaling-stroke; stroke: #202020" transform="scale(1,-200.000000)"/>
<text x="0" y="-134" style="fill: #ffffff; stroke: none; font-size: 12px; text-anchor: end">0.67.</text>
<polyline points="0,1.00 720,1.00" style="vector-effect: non-scaling-stroke; stroke: #202020" transform="scale(1,-200.000000)"/>
<text x="0" y="-200" style="fill: #ffffff; stroke: none; font-size: 12px; text-anchor: end">1.00.</text>
<polyline points="0,0 0,-200" style="vector-effect: non-scaling-stroke; stroke: #202020" transform="scale(0.196721,1)"/>
<text x="0" y="10" style="fill: #ffffff; stroke: none; font-size: 12px; text-anchor: start" transform="rotate(45,0,0)">05:32:23</text>
<polyline points="366,0 366,-200" style="vector-effect: non-scaling-stroke; stroke: #202020" transform="scale(0.196721,1)"/>
<text x="72" y="10" style="fill: #ffffff; stroke: none; font-size: 12px; text-anchor: start" transform="rotate(45,72,0)">05:38:29</text>
<polyline points="732,0 732,-200" style="vector-effect: non-scaling-stroke; stroke: #202020" transform="scale(0.196721,1)"/>
<text x="144" y="10" style="fill: #ffffff; stroke: none; font-size: 12px; text-anchor: start" transform="rotate(45,144,0)">05:44:35</text>
<polyline points="1098,0 1098,-200" style="vector-effect: non-scaling-stroke; stroke: #202020" transform="scale(0.196721,1)"/>
<text x="216" y="10" style="fill: #ffffff; stroke: none; font-size: 12px; text-anchor: start" transform="rotate(45,216,0)">05:50:41</text>
<polyline points="1464,0 1464,-200" style="vector-effect: non-scaling-stroke; stroke: #202020" transform="scale(0.196721,1)"/>
<text x="288" y="10" style="fill: #ffffff; stroke: none; font-size: 12px; text-anchor: start" transform="rotate(45,288,0)">05:56:47</text>
<polyline points="1830,0 1830,-200" style="vector-effect: non-scaling-stroke; stroke: #202020" transform="scale(0.196721,1)"/>
<text x="360" y="10" style="fill: #ffffff; stroke: none; font-size: 12px; text-anchor: start" transform="rotate(45,360,0)">06:02:53</text>
<polyline points="2196,0 2196,-200" style="vector-effect: non-scaling-stroke; stroke: #202020" transform="scale(0.196721,1)"/>
<text x="432" y="10" style="fill: #ffffff; stroke: none; font-size: 12px; text-anchor: start" transform="rotate(45,432,0)">06:08:59</text>
<polyline points="2562,0 2562,-200" style="vector-effect: non-scaling-stroke; stroke: #202020" transform="scale(0.196721,1)"/>
<text x="504" y="10" style="fill: #ffffff; stroke: none; font-size: 12px; text-anchor: start" transform="rotate(45,504,0)">06:15:05</text>
<polyline points="2928,0 2928,-200" style="vector-effect: non-scaling-stroke; stroke: #202020" transform="scale(0.196721,1)"/>
<text x="576" y="10" style="fill: #ffffff; stroke: none; font-size: 12px; text-anchor: start" transform="rotate(45,576,0)">06:21:11</text>
<polyline points="3294,0 3294,-200" style="vector-effect: non-scaling-stroke; stroke: #202020" transform="scale(0.196721,1)"/>
<text x="648" y="10" style="fill: #ffffff; stroke: none; font-size: 12px; text-anchor: start" transform="rotate(45,648,0)">06:27:17</text>
<polyline points="3660,0 3660,-200" style="vector-effect: non-scaling-stroke; stroke: #202020" transform="scale(0.196721,1)"/>
<text x="720" y="10" style="fill: #ffffff; stroke: none; font-size: 12px; text-anchor: start" transform="rotate(45,720,0)">06:33:23</text>
<text x="-10" y="30" style="fill: #ffff00; stroke: none; font-size: 12px; text-anchor: end">UTC</text>
<path d=" M60,0.00 L120,0.00 L180,0.00 L240,0.00 L300,0.00 L360,0.00 L420,0.00 L480,0.00 L540,0.00 L600,0.00 L660,0.00 L720,0.00 L780,0.00 L840,0.00 L900,0.00 L960,0.00 L1020,0.00 L1080,0.00 L1140,0.00 L1200,0.00 L1260,0.00 L1320,0.00 L1380,0.00 L1440,0.00 L1500,0.00 L1560,0.00 L1620,0.00 L1680,0.00 L1740,0.00 L1800,0.00 L1860,0.00 L1920,0.00 L1980,0.00 L2040,0.00 L2100,0.00 L2160,0.00 L2220,0.00 L2280,0.00 L2340,0.00 L2400,0.00 L2460,0.00 L2520,0.00 L2580,0.00 L2640,0.00 L2700,0.00 L2760,0.00 L2820,0.00 L2880,0.00 L2940,0.00 L3000,0.00 L3060,0.00 L3120,0.00 L3180,0.00 L3240,0.00 L3300,0.00 L3360,0.00 L3420,0.00 L3480,0.00 L3540,0.00 L3600,0.00 L3660,0.00" style="vector-effect: non-scaling-stroke; stroke: #e85f00; stroke-width: 1; fill-opacity: 0" transform="scale(0.196721,-200.000000)"/>
<path d=" M60,0.00 L120,0.00 L180,0.00 L240,0.00 L300,0.00 L360,0.00 L420,0.00 L480,0.00 L540,0.00 L600,0.00 L660,0.00 L720,0.00 L780,0.00 L840,0.00 L900,0.00 L960,0.00 L1020,0.00 L1080,0.00 L1140,0.00 L1200,0.00 L1260,0.00 L1320,0.00 L1380,0.00 L1440,0.00 L1500,0.00 L1560,0.00 L1620,0.00 L1680,0.00 L1740,0.00 L1800,0.00 L1860,0.00 L1920,0.00 L1980,0.00 L2040,0.00 L2100,0.00 L2160,0.00 L2220,0.00 L2280,0.00 L2340,0.00 L2400,0.00 L2460,0.00 L2520,0.00 L2580,0.00 L2640,0.00 L2700,0.00 L2760,0.00 L2820,0.00 L2880,0.00 L2940,0.00 L3000,0.00 L3060,0.00 L3120,0.00 L3180,0.00 L3240,0.00 L3300,0.00 L3360,0.00 L3420,0.00 L3480,0.00 L3540,0.00 L3600,0.00 L3660,0.00" style="vector-effect: non-scaling-stroke; stroke: #0000ff; stroke-width: 1; fill-opacity: 0" transform="scale(0.196721,-200.000000)"/>
<path d=" M60,0.00 L120,0.00 L180,0.00 L240,0.00 L300,0.00 L360,0.00 L420,0.00 L480,0.00 L540,0.00 L600,0.00 L660,0.00 L720,0.00 L780,0.00 L840,0.00 L900,0.00 L960,0.00 L1020,0.00 L1080,0.00 L1140,0.00 L1200,0.00 L1260,0.00 L1320,0.00 L1380,0.00 L1440,0.00 L1500,0.00 L1560,0.00 L1620,0.00 L1680,0.00 L1740,0.00 L1800,0.00 L1860,0.00 L1920,0.00 L1980,0.00 L2040,0.00 L2100,0.00 L2160,0.00 L2220,0.00 L2280,0.00 L2340,0.00 L2400,0.00 L2460,0.00 L2520,0.00 L2580,0.00 L2640,0.00 L2700,0.00 L2760,0.00 L2820,0.00 L2880,0.00 L2940,0.00 L3000,0.00 L3060,0.00 L3120,0.00 L3180,0.00 L3240,0.00 L3300,0.00 L3360,0.00 L3420,0.00 L3480,0.00 L3540,0.00 L3600,0.00 L3660,0.00" style="vector-effect: non-scaling-stroke; stroke: #006020; stroke-width: 1; fill-opacity: 0" transform="scale(0.196721,-200.000000)"/>
</g>
<rect x="0" y="930" height="300" width="1050" fill="#000000"/>
<text x="0" y="950" style="fill: #ffff00; stroke: none">Network interfaces statistics (4) [lo]
<tspan x="795" y="955" style="fill: #ffff00; stroke: none; font-size: 12px">(Min, Max values)</tspan>
</text>
<polyline points="70,980 70,1180 790,1180" style="fill: #000000; stroke: #ffffff; stroke-width: 2"/>
<text x="795" y="980" style="fill: #7030a0; stroke: none; font-size: 12px">%ifutil (0.00, 0.00)</text>
<g transform="translate(70,1180)">
<text x="0" y="0" style="fill: #ffffff; stroke: none; font-size: 12px; text-anchor: end">0.</text>
<polyline points="0,25.00 720,25.00" style="vector-effect: non-scaling-stroke; stroke: #202020" transform="scale(1,-2.000000)"/>
<text x="0" y="-50" style="fill: #ffffff; stroke: none; font-size: 12px; text-anchor: end">25.</text>
<polyline points="0,50.00 720,50.00" style="vector-effect: non-scaling-stroke; stroke: #202020" transform="scale(1,-2.000000)"/>
<text x="0" y="-100" style="fill: #ffffff; stroke: none; font-size: 12px; text-anchor: end">50.</text>
<polyline points="0,75.00 720,75.00" style="vector-effect: non-scaling-stroke; stroke: #202020" transform="scale(1,-2.000000)"/>
<text x="0" y="-150" style="fill: #ffffff; stroke: none; font-size: 12px; text-anchor: end">75.</text>
<polyline points="0,100.00 720,100.00" style="vector-effect: non-scaling-stroke; stroke: #202020" transform="scale(1,-2.000000)"/>
<text x="0" y="-200" style="fill: #ffffff; stroke: none; font-size: 12px; text-anchor: end">100.</text>
<polyline points="0,0 0,-200" style="vector-effect: non-scaling-stroke; stroke: #202020" transform="scale(0.196721,1)"/>
<text x="0" y="10" style="fill: #ffffff; stroke: none; font-size: 12px; text-anchor: start" transform="rotate(45,0,0)">05:32:23</text>
<polyline points="366,0 366,-200" style="vector-effect: non-scaling-stroke; stroke: #202020" transform="scale(0.196721,1)"/>
<text x="72" y="10" style="fill: #ffffff; stroke: none; font-size: 12px; text-anchor: start" transform="rotate(45,72,0)">05:38:29</text>
<polyline points="732,0 732,-200" style="vector-effect: non-scaling-stroke; stroke: #202020" transform="scale(0.196721,1)"/>
<text x="144" y="10" style="fill: #ffffff; stroke: none; font-size: 12px; text-anchor: start" transform="rotate(45,144,0)">05:44:35</text>
<polyline points="1098,0 1098,-200" style="vector-effect: non-scaling-stroke; stroke: #202020" transform="scale(0.196721,1)"/>
<text x="216" y="10" style="fill: #ffffff; stroke: none; font-size: 12px; text-anchor: start" transform="rotate(45,216,0)">05:50:41</text>
<polyline points="1464,0 1464,-200" style="vector-effect: non-scaling-stroke; stroke: #202020" transform="scale(0.196721,1)"/>
<text x="288" y="10" style="fill: #ffffff; stroke: none; font-size: 12px; text-anchor: start" transform="rotate(45,288,0)">05:56:47</text>
<polyline points="1830,0 1830,-200" style="vector-effect: non-scaling-stroke; stroke: #202020" transform="scale(0.196721,1)"/>
<text x="360" y="10" style="fill: #ffffff; stroke: none; font-size: 12px; text-anchor: start" transform="rotate(45,360,0)">06:02:53</text>
<polyline points="2196,0 2196,-200" style="vector-effect: non-scaling-stroke; stroke: #202020" transform="scale(0.196721,1)"/>
<text x="432" y="10" style="fill: #ffffff; stroke: none; font-size: 12px; text-anchor: start" transform="rotate(45,432,0)">06:08:59</text>
<polyline points="2562,0 2562,-200" style="vector-effect: non-scaling-stroke; stroke: #202020" transform="scale(0.196721,1)"/>
<text x="504" y="10" style="fill: #ffffff; stroke: none; font-size: 12px; text-anchor: start" transform="rotate(45,504,0)">06:15:05</text>
<polyline points="2928,0 2928,-200" style="vector-effect: non-scaling-stroke; stroke: #202020" transform="scale(0.196721,1)"/>
<text x="576" y="10" style="fill: #ffffff; stroke: none; font-size: 12px; text-anchor: start" transform="rotate(45,576,0)">06:21:11</text>
<polyline points="3294,0 3294,-200" style="vector-effect: non-scaling-stroke; stroke: #202020" transform="scale(0.196721,1)"/>
<text x="648" y="10" style="fill: #ffffff; stroke: none; font-size: 12px; text-anchor: start" transform="rotate(45,648,0)">06:27:17</text>
<polyline points="3660,0 3660,-200" style="vector-effect: non-scaling-stroke; stroke: #202020" transform="scale(0.196721,1)"/>
<text x="720" y="10" style="fill: #ffffff; stroke: none; font-size: 12px; text-anchor: start" transform="rotate(45,720,0)">06:33:23</text>
<text x="-10" y="30" style="fill: #ffff00; stroke: none; font-size: 12px; text-anchor: end">UTC</text>
</g>
</g>
<g id="g12-1" transform="translate(0,1300)">
<rect x="0" y="0" height="300" width="1050" fill="#000000"/>
<text x="0" y="20" style="fill: #ffff00; stroke: none">Network interfaces statistics (1) [ens5]
<tspan x="795" y="25" style="fill: #ffff00; stroke: none; font-size: 12px">(Min, Max values)</tspan>
</text>
<polyline points="70,50 70,250 790,250" style="fill: #000000; stroke: #ffffff; stroke-width: 2"/>
<text x="795" y="50" style="fill: #00cc00; stroke: none; font-size: 12px">rxpck/s (0.30, 3.63)</text>
<text x="795" y="65" style="fill: #ff00bf; stroke: none; font-size: 12px">txpck/s (0.30, 26.87)</text>
<g transform="translate(70,250)">
<text x="0" y="0" style="fill: #ffffff; stroke: none; font-size: 12px; text-anchor: end">0.</text>
<polyline points="0,8.00 720,8.00" style="vector-effect: non-scaling-stroke; stroke: #202020" transform="scale(1,-7.444169)"/>
<text x="0" y="-59" style="fill: #ffffff; stroke: none; font-size: 12px; text-anchor: end">8.</text>
<polyline points="0,16.00 720,16.00" style="vector-effect: non-scaling-stroke; stroke: #202020" transform="scale(1,-7.444169)"/>
<text x="0" y="-119" style="fill: #ffffff; stroke: none; font-size: 12px; text-anchor: end">16.</text>
<polyline points="0,24.00 720,24.00" style="vector-effect: non-scaling-stroke; stroke: #202020" transform="scale(1,-7.444169)"/>
<text x="0" y="-178" style="fill: #ffffff; stroke: none; font-size: 12px; text-anchor: end">24.</text>
<polyline points="0,0 0,-200" style="vector-effect: non-scaling-stroke; stroke: #202020" transform="scale(0.196721,1)"/>
<text x="0" y="10" style="fill: #ffffff; stroke: none; font-size: 12px; text-anchor: start" transform="rotate(45,0,0)">05:32:23</text>
<polyline points="366,0 366,-200" style="vector-effect: non-scaling-stroke; stroke: #202020" transform="scale(0.196721,1)"/>
<text x="72" y="10" style="fill: #ffffff; stroke: none; font-size: 12px; text-anchor: start" transform="rotate(45,72,0)">05:38:29</text>
<polyline points="732,0 732,-200" style="vector-effect: non-scaling-stroke; stroke: #202020" transform="scale(0.196721,1)"/>
<text x="144" y="10" style="fill: #ffffff; stroke: none; font-size: 12px; text-anchor: start" transform="rotate(45,144,0)">05:44:35</text>
<polyline points="1098,0 1098,-200" style="vector-effect: non-scaling-stroke; stroke: #202020" transform="scale(0.196721,1)"/>
<text x="216" y="10" style="fill: #ffffff; stroke: none; font-size: 12px; text-anchor: start" transform="rotate(45,216,0)">05:50:41</text>
<polyline points="1464,0 1464,-200" style="vector-effect: non-scaling-stroke; stroke: #202020" transform="scale(0.196721,1)"/>
<text x="288" y="10" style="fill: #ffffff; stroke: none; font-size: 12px; text-anchor: start" transform="rotate(45,288,0)">05:56:47</text>
<polyline points="1830,0 1830,-200" style="vector-effect: non-scaling-stroke; stroke: #202020" transform="scale(0.196721,1)"/>
<text x="360" y="10" style="fill: #ffffff; stroke: none; font-size: 12px; text-anchor: start" transform="rotate(45,360,0)">06:02:53</text>
<polyline points="2196,0 2196,-200" style="vector-effect: non-scaling-stroke; stroke: #202020" transform="scale(0.196721,1)"/>
<text x="432" y="10" style="fill: #ffffff; stroke: none; font-size: 12px; text-anchor: start" transform="rotate(45,432,0)">06:08:59</text>
<polyline points="2562,0 2562,-200" style="vector-effect: non-scaling-stroke; stroke: #202020" transform="scale(0.196721,1)"/>
<text x="504" y="10" style="fill: #ffffff; stroke: none; font-size: 12px; text-anchor: start" transform="rotate(45,504,0)">06:15:05</text>
<polyline points="2928,0 2928,-200" style="vector-effect: non-scaling-stroke; stroke: #202020" transform="scale(0.196721,1)"/>
<text x="576" y="10" style="fill: #ffffff; stroke: none; font-size: 12px; text-anchor: start" transform="rotate(45,576,0)">06:21:11</text>
<polyline points="3294,0 3294,-200" style="vector-effect: non-scaling-stroke; stroke: #202020" transform="scale(0.196721,1)"/>
<text x="648" y="10" style="fill: #ffffff; stroke: none; font-size: 12px; text-anchor: start" transform="rotate(45,648,0)">06:27:17</text>
<polyline points="3660,0 3660,-200" style="vector-effect: non-scaling-stroke; stroke: #202020" transform="scale(0.196721,1)"/>
<text x="720" y="10" style="fill: #ffffff; stroke: none; font-size: 12px; text-anchor: start" transform="rotate(45,720,0)">06:33:23</text>
<text x="-10" y="30" style="fill: #ffff00; stroke: none; font-size: 12px; text-anchor: end">UTC</text>
<path d=" M60,2.62 L120,1.77 L180,1.33 L240,2.10 L300,1.67 L360,1.38 L420,1.27 L480,1.28 L540,2.12 L600,1.32 L660,1.30 L720,0.95 L780,0.30 L840,1.15 L900,0.83 L960,0.37 L1020,0.87 L1080,0.37 L1140,1.12 L1200,0.37 L1260,0.32 L1320,0.47 L1380,0.33 L1440,1.12 L1500,0.65 L1560,0.37 L1620,3.63 L1680,2.63 L1740,2.58 L1800,1.38 L1860,1.33 L1920,1.35 L1980,1.28 L2040,2.12 L2100,1.63 L2160,0.62 L2220,0.32 L2280,0.32 L2340,1.12 L2400,0.33 L2460,0.33 L2520,0.32 L2580,0.32 L2640,1.15 L2700,0.68 L2760,0.37 L2820,0.80 L2880,0.35 L2940,1.28 L3000,0.37 L3060,0.33 L3120,0.32 L3180,0.32 L3240,1.10 L3300,0.65 L3360,0.38 L3420,3.60 L3480,2.53 L3540,2.42 L3600,2.32 L3660,2.65" style="vector-effect: non-scaling-stroke; stroke: #00cc00; stroke-width: 1; fill-opacity: 0" transform="scale(0.196721,-7.444169)"/>
<path d=" M60,2.73 L120,1.80 L180,1.35 L240,2.15 L300,1.72 L360,1.40 L420,1.28 L480,1.30 L540,2.20 L600,1.35 L660,1.32 L720,1.08 L780,0.35 L840,1.27 L900,0.88 L960,0.37 L1020,0.85 L1080,0.37 L1140,1.15 L1200,0.37 L1260,0.33 L1320,0.47 L1380,0.30 L1440,1.13 L1500,0.63 L1560,0.33 L1620,26.72 L1680,2.95 L1740,2.65 L1800,1.40 L1860,1.35 L1920,1.42 L1980,1.32 L2040,2.17 L2100,1.63 L2160,0.58 L2220,0.33 L2280,0.33 L2340,1.18 L2400,0.35 L2460,0.35 L2520,0.35 L2580,0.33 L2640,1.17 L2700,0.70 L2760,0.37 L2820,0.80 L2880,0.35 L2940,1.37 L3000,0.38 L3060,0.37 L3120,0.33 L3180,0.33 L3240,1.18 L3300,0.67 L3360,0.38 L3420,26.87 L3480,2.93 L3540,2.52 L3600,13.12 L3660,2.72" style="vector-effect: non-scaling-stroke; stroke: #ff00bf; stroke-width: 1; fill-opacity: 0" transform="scale(0.196721,-7.444169)"/>
</g>
<rect x="0" y="310" height="300" width="1050" fill="#000000"/>
<text x="0" y="330" style="fill: #ffff00; stroke: none">Network interfaces statistics (2) [ens5]
<tspan x="795" y="335" style="fill: #ffff00; stroke: none; font-size: 12px">(Min, Max values)</tspan>
</text>
<polyline points="70,360 70,560 790,560" style="fill: #000000; stroke: #ffffff; stroke-width: 2"/>
<text x="795" y="360" style="fill: #00ffff; stroke: none; font-size: 12px">rxkB/s (0.05, 0.78)</text>
<text x="795" y="375" style="fill: #ff0000; stroke: none; font-size: 12px">txkB/s (0.08, 37.46)</text>
<g transform="translate(70,560)">
<text x="0" y="0" style="fill: #ffffff; stroke: none; font-size: 12px; text-anchor: end">0.</text>
<polyline points="0,10.00 720,10.00" style="vector-effect: non-scaling-stroke; stroke: #202020" transform="scale(1,-5.338391)"/>
<text x="0" y="-53" style="fill: #ffffff; stroke: none; font-size: 12px; text-anchor: end">10.</text>
<polyline points="0,20.00 720,20.00" style="vector-effect: non-scaling-stroke; stroke: #202020" transform="scale(1,-5.338391)"/>
<text x="0" y="-106" style="fill: #ffffff; stroke: none; font-size: 12px; text-anchor: end">20.</text>
<polyline points="0,30.00 720,30.00" style="vector-effect: non-scaling-stroke; stroke: #202020" transform="scale(1,-5.338391)"/>
<text x="0" y="-160" style="fill: #ffffff; stroke: none; font-size: 12px; text-anchor: end">30.</text>
<polyline points="0,0 0,-200" style="vector-effect: non-scaling-stroke; stroke: #202020" transform="scale(0.196721,1)"/>
<text x="0" y="10" style="fill: #ffffff; stroke: none; font-size: 12px; text-anchor: start" transform="rotate(45,0,0)">05:32:23</text>
<polyline points="366,0 366,-200" style="vector-effect: non-scaling-stroke; stroke: #202020" transform="scale(0.196721,1)"/>
<text x="72" y="10" style="fill: #ffffff; stroke: none; font-size: 12px; text-anchor: start" transform="rotate(45,72,0)">05:38:29</text>
<polyline points="732,0 732,-200" style="vector-effect: non-scaling-stroke; stroke: #202020" transform="scale(0.196721,1)"/>
<text x="144" y="10" style="fill: #ffffff; stroke: none; font-size: 12px; text-anchor: start" transform="rotate(45,144,0)">05:44:35</text>
<polyline points="1098,0 1098,-200" style="vector-effect: non-scaling-stroke; stroke: #202020" transform="scale(0.196721,1)"/>
<text x="216" y="10" style="fill: #ffffff; stroke: none; font-size: 12px; text-anchor: start" transform="rotate(45,216,0)">05:50:41</text>
<polyline points="1464,0 1464,-200" style="vector-effect: non-scaling-stroke; stroke: #202020" transform="scale(0.196721,1)"/>
<text x="288" y="10" style="fill: #ffffff; stroke: none; font-size: 12px; text-anchor: start" transform="rotate(45,288,0)">05:56:47</text>
<polyline points="1830,0 1830,-200" style="vector-effect: non-scaling-stroke; stroke: #202020" transform="scale(0.196721,1)"/>
<text x="360" y="10" style="fill: #ffffff; stroke: none; font-size: 12px; text-anchor: start" transform="rotate(45,360,0)">06:02:53</text>
<polyline points="2196,0 2196,-200" style="vector-effect: non-scaling-stroke; stroke: #202020" transform="scale(0.196721,1)"/>
<text x="432" y="10" style="fill: #ffffff; stroke: none; font-size: 12px; text-anchor: start" transform="rotate(45,432,0)">06:08:59</text>
<polyline points="2562,0 2562,-200" style="vector-effect: non-scaling-stroke; stroke: #202020" transform="scale(0.196721,1)"/>
<text x="504" y="10" style="fill: #ffffff; stroke: none; font-size: 12px; text-anchor: start" transform="rotate(45,504,0)">06:15:05</text>
<polyline points="2928,0 2928,-200" style="vector-effect: non-scaling-stroke; stroke: #202020" transform="scale(0.196721,1)"/>
<text x="576" y="10" style="fill: #ffffff; stroke: none; font-size: 12px; text-anchor: start" transform="rotate(45,576,0)">06:21:11</text>
<polyline points="3294,0 3294,-200" style="vector-effect: non-scaling-stroke; stroke: #202020" transform="scale(0.196721,1)"/>
<text x="648" y="10" style="fill: #ffffff; stroke: none; font-size: 12px; text-anchor: start" transform="rotate(45,648,0)">06:27:17</text>
<polyline points="3660,0 3660,-200" style="vector-effect: non-scaling-stroke; stroke: #202020" transform="scale(0.196721,1)"/>
<text x="720" y="10" style="fill: #ffffff; stroke: none; font-size: 12px; text-anchor: start" transform="rotate(45,720,0)">06:33:23</text>
<text x="-10" y="30" style="fill: #ffff00; stroke: none; font-size: 12px; text-anchor: end">UTC</text>
<path d=" M60,0.31 L120,0.13 L180,0.10 L240,0.28 L300,0.23 L360,0.11 L420,0.10 L480,0.10 L540,0.28 L600,0.10 L660,0.10 L720,0.08 L780,0.05 L840,0.23 L900,0.22 L960,0.05 L1020,0.22 L1080,0.05 L1140,0.23 L1200,0.05 L1260,0.05 L1320,0.10 L1380,0.05 L1440,0.23 L1500,0.17 L1560,0.05 L1620,0.73 L1680,0.26 L1740,0.32 L1800,0.11 L1860,0.10 L1920,0.10 L1980,0.10 L2040,0.28 L2100,0.22 L2160,0.07 L2220,0.05 L2280,0.05 L2340,0.23 L2400,0.05 L2460,0.05 L2520,0.05 L2580,0.05 L2640,0.23 L2700,0.18 L2760,0.05 L2820,0.21 L2880,0.05 L2940,0.27 L3000,0.05 L3060,0.05 L3120,0.05 L3180,0.05 L3240,0.23 L3300,0.17 L3360,0.06 L3420,0.78 L3480,0.21 L3540,0.30 L3600,0.19 L3660,0.28" style="vector-effect: non-scaling-stroke; stroke: #00ffff; stroke-width: 1; fill-opacity: 0" transform="scale(0.196721,-5.338391)"/>
<path d=" M60,0.58 L120,0.18 L180,0.15 L240,0.29 L300,0.28 L360,0.15 L420,0.14 L480,0.15 L540,0.29 L600,0.15 L660,0.15 L720,0.13 L780,0.09 L840,0.23 L900,0.19 L960,0.09 L1020,0.19 L1080,0.09 L1140,0.23 L1200,0.09 L1260,0.08 L1320,0.14 L1380,0.08 L1440,0.22 L1500,0.16 L1560,0.08 L1620,37.43 L1680,1.15 L1740,0.43 L1800,0.15 L1860,0.15 L1920,0.15 L1980,0.15 L2040,0.29 L2100,0.23 L2160,0.10 L2220,0.08 L2280,0.08 L2340,0.23 L2400,0.09 L2460,0.08 L2520,0.09 L2580,0.08 L2640,0.23 L2700,0.17 L2760,0.09 L2820,0.18 L2880,0.08 L2940,0.25 L3000,0.09 L3060,0.09 L3120,0.08 L3180,0.08 L3240,0.23 L3300,0.17 L3360,0.09 L3420,37.46 L3480,1.13 L3540,0.40 L3600,17.38 L3660,0.58" style="vector-effect: non-scaling-stroke; stroke: #ff0000; stroke-width: 1; fill-opacity: 0" transform="scale(0.196721,-5.338391)"/>
</g>
<rect x="0" y="620" height="300" width="1050" fill="#000000"/>
<text x="0" y="640" style="fill: #ffff00; stroke: none">Network interfaces statistics (3) [ens5]
<tspan x="795" y="645" style="fill: #ffff00; stroke: none; font-size: 12px">(Min, Max values)</tspan>
</text>
<polyline points="70,670 70,870 790,870" style="fill: #000000; stroke: #ffffff; stroke-width: 2"/>
<text x="795" y="670" style="fill: #e85f00; stroke: none; font-size: 12px">rxcmp/s (0.00, 0.00)</text>
<text x="795" y="685" style="fill: #0000ff; stroke: none; font-size: 12px">txcmp/s (0.00, 0.00)</text>
<text x="795" y="700" style="fill: #006020; stroke: none; font-size: 12px">rxmcst/s (0.00, 0.00)</text>
<g transform="translate(70,870)">
<text x="0" y="0" style="fill: #ffffff; stroke: none; font-size: 12px; text-anchor: end">0.00.</text>
<polyline points="0,0.33 720,0.33" style="vector-effect: non-scaling-stroke; stroke: #202020" transform="scale(1,-200.000000)"/>
<text x="0" y="-66" style="fill: #ffffff; stroke: none; font-size: 12px; text-anchor: end">0.33.</text>
<polyline points="0,0.67 720,0.67" style="vector-effect: non-scaling-stroke; stroke: #202020" transform="scale(1,-200.000000)"/>
<text x="0" y="-134" style="fill: #ffffff; stroke: none; font-size: 12px; text-anchor: end">0.67.</text>
<polyline points="0,1.00 720,1.00" style="vector-effect: non-scaling-stroke; stroke: #202020" transform="scale(1,-200.000000)"/>
<text x="0" y="-200" style="fill: #ffffff; stroke: none; font-size: 12px; text-anchor: end">1.00.</text>
<polyline points="0,0 0,-200" style="vector-effect: non-scaling-stroke; stroke: #202020" transform="scale(0.196721,1)"/>
<text x="0" y="10" style="fill: #ffffff; stroke: none; font-size: 12px; text-anchor: start" transform="rotate(45,0,0)">05:32:23</text>
<polyline points="366,0 366,-200" style="vector-effect: non-scaling-stroke; stroke: #202020" transform="scale(0.196721,1)"/>
<text x="72" y="10" style="fill: #ffffff; stroke: none; font-size: 12px; text-anchor: start" transform="rotate(45,72,0)">05:38:29</text>
<polyline points="732,0 732,-200" style="vector-effect: non-scaling-stroke; stroke: #202020" transform="scale(0.196721,1)"/>
<text x="144" y="10" style="fill: #ffffff; stroke: none; font-size: 12px; text-anchor: start" transform="rotate(45,144,0)">05:44:35</text>
<polyline points="1098,0 1098,-200" style="vector-effect: non-scaling-stroke; stroke: #202020" transform="scale(0.196721,1)"/>
<text x="216" y="10" style="fill: #ffffff; stroke: none; font-size: 12px; text-anchor: start" transform="rotate(45,216,0)">05:50:41</text>
<polyline points="1464,0 1464,-200" style="vector-effect: non-scaling-stroke; stroke: #202020" transform="scale(0.196721,1)"/>
<text x="288" y="10" style="fill: #ffffff; stroke: none; font-size: 12px; text-anchor: start" transform="rotate(45,288,0)">05:56:47</text>
<polyline points="1830,0 1830,-200" style="vector-effect: non-scaling-stroke; stroke: #202020" transform="scale(0.196721,1)"/>
<text x="360" y="10" style="fill: #ffffff; stroke: none; font-size: 12px; text-anchor: start" transform="rotate(45,360,0)">06:02:53</text>
<polyline points="2196,0 2196,-200" style="vector-effect: non-scaling-stroke; stroke: #202020" transform="scale(0.196721,1)"/>
<text x="432" y="10" style="fill: #ffffff; stroke: none; font-size: 12px; text-anchor: start" transform="rotate(45,432,0)">06:08:59</text>
<polyline points="2562,0 2562,-200" style="vector-effect: non-scaling-stroke; stroke: #202020" transform="scale(0.196721,1)"/>
<text x="504" y="10" style="fill: #ffffff; stroke: none; font-size: 12px; text-anchor: start" transform="rotate(45,504,0)">06:15:05</text>
<polyline points="2928,0 2928,-200" style="vector-effect: non-scaling-stroke; stroke: #202020" transform="scale(0.196721,1)"/>
<text x="576" y="10" style="fill: #ffffff; stroke: none; font-size: 12px; text-anchor: start" transform="rotate(45,576,0)">06:21:11</text>
<polyline points="3294,0 3294,-200" style="vector-effect: non-scaling-stroke; stroke: #202020" transform="scale(0.196721,1)"/>
<text x="648" y="10" style="fill: #ffffff; stroke: none; font-size: 12px; text-anchor: start" transform="rotate(45,648,0)">06:27:17</text>
<polyline points="3660,0 3660,-200" style="vector-effect: non-scaling-stroke; stroke: #202020" transform="scale(0.196721,1)"/>
<text x="720" y="10" style="fill: #ffffff; stroke: none; font-size: 12px; text-anchor: start" transform="rotate(45,720,0)">06:33:23</text>
<text x="-10" y="30" style="fill: #ffff00; stroke: none; font-size: 12px; text-anchor: end">UTC</text>
<path d=" M60,0.00 L120,0.00 L180,0.00 L240,0.00 L300,0.00 L360,0.00 L420,0.00 L480,0.00 L540,0.00 L600,0.00 L660,0.00 L720,0.00 L780,0.00 L840,0.00 L900,0.00 L960,0.00 L1020,0.00 L1080,0.00 L1140,0.00 L1200,0.00 L1260,0.00 L1320,0.00 L1380,0.00 L1440,0.00 L1500,0.00 L1560,0.00 L1620,0.00 L1680,0.00 L1740,0.00 L1800,0.00 L1860,0.00 L1920,0.00 L1980,0.00 L2040,0.00 L2100,0.00 L2160,0.00 L2220,0.00 L2280,0.00 L2340,0.00 L2400,0.00 L2460,0.00 L2520,0.00 L2580,0.00 L2640,0.00 L2700,0.00 L2760,0.00 L2820,0.00 L2880,0.00 L2940,0.00 L3000,0.00 L3060,0.00 L3120,0.00 L3180,0.00 L3240,0.00 L3300,0.00 L3360,0.00 L3420,0.00 L3480,0.00 L3540,0.00 L3600,0.00 L3660,0.00" style="vector-effect: non-scaling-stroke; stroke: #e85f00; stroke-width: 1; fill-opacity: 0" transform="scale(0.196721,-200.000000)"/>
<path d=" M60,0.00 L120,0.00 L180,0.00 L240,0.00 L300,0.00 L360,0.00 L420,0.00 L480,0.00 L540,0.00 L600,0.00 L660,0.00 L720,0.00 L780,0.00 L840,0.00 L900,0.00 L960,0.00 L1020,0.00 L1080,0.00 L1140,0.00 L1200,0.00 L1260,0.00 L1320,0.00 L1380,0.00 L1440,0.00 L1500,0.00 L1560,0.00 L1620,0.00 L1680,0.00 L1740,0.00 L1800,0.00 L1860,0.00 L1920,0.00 L1980,0.00 L2040,0.00 L2100,0.00 L2160,0.00 L2220,0.00 L2280,0.00 L2340,0.00 L2400,0.00 L2460,0.00 L2520,0.00 L2580,0.00 L2640,0.00 L2700,0.00 L2760,0.00 L2820,0.00 L2880,0.00 L2940,0.00 L3000,0.00 L3060,0.00 L3120,0.00 L3180,0.00 L3240,0.00 L3300,0.00 L3360,0.00 L3420,0.00 L3480,0.00 L3540,0.00 L3600,0.00 L3660,0.00" style="vector-effect: non-scaling-stroke; stroke: #0000ff; stroke-width: 1; fill-opacity: 0" transform="scale(0.196721,-200.000000)"/>
<path d=" M60,0.00 L120,0.00 L180,0.00 L240,0.00 L300,0.00 L360,0.00 L420,0.00 L480,0.00 L540,0.00 L600,0.00 L660,0.00 L720,0.00 L780,0.00 L840,0.00 L900,0.00 L960,0.00 L1020,0.00 L1080,0.00 L1140,0.00 L1200,0.00 L1260,0.00 L1320,0.00 L1380,0.00 L1440,0.00 L1500,0.00 L1560,0.00 L1620,0.00 L1680,0.00 L1740,0.00 L1800,0.00 L1860,0.00 L1920,0.00 L1980,0.00 L2040,0.00 L2100,0.00 L2160,0.00 L2220,0.00 L2280,0.00 L2340,0.00 L2400,0.00 L2460,0.00 L2520,0.00 L2580,0.00 L2640,0.00 L2700,0.00 L2760,0.00 L2820,0.00 L2880,0.00 L2940,0.00 L3000,0.00 L3060,0.00 L3120,0.00 L3180,0.00 L3240,0.00 L3300,0.00 L3360,0.00 L3420,0.00 L3480,0.00 L3540,0.00 L3600,0.00 L3660,0.00" style="vector-effect: non-scaling-stroke; stroke: #006020; stroke-width: 1; fill-opacity: 0" transform="scale(0.196721,-200.000000)"/>
</g>
<rect x="0" y="930" height="300" width="1050" fill="#000000"/>
<text x="0" y="950" style="fill: #ffff00; stroke: none">Network interfaces statistics (4) [ens5]
<tspan x="795" y="955" style="fill: #ffff00; stroke: none; font-size: 12px">(Min, Max values)</tspan>
</text>
<polyline points="70,980 70,1180 790,1180" style="fill: #000000; stroke: #ffffff; stroke-width: 2"/>
<text x="795" y="980" style="fill: #7030a0; stroke: none; font-size: 12px">%ifutil (0.00, 0.00)</text>
<g transform="translate(70,1180)">
<text x="0" y="0" style="fill: #ffffff; stroke: none; font-size: 12px; text-anchor: end">0.</text>
<polyline points="0,25.00 720,25.00" style="vector-effect: non-scaling-stroke; stroke: #202020" transform="scale(1,-2.000000)"/>
<text x="0" y="-50" style="fill: #ffffff; stroke: none; font-size: 12px; text-anchor: end">25.</text>
<polyline points="0,50.00 720,50.00" style="vector-effect: non-scaling-stroke; stroke: #202020" transform="scale(1,-2.000000)"/>
<text x="0" y="-100" style="fill: #ffffff; stroke: none; font-size: 12px; text-anchor: end">50.</text>
<polyline points="0,75.00 720,75.00" style="vector-effect: non-scaling-stroke; stroke: #202020" transform="scale(1,-2.000000)"/>
<text x="0" y="-150" style="fill: #ffffff; stroke: none; font-size: 12px; text-anchor: end">75.</text>
<polyline points="0,100.00 720,100.00" style="vector-effect: non-scaling-stroke; stroke: #202020" transform="scale(1,-2.000000)"/>
<text x="0" y="-200" style="fill: #ffffff; stroke: none; font-size: 12px; text-anchor: end">100.</text>
<polyline points="0,0 0,-200" style="vector-effect: non-scaling-stroke; stroke: #202020" transform="scale(0.196721,1)"/>
<text x="0" y="10" style="fill: #ffffff; stroke: none; font-size: 12px; text-anchor: start" transform="rotate(45,0,0)">05:32:23</text>
<polyline points="366,0 366,-200" style="vector-effect: non-scaling-stroke; stroke: #202020" transform="scale(0.196721,1)"/>
<text x="72" y="10" style="fill: #ffffff; stroke: none; font-size: 12px; text-anchor: start" transform="rotate(45,72,0)">05:38:29</text>
<polyline points="732,0 732,-200" style="vector-effect: non-scaling-stroke; stroke: #202020" transform="scale(0.196721,1)"/>
<text x="144" y="10" style="fill: #ffffff; stroke: none; font-size: 12px; text-anchor: start" transform="rotate(45,144,0)">05:44:35</text>
<polyline points="1098,0 1098,-200" style="vector-effect: non-scaling-stroke; stroke: #202020" transform="scale(0.196721,1)"/>
<text x="216" y="10" style="fill: #ffffff; stroke: none; font-size: 12px; text-anchor: start" transform="rotate(45,216,0)">05:50:41</text>
<polyline points="1464,0 1464,-200" style="vector-effect: non-scaling-stroke; stroke: #202020" transform="scale(0.196721,1)"/>
<text x="288" y="10" style="fill: #ffffff; stroke: none; font-size: 12px; text-anchor: start" transform="rotate(45,288,0)">05:56:47</text>
<polyline points="1830,0 1830,-200" style="vector-effect: non-scaling-stroke; stroke: #202020" transform="scale(0.196721,1)"/>
<text x="360" y="10" style="fill: #ffffff; stroke: none; font-size: 12px; text-anchor: start" transform="rotate(45,360,0)">06:02:53</text>
<polyline points="2196,0 2196,-200" style="vector-effect: non-scaling-stroke; stroke: #202020" transform="scale(0.196721,1)"/>
<text x="432" y="10" style="fill: #ffffff; stroke: none; font-size: 12px; text-anchor: start" transform="rotate(45,432,0)">06:08:59</text>
<polyline points="2562,0 2562,-200" style="vector-effect: non-scaling-stroke; stroke: #202020" transform="scale(0.196721,1)"/>
<text x="504" y="10" style="fill: #ffffff; stroke: none; font-size: 12px; text-anchor: start" transform="rotate(45,504,0)">06:15:05</text>
<polyline points="2928,0 2928,-200" style="vector-effect: non-scaling-stroke; stroke: #202020" transform="scale(0.196721,1)"/>
<text x="576" y="10" style="fill: #ffffff; stroke: none; font-size: 12px; text-anchor: start" transform="rotate(45,576,0)">06:21:11</text>
<polyline points="3294,0 3294,-200" style="vector-effect: non-scaling-stroke; stroke: #202020" transform="scale(0.196721,1)"/>
<text x="648" y="10" style="fill: #ffffff; stroke: none; font-size: 12px; text-anchor: start" transform="rotate(45,648,0)">06:27:17</text>
<polyline points="3660,0 3660,-200" style="vector-effect: non-scaling-stroke; stroke: #202020" transform="scale(0.196721,1)"/>
<text x="720" y="10" style="fill: #ffffff; stroke: none; font-size: 12px; text-anchor: start" transform="rotate(45,720,0)">06:33:23</text>
<text x="-10" y="30" style="fill: #ffff00; stroke: none; font-size: 12px; text-anchor: end">UTC</text>
</g>
</g>
<!-- Actual canvas height: 2540 -->
</svg>
